<svg width="73" height="73" viewBox="0 0 73 73" fill="none" xmlns="http://www.w3.org/2000/svg">
<circle cx="38" cy="38" r="35" fill="#FADF14"/>
<circle cx="35" cy="35" r="34.8" stroke="black" stroke-opacity="0.85" stroke-width="0.4"/>
<mask id="mask0_345_4" style="mask-type:alpha" maskUnits="userSpaceOnUse" x="16" y="16" width="40" height="40">
<rect x="16" y="16" width="40" height="40" fill="#D9D9D9"/>
</mask>
<g mask="url(#mask0_345_4)">
<path d="M36.0029 43.1112C35.7974 43.1112 35.6158 43.0373 35.4583 42.8895C35.3008 42.7414 35.2221 42.5609 35.2221 42.3478C35.2221 42.1345 35.2999 41.9491 35.4554 41.7916C35.611 41.6341 35.7915 41.5553 35.9971 41.5553C36.2026 41.5553 36.3842 41.6334 36.5417 41.7895C36.6992 41.9453 36.7779 42.1264 36.7779 42.3328C36.7779 42.5553 36.7001 42.7406 36.5446 42.8887C36.389 43.037 36.2085 43.1112 36.0029 43.1112ZM35.5 39.1112V28.722H36.5V39.1112H35.5ZM28.8333 52.1666C28.1708 52.1666 27.6163 51.9434 27.1696 51.497C26.7232 51.0503 26.5 50.4958 26.5 49.8333V22.1666C26.5 21.5041 26.7232 20.9495 27.1696 20.5028C27.6163 20.0564 28.1708 19.8333 28.8333 19.8333H43.1667C43.8292 19.8333 44.3838 20.0564 44.8304 20.5028C45.2768 20.9495 45.5 21.5041 45.5 22.1666V49.8333C45.5 50.4958 45.2768 51.0503 44.8304 51.497C44.3838 51.9434 43.8292 52.1666 43.1667 52.1666H28.8333ZM27.5 48.4999V49.8333C27.5 50.1666 27.6389 50.4721 27.9167 50.7499C28.1944 51.0277 28.5 51.1666 28.8333 51.1666H43.1667C43.5 51.1666 43.8056 51.0277 44.0833 50.7499C44.3611 50.4721 44.5 50.1666 44.5 49.8333V48.4999H27.5ZM27.5 47.4999H44.5V24.4999H27.5V47.4999ZM27.5 23.4999H44.5V22.1666C44.5 21.8333 44.3611 21.5277 44.0833 21.2499C43.8056 20.9721 43.5 20.8333 43.1667 20.8333H28.8333C28.5 20.8333 28.1944 20.9721 27.9167 21.2499C27.6389 21.5277 27.5 21.8333 27.5 22.1666V23.4999Z" fill="#1C1B1F"/>
</g>
</svg>
