<svg width="15" height="15" viewBox="0 0 15 15" fill="none" xmlns="http://www.w3.org/2000/svg">
<mask id="mask0_49_11" style="mask-type:alpha" maskUnits="userSpaceOnUse" x="0" y="0" width="15" height="15">
<rect width="15" height="15" fill="#D9D9D9"/>
</mask>
<g mask="url(#mask0_49_11)">
<path d="M12.9374 13.6058L10.9374 11.6058V13.2188H9.99992V10.0001H13.2187V10.9376H11.59L13.59 12.9376L12.9374 13.6058ZM7.49992 13.4376C6.67857 13.4376 5.9067 13.2817 5.18431 12.9701C4.46192 12.6584 3.83353 12.2354 3.29916 11.7012C2.76478 11.1669 2.34174 10.5386 2.03002 9.81633C1.7183 9.09407 1.56244 8.32234 1.56244 7.50113C1.56244 6.67992 1.71827 5.90803 2.02994 5.18544C2.34161 4.46285 2.76457 3.8343 3.29885 3.29979C3.83313 2.76527 4.4614 2.3421 5.18367 2.0303C5.90593 1.7185 6.67767 1.5626 7.49888 1.5626C8.32009 1.5626 9.09198 1.71846 9.81457 2.03018C10.5372 2.3419 11.1657 2.76494 11.7002 3.29932C12.2347 3.83369 12.6579 4.46208 12.9697 5.18447C13.2815 5.90685 13.4374 6.67871 13.4374 7.50007C13.4374 7.68837 13.4285 7.87667 13.4107 8.06497C13.3928 8.25327 13.3661 8.44156 13.3304 8.62986H12.3677C12.4118 8.44156 12.4448 8.25327 12.4669 8.06497C12.4889 7.87667 12.4999 7.68837 12.4999 7.50007C12.4999 7.27304 12.4849 7.046 12.4548 6.81897C12.4248 6.59194 12.3777 6.36624 12.3136 6.14188H9.9903C10.0296 6.36624 10.058 6.59194 10.0756 6.81897C10.0933 7.046 10.1021 7.27304 10.1021 7.50007C10.1021 7.68837 10.0958 7.87667 10.0831 8.06497C10.0705 8.25327 10.0516 8.44156 10.0263 8.62986H9.08888C9.11412 8.44156 9.13304 8.25327 9.14566 8.06497C9.15828 7.87667 9.1646 7.68837 9.1646 7.50007C9.1646 7.27304 9.15578 7.046 9.13816 6.81897C9.12052 6.59194 9.09208 6.36624 9.05281 6.14188H5.94703C5.90777 6.36624 5.87932 6.59211 5.86169 6.81947C5.84406 7.04684 5.83525 7.2742 5.83525 7.50157C5.83525 7.72893 5.84406 7.9558 5.86169 8.18216C5.87932 8.40853 5.90777 8.63389 5.94703 8.85825H8.24513V9.79572H6.16217C6.30063 10.2874 6.47948 10.7591 6.69872 11.2108C6.91795 11.6624 7.18502 12.0878 7.49992 12.4868C7.68823 12.4868 7.87653 12.4758 8.06483 12.4538C8.25312 12.4318 8.44142 12.4103 8.62972 12.3895V13.3402C8.44142 13.361 8.25312 13.3825 8.06483 13.4045C7.87653 13.4265 7.68823 13.4376 7.49992 13.4376ZM2.68622 8.85825H5.00955C4.97029 8.63389 4.94185 8.40803 4.92422 8.18066C4.9066 7.9533 4.89778 7.72593 4.89778 7.49857C4.89778 7.2712 4.9066 7.04434 4.92422 6.81797C4.94185 6.59161 4.97029 6.36624 5.00955 6.14188H2.68622C2.62212 6.36624 2.57504 6.59211 2.545 6.81947C2.51495 7.04684 2.49992 7.2742 2.49992 7.50157C2.49992 7.72893 2.51495 7.9558 2.545 8.18216C2.57504 8.40853 2.62212 8.63389 2.68622 8.85825ZM3.07924 5.20441H5.19661C5.30428 4.75088 5.44745 4.31217 5.62614 3.88829C5.80483 3.46441 6.02599 3.05936 6.28961 2.67313C5.58849 2.82858 4.95967 3.12746 4.40317 3.56977C3.84667 4.01208 3.40536 4.55696 3.07924 5.20441ZM6.28961 12.327C6.03801 11.9368 5.82186 11.5297 5.64117 11.1058C5.46048 10.6819 5.31324 10.2452 5.19945 9.79572H3.07924C3.40536 10.4392 3.84767 10.982 4.40617 11.4243C4.96467 11.8667 5.59249 12.1675 6.28961 12.327ZM6.16217 5.20441H8.83767C8.70466 4.71242 8.52552 4.24281 8.30024 3.79557C8.07497 3.34833 7.8082 2.9209 7.49992 2.51329C7.18903 2.91233 6.9216 3.33761 6.69763 3.78913C6.47367 4.24066 6.29518 4.71242 6.16217 5.20441ZM9.80039 5.20441H11.9206C11.5945 4.55696 11.1532 4.01108 10.5967 3.56677C10.0402 3.12246 9.41136 2.82458 8.71024 2.67313C8.96184 3.06336 9.17498 3.47142 9.34966 3.8973C9.52435 4.32319 9.67459 4.75889 9.80039 5.20441Z" fill="#1E80CB"/>
</g>
</svg>
