<svg width="243" height="143" viewBox="0 0 243 143" fill="none" xmlns="http://www.w3.org/2000/svg">
<circle cx="122" cy="37" r="35" fill="#FADF14"/>
<circle cx="120" cy="35" r="34.75" stroke="black" stroke-opacity="0.85" stroke-width="0.5"/>
<mask id="mask0_337_124" style="mask-type:alpha" maskUnits="userSpaceOnUse" x="101" y="16" width="40" height="40">
<rect x="101" y="16" width="40" height="40" fill="#D9D9D9"/>
</mask>
<g mask="url(#mask0_337_124)">
<path d="M134.389 50.889L120.972 37.4167C119.129 37.4353 117.361 37.8103 115.667 38.5417C113.972 39.2732 112.546 40.2593 111.389 41.5001L110.417 40.5279C111.574 39.3519 112.947 38.3473 114.535 37.514C116.123 36.6806 117.815 36.1853 119.611 36.0279L112.583 29.0279C111.259 29.5001 109.842 30.2316 108.333 31.2223C106.824 32.213 105.491 33.2779 104.333 34.4167L103.417 33.4445C104.62 32.2408 105.937 31.139 107.368 30.139C108.798 29.139 110.148 28.3797 111.417 27.8612L107.444 23.889L108.167 23.1667L135.167 50.1667L134.389 50.889ZM121 49.6945C120.454 49.6945 119.984 49.5024 119.59 49.1181C119.197 48.7339 119 48.2593 119 47.6945C119 47.1482 119.197 46.6783 119.59 46.2848C119.984 45.8913 120.454 45.6945 121 45.6945C121.546 45.6945 122.016 45.8913 122.41 46.2848C122.803 46.6783 123 47.1482 123 47.6945C123 48.2593 122.803 48.7339 122.41 49.1181C122.016 49.5024 121.546 49.6945 121 49.6945ZM130.944 41.0834C130.629 40.7871 130.354 40.5394 130.118 40.3404C129.882 40.1413 129.579 39.9306 129.208 39.7084L126.778 37.2501C127.389 37.4353 128.127 37.7987 128.993 38.3404C129.859 38.882 130.722 39.5834 131.583 40.4445L130.944 41.0834ZM137.667 34.4167C135.472 32.2408 132.956 30.5302 130.118 29.2848C127.28 28.0394 124.241 27.4167 121 27.4167C120.324 27.4167 119.653 27.4468 118.986 27.507C118.319 27.5672 117.75 27.6482 117.278 27.7501L116 26.5001C116.583 26.3427 117.282 26.22 118.097 26.132C118.912 26.0441 119.879 26.0001 121 26.0001C124.472 26.0001 127.708 26.6598 130.708 27.9792C133.708 29.2987 136.361 31.1205 138.667 33.4445L137.667 34.4167Z" fill="#1C1B1F"/>
</g>
<path d="M72.5879 116H71.5566V112.244L68.1465 107.211H69.4004L72.0723 111.383L74.7559 107.211H76.0039L72.5879 112.256V116ZM80.3527 116.117C79.7707 116.117 79.2473 115.984 78.7824 115.719C78.3176 115.453 77.9504 115.092 77.6809 114.635C77.4152 114.174 77.2824 113.652 77.2824 113.07C77.2824 112.492 77.4152 111.975 77.6809 111.518C77.9504 111.057 78.3176 110.693 78.7824 110.428C79.2473 110.158 79.7707 110.023 80.3527 110.023C80.9348 110.023 81.4563 110.158 81.9172 110.428C82.3781 110.693 82.7414 111.057 83.007 111.518C83.2727 111.975 83.4055 112.492 83.4055 113.07C83.4055 113.652 83.2727 114.174 83.007 114.635C82.7414 115.092 82.3781 115.453 81.9172 115.719C81.4563 115.984 80.9348 116.117 80.3527 116.117ZM80.3469 115.25C80.7414 115.25 81.0949 115.154 81.4074 114.963C81.7199 114.771 81.966 114.512 82.1457 114.184C82.3293 113.855 82.4211 113.482 82.4211 113.064C82.4211 112.654 82.3293 112.285 82.1457 111.957C81.966 111.629 81.7199 111.369 81.4074 111.178C81.0949 110.986 80.7414 110.891 80.3469 110.891C79.9523 110.891 79.5969 110.986 79.2805 111.178C78.968 111.369 78.7199 111.629 78.5363 111.957C78.3566 112.285 78.2668 112.654 78.2668 113.064C78.2668 113.482 78.3566 113.855 78.5363 114.184C78.7199 114.512 78.968 114.771 79.2805 114.963C79.5969 115.154 79.9523 115.25 80.3469 115.25ZM91.9262 116H91.0824L91.0473 115.051C90.8324 115.395 90.5492 115.658 90.1977 115.842C89.85 116.025 89.4379 116.117 88.9613 116.117C88.184 116.117 87.5688 115.883 87.1156 115.414C86.6664 114.941 86.4418 114.297 86.4418 113.48V110.141H87.4027V113.41C87.4027 113.965 87.559 114.408 87.8715 114.74C88.1879 115.072 88.6078 115.238 89.1313 115.238C89.6781 115.238 90.1195 115.059 90.4555 114.699C90.7953 114.34 90.9652 113.871 90.9652 113.293V110.141H91.9262V116ZM96.1109 109.73H95.5426L96.1344 107.094H96.8434L96.1109 109.73ZM101.421 116H100.46V110.141H101.304L101.345 111.301C101.548 110.898 101.833 110.586 102.2 110.363C102.571 110.137 102.997 110.023 103.477 110.023C103.583 110.023 103.69 110.029 103.8 110.041C103.909 110.053 104.018 110.07 104.128 110.094L104.011 110.961C103.796 110.91 103.583 110.885 103.372 110.885C102.989 110.885 102.649 110.979 102.352 111.166C102.059 111.354 101.831 111.611 101.667 111.939C101.503 112.268 101.421 112.645 101.421 113.07V116ZM112.062 115.279C111.336 115.838 110.535 116.117 109.66 116.117C109.051 116.117 108.504 115.98 108.02 115.707C107.535 115.434 107.152 115.062 106.871 114.594C106.594 114.121 106.455 113.588 106.455 112.994C106.455 112.424 106.584 111.916 106.842 111.471C107.1 111.021 107.453 110.668 107.902 110.41C108.352 110.152 108.861 110.023 109.432 110.023C110.018 110.023 110.533 110.164 110.979 110.445C111.428 110.727 111.777 111.117 112.027 111.617C112.277 112.117 112.402 112.695 112.402 113.352V113.539H107.498C107.568 113.883 107.709 114.182 107.92 114.436C108.135 114.689 108.4 114.887 108.717 115.027C109.033 115.168 109.387 115.238 109.777 115.238C110.449 115.238 111.062 115.018 111.617 114.576L112.062 115.279ZM107.463 112.719H111.494C111.451 112.355 111.338 112.039 111.154 111.77C110.975 111.496 110.74 111.283 110.451 111.131C110.166 110.979 109.844 110.902 109.484 110.902C109.121 110.902 108.793 110.979 108.5 111.131C108.211 111.283 107.975 111.496 107.791 111.77C107.611 112.039 107.502 112.355 107.463 112.719ZM122.887 116.117C122.305 116.117 121.782 115.984 121.317 115.719C120.852 115.453 120.485 115.092 120.215 114.635C119.95 114.174 119.817 113.652 119.817 113.07C119.817 112.492 119.95 111.975 120.215 111.518C120.485 111.057 120.852 110.693 121.317 110.428C121.782 110.158 122.305 110.023 122.887 110.023C123.469 110.023 123.991 110.158 124.452 110.428C124.912 110.693 125.276 111.057 125.541 111.518C125.807 111.975 125.94 112.492 125.94 113.07C125.94 113.652 125.807 114.174 125.541 114.635C125.276 115.092 124.912 115.453 124.452 115.719C123.991 115.984 123.469 116.117 122.887 116.117ZM122.881 115.25C123.276 115.25 123.629 115.154 123.942 114.963C124.254 114.771 124.5 114.512 124.68 114.184C124.864 113.855 124.955 113.482 124.955 113.064C124.955 112.654 124.864 112.285 124.68 111.957C124.5 111.629 124.254 111.369 123.942 111.178C123.629 110.986 123.276 110.891 122.881 110.891C122.487 110.891 122.131 110.986 121.815 111.178C121.502 111.369 121.254 111.629 121.071 111.957C120.891 112.285 120.801 112.654 120.801 113.064C120.801 113.482 120.891 113.855 121.071 114.184C121.254 114.512 121.502 114.771 121.815 114.963C122.131 115.154 122.487 115.25 122.881 115.25ZM130.494 116H129.533V111.002H128.507V110.141H129.533V108.881C129.533 108.518 129.609 108.197 129.761 107.92C129.918 107.643 130.132 107.426 130.406 107.27C130.683 107.113 131.002 107.035 131.361 107.035C131.584 107.035 131.806 107.066 132.029 107.129C132.255 107.188 132.476 107.279 132.691 107.404L132.322 108.16C132.189 108.074 132.054 108.01 131.918 107.967C131.781 107.92 131.644 107.896 131.507 107.896C131.207 107.896 130.963 108.006 130.775 108.225C130.588 108.439 130.494 108.721 130.494 109.068V110.141H132.304V111.002H130.494V116ZM136.419 116H135.458V111.002H134.432V110.141H135.458V108.881C135.458 108.518 135.534 108.197 135.686 107.92C135.843 107.643 136.057 107.426 136.331 107.27C136.608 107.113 136.927 107.035 137.286 107.035C137.509 107.035 137.731 107.066 137.954 107.129C138.18 107.188 138.401 107.279 138.616 107.404L138.247 108.16C138.114 108.074 137.979 108.01 137.843 107.967C137.706 107.92 137.569 107.896 137.432 107.896C137.132 107.896 136.887 108.006 136.7 108.225C136.512 108.439 136.419 108.721 136.419 109.068V110.141H138.229V111.002H136.419V116ZM142.666 116H141.646V106.977H142.666V116ZM146.786 108.289C146.622 108.289 146.484 108.232 146.37 108.119C146.261 108.002 146.206 107.861 146.206 107.697C146.206 107.537 146.261 107.4 146.37 107.287C146.484 107.174 146.622 107.117 146.786 107.117C146.954 107.117 147.095 107.174 147.208 107.287C147.321 107.4 147.378 107.537 147.378 107.697C147.378 107.861 147.321 108.002 147.208 108.119C147.095 108.232 146.954 108.289 146.786 108.289ZM147.267 116H146.306V110.141H147.267V116ZM156.403 116H155.442V112.73C155.442 112.176 155.284 111.732 154.967 111.4C154.651 111.068 154.231 110.902 153.707 110.902C153.164 110.902 152.723 111.082 152.383 111.441C152.047 111.797 151.879 112.266 151.879 112.848V116H150.918V110.141H151.756L151.791 111.09C152.006 110.746 152.289 110.482 152.641 110.299C152.993 110.115 153.407 110.023 153.883 110.023C154.661 110.023 155.274 110.258 155.723 110.727C156.176 111.195 156.403 111.838 156.403 112.654V116ZM165.041 115.279C164.314 115.838 163.513 116.117 162.638 116.117C162.029 116.117 161.482 115.98 160.998 115.707C160.513 115.434 160.13 115.062 159.849 114.594C159.572 114.121 159.433 113.588 159.433 112.994C159.433 112.424 159.562 111.916 159.82 111.471C160.078 111.021 160.431 110.668 160.88 110.41C161.33 110.152 161.839 110.023 162.41 110.023C162.996 110.023 163.511 110.164 163.957 110.445C164.406 110.727 164.755 111.117 165.005 111.617C165.255 112.117 165.38 112.695 165.38 113.352V113.539H160.476C160.546 113.883 160.687 114.182 160.898 114.436C161.113 114.689 161.379 114.887 161.695 115.027C162.011 115.168 162.365 115.238 162.755 115.238C163.427 115.238 164.041 115.018 164.595 114.576L165.041 115.279ZM160.441 112.719H164.472C164.429 112.355 164.316 112.039 164.132 111.77C163.953 111.496 163.718 111.283 163.429 111.131C163.144 110.979 162.822 110.902 162.463 110.902C162.099 110.902 161.771 110.979 161.478 111.131C161.189 111.283 160.953 111.496 160.769 111.77C160.589 112.039 160.48 112.355 160.441 112.719ZM173.92 113.65H173.498L173.305 107.211H174.113L173.92 113.65ZM173.709 116.117C173.541 116.117 173.398 116.061 173.281 115.947C173.168 115.83 173.111 115.689 173.111 115.525C173.111 115.365 173.168 115.229 173.281 115.115C173.398 115.002 173.541 114.945 173.709 114.945C173.877 114.945 174.018 115.002 174.131 115.115C174.248 115.229 174.307 115.365 174.307 115.525C174.307 115.689 174.248 115.83 174.131 115.947C174.018 116.061 173.877 116.117 173.709 116.117Z" fill="black"/>
<path d="M8.34961 138.869C7.95117 139.279 7.47266 139.6 6.91406 139.83C6.35547 140.061 5.74805 140.176 5.0918 140.176C4.43164 140.176 3.82422 140.062 3.26953 139.836C2.71484 139.609 2.23242 139.291 1.82227 138.881C1.41602 138.467 1.09961 137.982 0.873047 137.428C0.650391 136.869 0.539062 136.262 0.539062 135.605C0.539062 134.945 0.650391 134.338 0.873047 133.783C1.09961 133.225 1.41602 132.74 1.82227 132.33C2.23242 131.92 2.71484 131.602 3.26953 131.375C3.82422 131.148 4.43164 131.035 5.0918 131.035C5.74805 131.035 6.35352 131.15 6.9082 131.381C7.4668 131.611 7.94727 131.93 8.34961 132.336L7.80469 132.887C7.47266 132.523 7.07227 132.24 6.60352 132.037C6.13867 131.83 5.62891 131.727 5.07422 131.727C4.53516 131.727 4.03711 131.824 3.58008 132.02C3.12305 132.211 2.72656 132.482 2.39062 132.834C2.05469 133.182 1.79297 133.592 1.60547 134.064C1.42188 134.533 1.33008 135.047 1.33008 135.605C1.33008 136.164 1.42188 136.68 1.60547 137.152C1.79297 137.621 2.05469 138.031 2.39062 138.383C2.72656 138.73 3.12305 139.002 3.58008 139.197C4.03711 139.389 4.53516 139.484 5.07422 139.484C5.62891 139.484 6.13867 139.383 6.60352 139.18C7.07227 138.973 7.47266 138.688 7.80469 138.324L8.34961 138.869ZM11.7902 140V131.211H12.5109V135.189C12.9328 134.412 13.6477 134.023 14.6555 134.023C15.4328 134.023 16.0383 134.256 16.4719 134.721C16.9094 135.186 17.1281 135.836 17.1281 136.672V140H16.4074V136.818C16.4074 136.143 16.2375 135.617 15.8977 135.242C15.5578 134.863 15.0852 134.674 14.4797 134.674C13.8703 134.674 13.3898 134.865 13.0383 135.248C12.6867 135.631 12.5109 136.154 12.5109 136.818V140H11.7902ZM25.8363 139.268C25.1176 139.834 24.3207 140.117 23.4457 140.117C22.8402 140.117 22.2973 139.982 21.8168 139.713C21.3402 139.439 20.9652 139.068 20.6918 138.6C20.4184 138.131 20.2816 137.6 20.2816 137.006C20.2816 136.432 20.4086 135.92 20.6625 135.471C20.9203 135.021 21.2719 134.668 21.7172 134.41C22.1625 134.152 22.6684 134.023 23.2348 134.023C23.809 134.023 24.3148 134.16 24.7523 134.434C25.1898 134.703 25.5316 135.078 25.7777 135.559C26.0238 136.035 26.1469 136.588 26.1469 137.217V137.398H21.0609C21.1078 137.809 21.2426 138.168 21.4652 138.477C21.6918 138.785 21.9809 139.025 22.3324 139.197C22.684 139.369 23.0785 139.455 23.516 139.455C24.2348 139.455 24.8949 139.217 25.4965 138.74L25.8363 139.268ZM21.0375 136.777H25.473C25.4379 136.359 25.3227 135.994 25.1273 135.682C24.932 135.369 24.6742 135.125 24.3539 134.949C24.0375 134.773 23.6762 134.686 23.2699 134.686C22.8598 134.686 22.4906 134.773 22.1625 134.949C21.8383 135.125 21.5766 135.371 21.3773 135.688C21.182 136 21.0688 136.363 21.0375 136.777ZM34.2164 139.186C33.9352 139.482 33.6031 139.713 33.2203 139.877C32.8414 140.037 32.4312 140.117 31.9898 140.117C31.4117 140.117 30.8922 139.984 30.4312 139.719C29.9742 139.453 29.6129 139.09 29.3473 138.629C29.0816 138.168 28.9488 137.648 28.9488 137.07C28.9488 136.488 29.0816 135.969 29.3473 135.512C29.6129 135.051 29.9742 134.688 30.4312 134.422C30.8922 134.156 31.4117 134.023 31.9898 134.023C32.4273 134.023 32.8375 134.104 33.2203 134.264C33.6031 134.424 33.9332 134.652 34.2105 134.949L33.7711 135.412C33.5523 135.182 33.2906 135.004 32.9859 134.879C32.6852 134.75 32.3629 134.686 32.0191 134.686C31.5699 134.686 31.1695 134.789 30.818 134.996C30.4703 135.199 30.1949 135.48 29.9918 135.84C29.7926 136.199 29.693 136.607 29.693 137.064C29.693 137.525 29.7926 137.938 29.9918 138.301C30.1949 138.66 30.4703 138.943 30.818 139.15C31.1695 139.354 31.5699 139.455 32.0191 139.455C32.3629 139.455 32.6871 139.393 32.9918 139.268C33.2965 139.139 33.5562 138.959 33.7711 138.729L34.2164 139.186ZM38.2195 140H37.4988V131.211H38.2195V137.65L38.6355 137.146L41.4891 134.141H42.3914L40.0125 136.666L42.7781 140H41.8465L39.5145 137.193L38.2195 138.57V140ZM52.3898 142.93H51.6047L52.841 139.941L50.0754 134.141H50.8723L53.1867 139.104L55.2434 134.141H56.0227L52.3898 142.93ZM61.5785 140.117C61.0004 140.117 60.4809 139.984 60.0199 139.719C59.559 139.453 59.1957 139.092 58.9301 138.635C58.6645 138.174 58.5316 137.652 58.5316 137.07C58.5316 136.492 58.6645 135.975 58.9301 135.518C59.1957 135.057 59.559 134.693 60.0199 134.428C60.4809 134.158 61.0004 134.023 61.5785 134.023C62.1527 134.023 62.6684 134.158 63.1254 134.428C63.5824 134.693 63.9437 135.057 64.2094 135.518C64.475 135.975 64.6078 136.492 64.6078 137.07C64.6078 137.648 64.475 138.168 64.2094 138.629C63.9437 139.09 63.5824 139.453 63.1254 139.719C62.6684 139.984 62.1527 140.117 61.5785 140.117ZM61.5727 139.467C62.0102 139.467 62.4008 139.361 62.7445 139.15C63.0922 138.939 63.3656 138.654 63.5648 138.295C63.768 137.932 63.8695 137.521 63.8695 137.064C63.8695 136.615 63.768 136.211 63.5648 135.852C63.3656 135.488 63.0922 135.201 62.7445 134.99C62.4008 134.779 62.0102 134.674 61.5727 134.674C61.1352 134.674 60.7426 134.779 60.3949 134.99C60.0473 135.201 59.7719 135.488 59.5687 135.852C59.3695 136.211 59.2699 136.615 59.2699 137.064C59.2699 137.521 59.3695 137.932 59.5687 138.295C59.7719 138.654 60.0473 138.939 60.3949 139.15C60.7426 139.361 61.1352 139.467 61.5727 139.467ZM73.0641 140H72.4254L72.402 138.898C72.1949 139.293 71.9098 139.596 71.5465 139.807C71.1871 140.014 70.7555 140.117 70.2516 140.117C69.4781 140.117 68.8688 139.883 68.4234 139.414C67.982 138.941 67.7613 138.293 67.7613 137.469V134.141H68.482V137.422C68.482 138.047 68.652 138.543 68.9918 138.91C69.3316 139.273 69.7906 139.455 70.3688 139.455C70.9664 139.455 71.4449 139.264 71.8043 138.881C72.1637 138.494 72.3434 137.98 72.3434 137.34V134.141H73.0641V140ZM77.5242 140H76.8035V134.141H77.4422L77.4715 135.436C77.6668 134.982 77.9559 134.635 78.3387 134.393C78.7254 134.146 79.1766 134.023 79.6922 134.023C79.7859 134.023 79.8816 134.029 79.9793 134.041C80.0809 134.049 80.1805 134.062 80.2781 134.082L80.1902 134.732C79.9988 134.693 79.8074 134.674 79.616 134.674C79.2098 134.674 78.8484 134.773 78.532 134.973C78.2156 135.172 77.9676 135.447 77.7879 135.799C77.6121 136.146 77.5242 136.549 77.5242 137.006V140ZM88.759 131.211V140H87.9855V131.211H88.759ZM97.8305 140H97.1098V136.719C97.1098 136.094 96.9379 135.6 96.5941 135.236C96.2504 134.869 95.7875 134.686 95.2055 134.686C94.6039 134.686 94.1215 134.879 93.7582 135.266C93.3949 135.648 93.2133 136.16 93.2133 136.801V140H92.4926V134.141H93.1312L93.1547 135.242C93.3578 134.848 93.643 134.547 94.0102 134.34C94.3773 134.129 94.8148 134.023 95.3227 134.023C96.1039 134.023 96.7172 134.258 97.1625 134.727C97.6078 135.195 97.8305 135.844 97.8305 136.672V140ZM104.523 139.865C104.168 140.033 103.816 140.117 103.468 140.117C103.14 140.117 102.853 140.045 102.607 139.9C102.365 139.756 102.175 139.553 102.039 139.291C101.902 139.029 101.834 138.725 101.834 138.377V134.791H100.808V134.141H101.863V132.676H102.554V134.141H104.347V134.791H102.554V138.248C102.554 138.615 102.652 138.91 102.847 139.133C103.043 139.355 103.3 139.467 103.621 139.467C103.875 139.467 104.13 139.393 104.388 139.244L104.523 139.865ZM112.815 139.268C112.096 139.834 111.3 140.117 110.425 140.117C109.819 140.117 109.276 139.982 108.796 139.713C108.319 139.439 107.944 139.068 107.671 138.6C107.397 138.131 107.261 137.6 107.261 137.006C107.261 136.432 107.387 135.92 107.641 135.471C107.899 135.021 108.251 134.668 108.696 134.41C109.141 134.152 109.647 134.023 110.214 134.023C110.788 134.023 111.294 134.16 111.731 134.434C112.169 134.703 112.511 135.078 112.757 135.559C113.003 136.035 113.126 136.588 113.126 137.217V137.398H108.04C108.087 137.809 108.221 138.168 108.444 138.477C108.671 138.785 108.96 139.025 109.311 139.197C109.663 139.369 110.057 139.455 110.495 139.455C111.214 139.455 111.874 139.217 112.475 138.74L112.815 139.268ZM108.016 136.777H112.452C112.417 136.359 112.302 135.994 112.106 135.682C111.911 135.369 111.653 135.125 111.333 134.949C111.016 134.773 110.655 134.686 110.249 134.686C109.839 134.686 109.47 134.773 109.141 134.949C108.817 135.125 108.555 135.371 108.356 135.688C108.161 136 108.048 136.363 108.016 136.777ZM117.117 140H116.396V134.141H117.035L117.064 135.436C117.26 134.982 117.549 134.635 117.932 134.393C118.318 134.146 118.77 134.023 119.285 134.023C119.379 134.023 119.475 134.029 119.572 134.041C119.674 134.049 119.773 134.062 119.871 134.082L119.783 134.732C119.592 134.693 119.4 134.674 119.209 134.674C118.803 134.674 118.441 134.773 118.125 134.973C117.809 135.172 117.561 135.447 117.381 135.799C117.205 136.146 117.117 136.549 117.117 137.006V140ZM128.128 140H127.407V136.719C127.407 136.094 127.236 135.6 126.892 135.236C126.548 134.869 126.085 134.686 125.503 134.686C124.902 134.686 124.419 134.879 124.056 135.266C123.693 135.648 123.511 136.16 123.511 136.801V140H122.79V134.141H123.429L123.452 135.242C123.655 134.848 123.941 134.547 124.308 134.34C124.675 134.129 125.113 134.023 125.62 134.023C126.402 134.023 127.015 134.258 127.46 134.727C127.905 135.195 128.128 135.844 128.128 136.672V140ZM136.836 139.268C136.118 139.834 135.321 140.117 134.446 140.117C133.84 140.117 133.297 139.982 132.817 139.713C132.34 139.439 131.965 139.068 131.692 138.6C131.418 138.131 131.282 137.6 131.282 137.006C131.282 136.432 131.409 135.92 131.663 135.471C131.92 135.021 132.272 134.668 132.717 134.41C133.163 134.152 133.668 134.023 134.235 134.023C134.809 134.023 135.315 134.16 135.752 134.434C136.19 134.703 136.532 135.078 136.778 135.559C137.024 136.035 137.147 136.588 137.147 137.217V137.398H132.061C132.108 137.809 132.243 138.168 132.465 138.477C132.692 138.785 132.981 139.025 133.332 139.197C133.684 139.369 134.079 139.455 134.516 139.455C135.235 139.455 135.895 139.217 136.496 138.74L136.836 139.268ZM132.038 136.777H136.473C136.438 136.359 136.323 135.994 136.127 135.682C135.932 135.369 135.674 135.125 135.354 134.949C135.038 134.773 134.676 134.686 134.27 134.686C133.86 134.686 133.491 134.773 133.163 134.949C132.838 135.125 132.577 135.371 132.377 135.688C132.182 136 132.069 136.363 132.038 136.777ZM143.429 139.865C143.074 140.033 142.722 140.117 142.375 140.117C142.046 140.117 141.759 140.045 141.513 139.9C141.271 139.756 141.082 139.553 140.945 139.291C140.808 139.029 140.74 138.725 140.74 138.377V134.791H139.714V134.141H140.769V132.676H141.461V134.141H143.254V134.791H141.461V138.248C141.461 138.615 141.558 138.91 141.754 139.133C141.949 139.355 142.207 139.467 142.527 139.467C142.781 139.467 143.037 139.393 143.295 139.244L143.429 139.865ZM156.223 139.186C155.941 139.482 155.609 139.713 155.227 139.877C154.848 140.037 154.438 140.117 153.996 140.117C153.418 140.117 152.898 139.984 152.438 139.719C151.98 139.453 151.619 139.09 151.354 138.629C151.088 138.168 150.955 137.648 150.955 137.07C150.955 136.488 151.088 135.969 151.354 135.512C151.619 135.051 151.98 134.688 152.438 134.422C152.898 134.156 153.418 134.023 153.996 134.023C154.434 134.023 154.844 134.104 155.227 134.264C155.609 134.424 155.939 134.652 156.217 134.949L155.777 135.412C155.559 135.182 155.297 135.004 154.992 134.879C154.691 134.75 154.369 134.686 154.025 134.686C153.576 134.686 153.176 134.789 152.824 134.996C152.477 135.199 152.201 135.48 151.998 135.84C151.799 136.199 151.699 136.607 151.699 137.064C151.699 137.525 151.799 137.938 151.998 138.301C152.201 138.66 152.477 138.943 152.824 139.15C153.176 139.354 153.576 139.455 154.025 139.455C154.369 139.455 154.693 139.393 154.998 139.268C155.303 139.139 155.562 138.959 155.777 138.729L156.223 139.186ZM162.083 140.117C161.505 140.117 160.986 139.984 160.525 139.719C160.064 139.453 159.7 139.092 159.435 138.635C159.169 138.174 159.036 137.652 159.036 137.07C159.036 136.492 159.169 135.975 159.435 135.518C159.7 135.057 160.064 134.693 160.525 134.428C160.986 134.158 161.505 134.023 162.083 134.023C162.657 134.023 163.173 134.158 163.63 134.428C164.087 134.693 164.448 135.057 164.714 135.518C164.98 135.975 165.113 136.492 165.113 137.07C165.113 137.648 164.98 138.168 164.714 138.629C164.448 139.09 164.087 139.453 163.63 139.719C163.173 139.984 162.657 140.117 162.083 140.117ZM162.077 139.467C162.515 139.467 162.905 139.361 163.249 139.15C163.597 138.939 163.87 138.654 164.07 138.295C164.273 137.932 164.374 137.521 164.374 137.064C164.374 136.615 164.273 136.211 164.07 135.852C163.87 135.488 163.597 135.201 163.249 134.99C162.905 134.779 162.515 134.674 162.077 134.674C161.64 134.674 161.247 134.779 160.9 134.99C160.552 135.201 160.277 135.488 160.073 135.852C159.874 136.211 159.775 136.615 159.775 137.064C159.775 137.521 159.874 137.932 160.073 138.295C160.277 138.654 160.552 138.939 160.9 139.15C161.247 139.361 161.64 139.467 162.077 139.467ZM173.721 140H173V136.719C173 136.094 172.829 135.6 172.485 135.236C172.141 134.869 171.678 134.686 171.096 134.686C170.495 134.686 170.012 134.879 169.649 135.266C169.286 135.648 169.104 136.16 169.104 136.801V140H168.383V134.141H169.022L169.045 135.242C169.248 134.848 169.534 134.547 169.901 134.34C170.268 134.129 170.705 134.023 171.213 134.023C171.995 134.023 172.608 134.258 173.053 134.727C173.498 135.195 173.721 135.844 173.721 136.672V140ZM182.681 140H181.961V136.719C181.961 136.094 181.789 135.6 181.445 135.236C181.101 134.869 180.638 134.686 180.056 134.686C179.455 134.686 178.972 134.879 178.609 135.266C178.246 135.648 178.064 136.16 178.064 136.801V140H177.343V134.141H177.982L178.005 135.242C178.209 134.848 178.494 134.547 178.861 134.34C179.228 134.129 179.666 134.023 180.173 134.023C180.955 134.023 181.568 134.258 182.013 134.727C182.459 135.195 182.681 135.844 182.681 136.672V140ZM191.389 139.268C190.671 139.834 189.874 140.117 188.999 140.117C188.393 140.117 187.85 139.982 187.37 139.713C186.893 139.439 186.518 139.068 186.245 138.6C185.971 138.131 185.835 137.6 185.835 137.006C185.835 136.432 185.962 135.92 186.216 135.471C186.473 135.021 186.825 134.668 187.27 134.41C187.716 134.152 188.221 134.023 188.788 134.023C189.362 134.023 189.868 134.16 190.305 134.434C190.743 134.703 191.085 135.078 191.331 135.559C191.577 136.035 191.7 136.588 191.7 137.217V137.398H186.614C186.661 137.809 186.796 138.168 187.018 138.477C187.245 138.785 187.534 139.025 187.886 139.197C188.237 139.369 188.632 139.455 189.069 139.455C189.788 139.455 190.448 139.217 191.05 138.74L191.389 139.268ZM186.591 136.777H191.026C190.991 136.359 190.876 135.994 190.68 135.682C190.485 135.369 190.227 135.125 189.907 134.949C189.591 134.773 189.229 134.686 188.823 134.686C188.413 134.686 188.044 134.773 187.716 134.949C187.391 135.125 187.13 135.371 186.93 135.688C186.735 136 186.622 136.363 186.591 136.777ZM199.77 139.186C199.488 139.482 199.156 139.713 198.773 139.877C198.395 140.037 197.984 140.117 197.543 140.117C196.965 140.117 196.445 139.984 195.984 139.719C195.527 139.453 195.166 139.09 194.9 138.629C194.635 138.168 194.502 137.648 194.502 137.07C194.502 136.488 194.635 135.969 194.9 135.512C195.166 135.051 195.527 134.688 195.984 134.422C196.445 134.156 196.965 134.023 197.543 134.023C197.98 134.023 198.391 134.104 198.773 134.264C199.156 134.424 199.486 134.652 199.764 134.949L199.324 135.412C199.105 135.182 198.844 135.004 198.539 134.879C198.238 134.75 197.916 134.686 197.572 134.686C197.123 134.686 196.723 134.789 196.371 134.996C196.023 135.199 195.748 135.48 195.545 135.84C195.346 136.199 195.246 136.607 195.246 137.064C195.246 137.525 195.346 137.938 195.545 138.301C195.748 138.66 196.023 138.943 196.371 139.15C196.723 139.354 197.123 139.455 197.572 139.455C197.916 139.455 198.24 139.393 198.545 139.268C198.85 139.139 199.109 138.959 199.324 138.729L199.77 139.186ZM206.181 139.865C205.825 140.033 205.474 140.117 205.126 140.117C204.798 140.117 204.511 140.045 204.265 139.9C204.023 139.756 203.833 139.553 203.696 139.291C203.56 139.029 203.491 138.725 203.491 138.377V134.791H202.466V134.141H203.521V132.676H204.212V134.141H206.005V134.791H204.212V138.248C204.212 138.615 204.31 138.91 204.505 139.133C204.7 139.355 204.958 139.467 205.279 139.467C205.532 139.467 205.788 139.393 206.046 139.244L206.181 139.865ZM209.621 132.084C209.485 132.084 209.37 132.037 209.276 131.943C209.186 131.846 209.141 131.729 209.141 131.592C209.141 131.459 209.186 131.346 209.276 131.252C209.37 131.158 209.485 131.111 209.621 131.111C209.762 131.111 209.879 131.158 209.973 131.252C210.071 131.346 210.12 131.459 210.12 131.592C210.12 131.729 210.071 131.846 209.973 131.943C209.879 132.037 209.762 132.084 209.621 132.084ZM209.985 140H209.264V134.141H209.985V140ZM218.986 134.141L216.496 140H215.793L213.308 134.141H214.087L216.15 139.221L218.218 134.141H218.986ZM222.667 132.084C222.53 132.084 222.415 132.037 222.321 131.943C222.231 131.846 222.186 131.729 222.186 131.592C222.186 131.459 222.231 131.346 222.321 131.252C222.415 131.158 222.53 131.111 222.667 131.111C222.807 131.111 222.925 131.158 223.018 131.252C223.116 131.346 223.165 131.459 223.165 131.592C223.165 131.729 223.116 131.846 223.018 131.943C222.925 132.037 222.807 132.084 222.667 132.084ZM223.03 140H222.309V134.141H223.03V140ZM230.01 139.865C229.654 140.033 229.303 140.117 228.955 140.117C228.627 140.117 228.34 140.045 228.094 139.9C227.852 139.756 227.662 139.553 227.525 139.291C227.389 139.029 227.32 138.725 227.32 138.377V134.791H226.295V134.141H227.35V132.676H228.041V134.141H229.834V134.791H228.041V138.248C228.041 138.615 228.139 138.91 228.334 139.133C228.529 139.355 228.787 139.467 229.107 139.467C229.361 139.467 229.617 139.393 229.875 139.244L230.01 139.865ZM234.769 142.93H233.984L235.22 139.941L232.454 134.141H233.251L235.566 139.104L237.622 134.141H238.402L234.769 142.93ZM241.561 140.117C241.42 140.117 241.305 140.072 241.215 139.982C241.125 139.893 241.08 139.775 241.08 139.631C241.08 139.486 241.125 139.369 241.215 139.279C241.305 139.186 241.42 139.139 241.561 139.139C241.705 139.139 241.823 139.186 241.913 139.279C242.006 139.369 242.053 139.486 242.053 139.631C242.053 139.775 242.006 139.893 241.913 139.982C241.823 140.072 241.705 140.117 241.561 140.117Z" fill="#5E5E5E"/>
</svg>
