<svg width="25" height="25" viewBox="0 0 25 25" fill="none" xmlns="http://www.w3.org/2000/svg">
<g clip-path="url(#clip0_74_92)">
<path d="M9.86848 8.52433L5.22278 11.6861C5.23813 11.699 5.25444 11.7108 5.27155 11.7213C6.33668 12.1719 7.27164 12.8285 8.15988 13.5555C9.89669 14.9761 11.394 16.6242 12.7474 18.4073C12.7785 18.4481 12.8123 18.4872 12.8526 18.5368C12.8784 18.4936 12.8955 18.4652 12.9131 18.4367C13.2795 17.8417 13.6162 17.2253 14.017 16.6553C15.8614 14.0292 18.0216 11.682 20.4057 9.53842C21.3233 8.71335 22.2789 7.93494 23.3654 7.33382C23.3722 7.33001 23.374 7.31738 23.3787 7.30799C22.6914 6.52107 22.253 5.59855 21.9213 4.61938C21.5875 3.63404 21.4159 2.62346 21.4379 1.5668C17.6667 4.48671 14.9461 8.24372 12.7248 12.4299L9.86848 8.52433Z" fill="#14C55A"/>
<path d="M24.4012 8.70955C24.16 8.81081 24.1591 8.81111 24.2249 9.0377C24.6807 10.585 24.8248 12.2073 24.6489 13.8106C24.4943 15.2195 24.1317 16.5696 23.4815 17.8279C21.4855 21.6871 18.3413 23.9657 14.0261 24.5929C12.572 24.804 11.1237 24.7136 9.69748 24.3675C6.75598 23.6537 4.38744 22.066 2.60332 19.6275C1.12243 17.6046 0.370231 15.3222 0.282083 12.8229C0.250505 11.9619 0.319531 11.1002 0.487762 10.2552C1.18208 6.79552 3.00439 4.08636 5.97616 2.18056C8.41816 0.614353 11.1064 0.0378864 13.985 0.368973C15.5073 0.545083 16.9427 1.01178 18.2919 1.73999C18.5114 1.8574 18.512 1.8574 18.6774 1.64695C14.2976 -0.93835 7.7641 -0.701189 3.36903 3.97483C-0.903804 8.52287 -1.1656 15.5849 2.88833 20.4543C6.71866 25.0526 13.5117 26.5994 19.1458 23.0478C24.5851 19.6193 25.9538 13.3571 24.4012 8.70955Z" fill="#14C55A"/>
<path d="M13.0074 20.2054C11.3015 20.3228 9.70305 19.9219 8.28269 18.9597C5.97937 17.3994 4.78614 15.2171 4.76587 12.4272C4.75411 10.9259 5.17722 9.53782 6.00641 8.28861C7.27603 6.37518 9.05016 5.21755 11.3247 4.84361C12.0408 4.72864 12.77 4.71875 13.489 4.81425C14.0812 4.89112 14.6627 5.03468 15.2226 5.2422C15.2643 5.25776 15.3357 5.26069 15.3625 5.23604C15.4312 5.17234 15.4826 5.08928 15.5435 5.01179C12.6933 3.80103 8.68111 4.31381 6.15655 7.4832C3.74717 10.5064 3.85265 14.8587 6.39925 17.7789C8.96907 20.7261 13.2481 21.427 16.6083 19.4378C18.269 18.4549 19.4325 17.0457 20.1048 15.2364C20.5147 14.1305 20.651 12.9872 20.5558 11.7885C20.3619 11.9452 20.2115 12.0694 20.2341 12.3403C20.2761 12.8431 20.2135 13.3447 20.1263 13.8425C19.5483 17.1314 16.7755 19.9459 13.0074 20.2054Z" fill="#14C55A"/>
<path d="M20.7324 11.7462C20.8192 12.6682 20.7465 13.5982 20.5176 14.4956C19.4525 18.7184 15.2746 21.3959 10.9953 20.6008C7.50432 19.953 4.80699 17.1299 4.31894 13.6262C4.17633 12.6217 4.22166 11.5995 4.45263 10.6115C5.59621 5.71535 10.8343 2.96686 15.5199 4.80456C15.6375 4.85035 15.6962 4.83186 15.7756 4.73999C16.3044 4.13593 16.8333 3.53276 17.3754 2.94161C17.6757 2.61405 18.0019 2.31026 18.3263 1.98563C14.1645 -0.429428 7.71588 -0.242751 3.4639 4.56124C-0.580336 9.12895 -0.558593 16.0727 3.67458 20.6486C7.89452 25.209 14.9326 25.8101 19.8327 22.0079C22.3423 20.0607 23.8649 17.5044 24.3841 14.3712C24.6879 12.5364 24.5492 10.7242 23.9939 8.92349C23.8931 8.98747 23.8144 9.03473 23.7383 9.08609C22.6846 9.79934 21.7482 10.6532 20.8206 11.5173C20.7873 11.5446 20.7617 11.58 20.7463 11.6201C20.7308 11.6603 20.726 11.7037 20.7324 11.7462Z" fill="#14C55A"/>
<path d="M23.6788 11.6293L23.6879 11.9827L21.9651 12.2564L21.9653 12.2628L23.6999 12.4475L23.7082 12.769L21.4709 12.489L21.459 12.0241L23.6788 11.6293Z" fill="white"/>
<path d="M23.5925 14.0922L23.4167 15.0313L23.1036 14.9727L23.215 14.3779L22.6359 14.2695L22.5474 14.7422L22.2343 14.6836L22.3228 14.2109L21.6498 14.0849L21.5385 14.6796L21.2254 14.621L21.4012 13.6819L23.5925 14.0922Z" fill="white"/>
<path d="M23.0074 16.4075L22.8034 16.8848C22.7324 17.0508 22.6417 17.1551 22.531 17.1979C22.4223 17.2415 22.2879 17.2291 22.1279 17.1606L22.0019 17.1068C21.7892 17.0158 21.6845 16.888 21.688 16.7232L21.6821 16.7207C21.6253 16.7888 21.5541 16.823 21.4685 16.8233C21.3821 16.8256 21.2784 16.8009 21.1573 16.7492L20.7971 16.5952C20.7386 16.5702 20.6899 16.5517 20.6512 16.5397C20.6143 16.5286 20.575 16.5233 20.5332 16.5239L20.6734 16.196C20.7116 16.1984 20.7462 16.204 20.7771 16.2126C20.8081 16.2212 20.8616 16.2418 20.9378 16.2743L21.3126 16.4346C21.4063 16.4746 21.4784 16.487 21.5288 16.4716C21.5784 16.4582 21.6191 16.4144 21.6508 16.3402L21.6984 16.2289L20.8199 15.8533L20.9576 15.5312L23.0074 16.4075ZM21.9412 16.4712C21.9136 16.5356 21.9098 16.5906 21.9296 16.636C21.9486 16.6834 21.9971 16.7237 22.0752 16.7571L22.2334 16.8247C22.3075 16.8564 22.3671 16.8657 22.4119 16.8526C22.456 16.8414 22.4901 16.8075 22.5143 16.7509L22.5769 16.6045L21.9912 16.3541L21.9412 16.4712Z" fill="white"/>
<path d="M21.8862 18.615L21.6912 18.906L19.8393 17.6648L20.0344 17.3738L21.8862 18.615Z" fill="white"/>
<path d="M20.8681 19.9633L20.2291 20.6346L19.9984 20.415L20.3959 19.9975L19.946 19.5693L19.6342 19.8969L19.4036 19.6773L19.7154 19.3497L19.0118 18.68L19.2533 18.4263L20.8681 19.9633Z" fill="white"/>
<path d="M19.2968 21.4202L19.0158 21.6294L17.6848 19.841L17.9659 19.6318L19.2968 21.4202Z" fill="white"/>
<path d="M17.8746 22.3612L17.0191 22.7866L16.8773 22.5014L17.4191 22.232L17.1568 21.7044L16.7262 21.9185L16.5844 21.6334L17.015 21.4193L16.7102 20.8062L16.1683 21.0756L16.0266 20.7904L16.8821 20.365L17.8746 22.3612Z" fill="white"/>
<path d="M15.674 23.289L15.1546 23.4174C14.9856 23.4592 14.8476 23.4452 14.7407 23.3755C14.6338 23.3057 14.5586 23.1832 14.5153 23.008L14.2446 21.9136C14.2013 21.7384 14.2106 21.595 14.2727 21.4834C14.3348 21.3719 14.4503 21.2952 14.6193 21.2534L15.1387 21.1249L15.674 23.289ZM14.702 21.561C14.6463 21.5747 14.6082 21.6017 14.5875 21.6418C14.5647 21.6824 14.5625 21.7398 14.5808 21.814L14.8592 22.9393C14.8776 23.0135 14.9063 23.0633 14.9453 23.0886C14.9823 23.1145 15.0287 23.1205 15.0843 23.1067L15.2575 23.0639L14.8751 21.5182L14.702 21.561Z" fill="white"/>
<path d="M9.99562 23.4987L9.65477 23.4049L9.89214 21.6767L9.88599 21.675L9.20644 23.2817L8.89629 23.1964L9.81281 21.1364L10.2611 21.2596L9.99562 23.4987Z" fill="white"/>
<path d="M7.66351 22.7021L6.81569 22.2617L6.9625 21.9791L7.49946 22.258L7.77108 21.7352L7.34434 21.5135L7.49116 21.2309L7.9179 21.4526L8.23356 20.845L7.6966 20.566L7.84342 20.2834L8.69125 20.7239L7.66351 22.7021Z" fill="white"/>
<path d="M5.61709 21.4711L5.21941 21.1375C5.08115 21.0215 5.0076 20.9044 4.99875 20.7861C4.98853 20.6694 5.03937 20.5444 5.15127 20.411L5.23929 20.3061C5.38803 20.1288 5.54074 20.0657 5.69743 20.1168L5.70152 20.1119C5.65283 20.0378 5.64072 19.9598 5.66519 19.8777C5.68803 19.7944 5.74175 19.7023 5.82636 19.6014L6.07813 19.3013C6.11906 19.2525 6.15087 19.2113 6.17355 19.1777C6.19486 19.1457 6.21129 19.1096 6.22284 19.0694L6.49609 19.2986C6.48265 19.3345 6.46733 19.3659 6.45011 19.3931C6.43289 19.4202 6.39768 19.4655 6.34446 19.5289L6.08245 19.8412C6.01695 19.9193 5.98425 19.9847 5.98435 20.0374C5.98282 20.0888 6.01296 20.1404 6.07476 20.1923L6.16748 20.27L6.78155 19.5381L7.04993 19.7633L5.61709 21.4711ZM5.86519 20.4321C5.81152 20.3871 5.76007 20.3675 5.71085 20.3733C5.66 20.3778 5.60728 20.4125 5.5527 20.4776L5.44216 20.6093C5.39031 20.6712 5.36417 20.7254 5.36374 20.7722C5.36169 20.8176 5.38425 20.8601 5.43142 20.8996L5.5534 21.002L5.96279 20.514L5.86519 20.4321Z" fill="white"/>
<path d="M3.82941 19.7582L3.60743 19.4872L5.33207 18.0746L5.55405 18.3456L3.82941 19.7582Z" fill="white"/>
<path d="M2.83405 18.393L2.37679 17.5869L2.6538 17.4297L2.93821 17.9311L3.47838 17.6247L3.25525 17.2314L3.53226 17.0742L3.75539 17.4676L4.60026 16.9883L4.77311 17.293L2.83405 18.393Z" fill="white"/>
<path d="M1.8951 16.4669L1.77639 16.1373L3.87379 15.3818L3.9925 15.7114L1.8951 16.4669Z" fill="white"/>
<path d="M1.40677 14.8329L1.24764 13.8909L1.56166 13.8378L1.66244 14.4345L2.24338 14.3363L2.16329 13.8621L2.47731 13.8091L2.55741 14.2833L3.23256 14.1692L3.13177 13.5726L3.4458 13.5195L3.60493 14.4616L1.40677 14.8329Z" fill="white"/>
<path d="M1.15668 12.4579L1.18426 11.9236C1.19324 11.7497 1.24662 11.6217 1.3444 11.5396C1.44218 11.4575 1.58119 11.4211 1.76142 11.4304L2.8873 11.4885C3.06753 11.4978 3.20205 11.5484 3.29085 11.6401C3.37966 11.7319 3.41957 11.8647 3.4106 12.0385L3.38301 12.5729L1.15668 12.4579ZM3.09222 12.0285C3.09518 11.9712 3.08046 11.9269 3.04807 11.8954C3.01578 11.8619 2.96148 11.8431 2.88514 11.8392L1.72745 11.7794C1.65112 11.7755 1.59517 11.7885 1.5596 11.8186C1.52414 11.8465 1.50494 11.8891 1.50198 11.9464L1.49279 12.1245L3.08303 12.2066L3.09222 12.0285Z" fill="white"/>
<path d="M2.60183 6.96252L2.79032 6.66347L4.37554 7.39157L4.37894 7.38618L3.03825 6.27011L3.20976 5.998L4.9157 7.47227L4.66777 7.86563L2.60183 6.96252Z" fill="white"/>
<path d="M4.04011 4.96139L4.7074 4.27762L4.93533 4.50005L4.51271 4.9331L4.93437 5.3446L5.27024 5.00043L5.49816 5.22287L5.16229 5.56703L5.65232 6.04525L6.07494 5.6122L6.30286 5.83463L5.63557 6.5184L4.04011 4.96139Z" fill="white"/>
<path d="M5.81144 3.35962L6.24603 3.07571C6.39712 2.97701 6.53055 2.94057 6.64632 2.96638C6.76092 2.99042 6.86583 3.07531 6.96105 3.22106L7.03595 3.33571C7.16251 3.52945 7.17865 3.6939 7.08434 3.82905L7.08783 3.83439C7.17286 3.80927 7.25108 3.8203 7.32248 3.86749C7.39566 3.91352 7.46825 3.99163 7.54024 4.10184L7.75448 4.42978C7.78931 4.4831 7.81954 4.52549 7.84516 4.55694C7.86961 4.58661 7.8994 4.6128 7.93452 4.63551L7.63591 4.83058C7.6055 4.80733 7.57981 4.78354 7.55884 4.7592C7.53787 4.73486 7.50474 4.68803 7.45945 4.61871L7.23651 4.27743C7.18077 4.19211 7.12765 4.14186 7.07715 4.12667C7.02843 4.11031 6.97029 4.1242 6.90275 4.16832L6.80143 4.23451L7.32396 5.03437L7.03068 5.22596L5.81144 3.35962ZM6.7339 3.89822C6.79256 3.8599 6.82624 3.81634 6.83494 3.76754C6.84541 3.71759 6.82743 3.65706 6.78098 3.58596L6.68693 3.44199C6.6428 3.37444 6.59843 3.33369 6.5538 3.31973C6.51096 3.30461 6.46376 3.31388 6.41221 3.34756L6.2789 3.43465L6.62725 3.96789L6.7339 3.89822Z" fill="white"/>
<path d="M7.969 2.14516L8.29272 2.01126L9.14478 4.0713L8.82106 4.2052L7.969 2.14516Z" fill="white"/>
<path d="M9.56413 1.58826L10.4682 1.38429L10.5383 1.69495L9.97596 1.82182L10.1126 2.42761L10.5538 2.32807L10.6239 2.63874L10.1827 2.73827L10.3965 3.68579L10.0548 3.76289L9.56413 1.58826Z" fill="white"/>
<path d="M11.6797 1.24788L12.0295 1.2298L12.1446 3.45612L11.7948 3.47421L11.6797 1.24788Z" fill="white"/>
<path d="M13.385 1.25412L14.3328 1.37487L14.2925 1.69079L13.6923 1.61431L13.6178 2.19876L14.0949 2.25954L14.0546 2.57546L13.5776 2.51468L13.491 3.1939L14.0913 3.27038L14.051 3.58629L13.1033 3.46554L13.385 1.25412Z" fill="white"/>
<path d="M15.7306 1.70314L16.234 1.88441C16.3978 1.94339 16.5048 2.03158 16.555 2.14897C16.6053 2.26635 16.5998 2.40994 16.5387 2.57974L16.1567 3.64045C16.0956 3.81024 16.0082 3.92434 15.8947 3.98274C15.7811 4.04114 15.6425 4.04084 15.4787 3.98186L14.9753 3.80058L15.7306 1.70314ZM15.5806 3.68006C15.6345 3.69949 15.6812 3.69825 15.7207 3.67636C15.7622 3.65519 15.7958 3.60865 15.8217 3.53674L16.2145 2.44606C16.2404 2.37415 16.2441 2.31682 16.2257 2.27407C16.2092 2.23204 16.174 2.20131 16.1201 2.18189L15.9523 2.12146L15.4128 3.61964L15.5806 3.68006Z" fill="white"/>
</g>
<defs>
<clipPath id="clip0_74_92">
<rect width="25" height="25" fill="white"/>
</clipPath>
</defs>
</svg>
