<svg width="128" height="47" viewBox="0 0 128 47" fill="none" xmlns="http://www.w3.org/2000/svg">
<mask id="path-1-outside-1_415_41" maskUnits="userSpaceOnUse" x="1" y="6" width="124" height="21" fill="black">
<rect fill="white" x="1" y="6" width="124" height="21"/>
<path d="M15.2878 9.72429H20.0464L16.1894 24H9.65264L5.77065 9.72429H10.5543L12.8584 20.8944H12.9836L15.2878 9.72429ZM21.3315 9.72429H25.8396V24H21.3315V9.72429ZM28.3247 9.72429H32.8329V20.694H38.6684V24H28.3247V9.72429ZM40.1607 9.72429H50.5544V12.7297H44.6688V15.3344H49.6277V18.0393H44.6688V20.9445H50.5294V24H40.1607V9.72429ZM61.993 9.64916C63.3454 9.64916 64.4891 9.77438 65.4242 10.0248C66.3592 10.2753 67.1022 10.7595 67.6532 11.4775C68.2209 12.1787 68.5047 13.1889 68.5047 14.5079C68.5047 15.0923 68.4129 15.6934 68.2292 16.3112C68.0622 16.9122 67.8452 17.4382 67.578 17.889C67.3276 18.3398 67.1022 18.632 66.9018 18.7656C66.6681 18.9325 66.1505 19.0661 65.349 19.1663C64.5476 19.2498 63.6042 19.2915 62.5189 19.2915C62.1349 19.2915 61.5422 19.2748 60.7407 19.2414V24H56.2326V9.72429C57.9858 9.6742 59.9059 9.64916 61.993 9.64916ZM63.8714 16.0857C64.0383 15.8687 64.1218 15.4346 64.1218 14.7834C64.1218 13.9319 63.9382 13.3308 63.5708 12.9802C63.2202 12.6295 62.6024 12.4542 61.7175 12.4542C61.4169 12.4542 61.0914 12.4793 60.7407 12.5293V16.3362C60.9077 16.3529 61.2333 16.3612 61.7175 16.3612C63.0031 16.3612 63.7211 16.2694 63.8714 16.0857ZM78.0473 20.8694H73.8898L73.1384 24H68.5301L73.1384 9.72429H79.024L83.432 24H78.7986L78.0473 20.8694ZM75.9435 12.8048L74.4658 18.0894H77.4462L76.0437 12.8048H75.9435ZM97.6758 24H92.9423L92.0907 20.3935C92.0573 20.2599 91.9989 20.0345 91.9154 19.7173C91.8486 19.3834 91.7652 19.1413 91.665 18.991C91.5648 18.824 91.4229 18.7155 91.2392 18.6654C90.7717 18.6821 90.0871 18.6904 89.1855 18.6904V24H84.6774V9.84952C86.6977 9.69925 88.5844 9.62411 90.3376 9.62411C91.9238 9.62411 93.2094 9.75769 94.1945 10.0248C95.1796 10.2753 95.9143 10.7177 96.3985 11.3522C96.8994 11.97 97.1498 12.8215 97.1498 13.9068C97.1498 14.9253 96.9161 15.7268 96.4486 16.3112C95.9811 16.8788 95.2297 17.2211 94.1945 17.338V17.4883C94.7789 17.5384 95.2631 17.7304 95.6471 18.0643C96.0479 18.3815 96.315 18.7906 96.4486 19.2915L97.6758 24ZM89.1855 15.8603C89.3358 15.877 89.628 15.8854 90.0621 15.8854C91.3477 15.8854 92.0991 15.7769 92.3161 15.5598C92.5165 15.3594 92.6167 14.8919 92.6167 14.1573C92.6167 13.4727 92.433 13.0052 92.0657 12.7548C91.7151 12.5043 91.1307 12.3791 90.3125 12.3791C90.1289 12.3791 89.7532 12.3958 89.1855 12.4292V15.8603ZM99.1554 9.72429H103.664V20.694H109.499V24H99.1554V9.72429ZM110.991 9.72429H121.385V12.7297H115.499V15.3344H120.458V18.0393H115.499V20.9445H121.36V24H110.991V9.72429Z"/>
</mask>
<path d="M15.2878 9.72429H20.0464L16.1894 24H9.65264L5.77065 9.72429H10.5543L12.8584 20.8944H12.9836L15.2878 9.72429ZM21.3315 9.72429H25.8396V24H21.3315V9.72429ZM28.3247 9.72429H32.8329V20.694H38.6684V24H28.3247V9.72429ZM40.1607 9.72429H50.5544V12.7297H44.6688V15.3344H49.6277V18.0393H44.6688V20.9445H50.5294V24H40.1607V9.72429ZM61.993 9.64916C63.3454 9.64916 64.4891 9.77438 65.4242 10.0248C66.3592 10.2753 67.1022 10.7595 67.6532 11.4775C68.2209 12.1787 68.5047 13.1889 68.5047 14.5079C68.5047 15.0923 68.4129 15.6934 68.2292 16.3112C68.0622 16.9122 67.8452 17.4382 67.578 17.889C67.3276 18.3398 67.1022 18.632 66.9018 18.7656C66.6681 18.9325 66.1505 19.0661 65.349 19.1663C64.5476 19.2498 63.6042 19.2915 62.5189 19.2915C62.1349 19.2915 61.5422 19.2748 60.7407 19.2414V24H56.2326V9.72429C57.9858 9.6742 59.9059 9.64916 61.993 9.64916ZM63.8714 16.0857C64.0383 15.8687 64.1218 15.4346 64.1218 14.7834C64.1218 13.9319 63.9382 13.3308 63.5708 12.9802C63.2202 12.6295 62.6024 12.4542 61.7175 12.4542C61.4169 12.4542 61.0914 12.4793 60.7407 12.5293V16.3362C60.9077 16.3529 61.2333 16.3612 61.7175 16.3612C63.0031 16.3612 63.7211 16.2694 63.8714 16.0857ZM78.0473 20.8694H73.8898L73.1384 24H68.5301L73.1384 9.72429H79.024L83.432 24H78.7986L78.0473 20.8694ZM75.9435 12.8048L74.4658 18.0894H77.4462L76.0437 12.8048H75.9435ZM97.6758 24H92.9423L92.0907 20.3935C92.0573 20.2599 91.9989 20.0345 91.9154 19.7173C91.8486 19.3834 91.7652 19.1413 91.665 18.991C91.5648 18.824 91.4229 18.7155 91.2392 18.6654C90.7717 18.6821 90.0871 18.6904 89.1855 18.6904V24H84.6774V9.84952C86.6977 9.69925 88.5844 9.62411 90.3376 9.62411C91.9238 9.62411 93.2094 9.75769 94.1945 10.0248C95.1796 10.2753 95.9143 10.7177 96.3985 11.3522C96.8994 11.97 97.1498 12.8215 97.1498 13.9068C97.1498 14.9253 96.9161 15.7268 96.4486 16.3112C95.9811 16.8788 95.2297 17.2211 94.1945 17.338V17.4883C94.7789 17.5384 95.2631 17.7304 95.6471 18.0643C96.0479 18.3815 96.315 18.7906 96.4486 19.2915L97.6758 24ZM89.1855 15.8603C89.3358 15.877 89.628 15.8854 90.0621 15.8854C91.3477 15.8854 92.0991 15.7769 92.3161 15.5598C92.5165 15.3594 92.6167 14.8919 92.6167 14.1573C92.6167 13.4727 92.433 13.0052 92.0657 12.7548C91.7151 12.5043 91.1307 12.3791 90.3125 12.3791C90.1289 12.3791 89.7532 12.3958 89.1855 12.4292V15.8603ZM99.1554 9.72429H103.664V20.694H109.499V24H99.1554V9.72429ZM110.991 9.72429H121.385V12.7297H115.499V15.3344H120.458V18.0393H115.499V20.9445H121.36V24H110.991V9.72429Z" fill="#006ABB"/>
<path d="M15.2878 9.72429V6.81253H12.9154L12.4361 9.13604L15.2878 9.72429ZM20.0464 9.72429L22.8573 10.4838L23.8492 6.81253H20.0464V9.72429ZM16.1894 24V26.9118H18.4189L19.0004 24.7595L16.1894 24ZM9.65264 24L6.84291 24.764L7.42694 26.9118H9.65264V24ZM5.77065 9.72429V6.81253H1.96136L2.96092 10.4883L5.77065 9.72429ZM10.5543 9.72429L13.406 9.13604L12.9267 6.81253H10.5543V9.72429ZM12.8584 20.8944L10.0067 21.4827L10.486 23.8062H12.8584V20.8944ZM12.9836 20.8944V23.8062H15.3561L15.8354 21.4827L12.9836 20.8944ZM15.2878 12.6361H20.0464V6.81253H15.2878V12.6361ZM17.2354 8.96484L13.3784 23.2405L19.0004 24.7595L22.8573 10.4838L17.2354 8.96484ZM16.1894 21.0882H9.65264V26.9118H16.1894V21.0882ZM12.4624 23.236L8.58039 8.96024L2.96092 10.4883L6.84291 24.764L12.4624 23.236ZM5.77065 12.6361H10.5543V6.81253H5.77065V12.6361ZM7.70254 10.3125L10.0067 21.4827L15.7101 20.3062L13.406 9.13604L7.70254 10.3125ZM12.8584 23.8062H12.9836V17.9826H12.8584V23.8062ZM15.8354 21.4827L18.1395 10.3125L12.4361 9.13604L10.1319 20.3062L15.8354 21.4827ZM21.3315 9.72429V6.81253H18.4197V9.72429H21.3315ZM25.8396 9.72429H28.7514V6.81253H25.8396V9.72429ZM25.8396 24V26.9118H28.7514V24H25.8396ZM21.3315 24H18.4197V26.9118H21.3315V24ZM21.3315 12.6361H25.8396V6.81253H21.3315V12.6361ZM22.9278 9.72429V24H28.7514V9.72429H22.9278ZM25.8396 21.0882H21.3315V26.9118H25.8396V21.0882ZM24.2432 24V9.72429H18.4197V24H24.2432ZM28.3247 9.72429V6.81253H25.413V9.72429H28.3247ZM32.8329 9.72429H35.7446V6.81253H32.8329V9.72429ZM32.8329 20.694H29.9211V23.6058H32.8329V20.694ZM38.6684 20.694H41.5801V17.7823H38.6684V20.694ZM38.6684 24V26.9118H41.5801V24H38.6684ZM28.3247 24H25.413V26.9118H28.3247V24ZM28.3247 12.6361H32.8329V6.81253H28.3247V12.6361ZM29.9211 9.72429V20.694H35.7446V9.72429H29.9211ZM32.8329 23.6058H38.6684V17.7823H32.8329V23.6058ZM35.7566 20.694V24H41.5801V20.694H35.7566ZM38.6684 21.0882H28.3247V26.9118H38.6684V21.0882ZM31.2365 24V9.72429H25.413V24H31.2365ZM40.1607 9.72429V6.81253H37.2489V9.72429H40.1607ZM50.5544 9.72429H53.4662V6.81253H50.5544V9.72429ZM50.5544 12.7297V15.6415H53.4662V12.7297H50.5544ZM44.6688 12.7297V9.81794H41.7571V12.7297H44.6688ZM44.6688 15.3344H41.7571V18.2462H44.6688V15.3344ZM49.6278 15.3344H52.5395V12.4226H49.6278V15.3344ZM49.6278 18.0393V20.951H52.5395V18.0393H49.6278ZM44.6688 18.0393V15.1275H41.7571V18.0393H44.6688ZM44.6688 20.9445H41.7571V23.8563H44.6688V20.9445ZM50.5294 20.9445H53.4411V18.0327H50.5294V20.9445ZM50.5294 24V26.9118H53.4411V24H50.5294ZM40.1607 24H37.2489V26.9118H40.1607V24ZM40.1607 12.6361H50.5544V6.81253H40.1607V12.6361ZM47.6427 9.72429V12.7297H53.4662V9.72429H47.6427ZM50.5544 9.81794H44.6688V15.6415H50.5544V9.81794ZM41.7571 12.7297V15.3344H47.5806V12.7297H41.7571ZM44.6688 18.2462H49.6278V12.4226H44.6688V18.2462ZM46.716 15.3344V18.0393H52.5395V15.3344H46.716ZM49.6278 15.1275H44.6688V20.951H49.6278V15.1275ZM41.7571 18.0393V20.9445H47.5806V18.0393H41.7571ZM44.6688 23.8563H50.5294V18.0327H44.6688V23.8563ZM47.6176 20.9445V24H53.4411V20.9445H47.6176ZM50.5294 21.0882H40.1607V26.9118H50.5294V21.0882ZM43.0725 24V9.72429H37.2489V24H43.0725ZM67.6532 11.4775L65.3432 13.2502L65.3662 13.2802L65.39 13.3095L67.6532 11.4775ZM68.2292 16.3112L65.4382 15.4814L65.4307 15.5065L65.4237 15.5318L68.2292 16.3112ZM67.578 17.889L65.0731 16.4046L65.0524 16.4395L65.0327 16.4749L67.578 17.889ZM66.9018 18.7656L65.2867 16.3428L65.2476 16.3689L65.2094 16.3962L66.9018 18.7656ZM65.349 19.1663L65.6507 22.0624L65.6805 22.0593L65.7102 22.0556L65.349 19.1663ZM60.7407 19.2414L60.8619 16.3322L57.829 16.2058V19.2414H60.7407ZM60.7407 24V26.9118H63.6525V24H60.7407ZM56.2326 24H53.3208V26.9118H56.2326V24ZM56.2326 9.72429L56.1495 6.81372L53.3208 6.89453V9.72429H56.2326ZM63.8714 16.0857L66.1249 17.9296L66.1526 17.8957L66.1793 17.8611L63.8714 16.0857ZM63.5708 12.9802L61.5119 15.0391L61.5358 15.063L61.5603 15.0864L63.5708 12.9802ZM60.7407 12.5293L60.3289 9.64684L57.829 10.004V12.5293H60.7407ZM60.7407 16.3362H57.829V18.9713L60.451 19.2335L60.7407 16.3362ZM61.993 12.5609C63.1835 12.5609 64.0571 12.6731 64.6708 12.8374L66.1775 7.21222C64.9212 6.8757 63.5074 6.73739 61.993 6.73739V12.5609ZM64.6708 12.8374C65.0326 12.9344 65.2105 13.0772 65.3432 13.2502L69.9631 9.70471C68.9939 8.44176 67.6858 7.61621 66.1775 7.21222L64.6708 12.8374ZM65.39 13.3095C65.3905 13.3101 65.4015 13.3236 65.4188 13.3584C65.4366 13.3941 65.4623 13.4549 65.4886 13.5487C65.5428 13.7416 65.5929 14.0497 65.5929 14.5079H71.4165C71.4165 12.8205 71.0593 11.0573 69.9163 9.64537L65.39 13.3095ZM65.5929 14.5079C65.5929 14.7841 65.5499 15.1055 65.4382 15.4814L71.0202 17.1409C71.2758 16.2812 71.4165 15.4005 71.4165 14.5079H65.5929ZM65.4237 15.5318C65.3128 15.9311 65.1873 16.2117 65.0731 16.4046L70.083 19.3734C70.503 18.6646 70.8117 17.8933 71.0348 17.0905L65.4237 15.5318ZM65.0327 16.4749C64.9948 16.5432 64.9647 16.5929 64.9429 16.627C64.9207 16.6617 64.9113 16.6733 64.9157 16.6677C64.9191 16.6632 64.946 16.6286 64.9979 16.5767C65.0482 16.5264 65.1435 16.4383 65.2867 16.3428L68.517 21.1883C69.3421 20.6382 69.8488 19.7974 70.1234 19.3031L65.0327 16.4749ZM65.2094 16.3962C65.31 16.3243 65.3962 16.2751 65.4564 16.2438C65.5174 16.2121 65.5645 16.192 65.5919 16.181C65.6431 16.1605 65.6555 16.16 65.6107 16.1716C65.5692 16.1823 65.4974 16.1986 65.3888 16.2178C65.2814 16.2368 65.1487 16.2569 64.9879 16.277L65.7102 22.0556C66.1789 21.997 66.6424 21.9197 67.0659 21.8104C67.4255 21.7176 68.0336 21.5354 68.5942 21.135L65.2094 16.3962ZM65.0473 16.2702C64.3736 16.3404 63.5355 16.3798 62.5189 16.3798V22.2033C63.6729 22.2033 64.7215 22.1592 65.6507 22.0624L65.0473 16.2702ZM62.5189 16.3798C62.1988 16.3798 61.6565 16.3653 60.8619 16.3322L60.6195 22.1507C61.4278 22.1844 62.071 22.2033 62.5189 22.2033V16.3798ZM57.829 19.2414V24H63.6525V19.2414H57.829ZM60.7407 21.0882H56.2326V26.9118H60.7407V21.0882ZM59.1444 24V9.72429H53.3208V24H59.1444ZM56.3158 12.6349C58.0366 12.5857 59.9286 12.5609 61.993 12.5609V6.73739C59.8832 6.73739 57.9349 6.7627 56.1495 6.81372L56.3158 12.6349ZM66.1793 17.8611C66.6591 17.2373 66.8379 16.5666 66.9186 16.1472C67.0073 15.6859 67.0336 15.2157 67.0336 14.7834H61.21C61.21 15.0023 61.1946 15.0748 61.1998 15.0475C61.2033 15.0295 61.219 14.9521 61.2633 14.837C61.3065 14.7245 61.3948 14.5296 61.5634 14.3104L66.1793 17.8611ZM67.0336 14.7834C67.0336 13.6477 66.8114 12.0481 65.5813 10.8739L61.5603 15.0864C61.3061 14.8437 61.2193 14.6099 61.1994 14.5448C61.1831 14.4915 61.21 14.551 61.21 14.7834H67.0336ZM65.6298 10.9212C64.437 9.72844 62.8191 9.54244 61.7175 9.54244V15.366C61.8443 15.366 61.9347 15.3724 61.9937 15.3792C62.0533 15.3862 62.0686 15.3922 62.0496 15.3869C62.018 15.3779 61.7764 15.3036 61.5119 15.0391L65.6298 10.9212ZM61.7175 9.54244C61.2574 9.54244 60.7926 9.58061 60.3289 9.64684L61.1525 15.4118C61.3901 15.3779 61.5765 15.366 61.7175 15.366V9.54244ZM57.829 12.5293V16.3362H63.6525V12.5293H57.829ZM60.451 19.2335C60.7851 19.2669 61.2534 19.273 61.7175 19.273V13.4495C61.4896 13.4495 61.3139 13.4475 61.1848 13.4442C61.0405 13.4405 61.004 13.4362 61.0305 13.4389L60.451 19.2335ZM61.7175 19.273C62.4049 19.273 63.049 19.2498 63.5896 19.1806C63.8541 19.1468 64.19 19.0905 64.5329 18.9817C64.7634 18.9085 65.5283 18.6588 66.1249 17.9296L61.6178 14.2419C61.9093 13.8856 62.218 13.6909 62.3852 13.599C62.5629 13.5012 62.7055 13.4518 62.7716 13.4309C62.8973 13.391 62.9452 13.3921 62.8508 13.4041C62.6734 13.4268 62.3157 13.4495 61.7175 13.4495V19.273ZM78.0473 20.8694L80.8786 20.1898L80.3429 17.9576H78.0473V20.8694ZM73.8898 20.8694V17.9576H71.5942L71.0584 20.1898L73.8898 20.8694ZM73.1384 24V26.9118H75.4341L75.9698 24.6795L73.1384 24ZM68.5301 24L65.7592 23.1055L64.5305 26.9118H68.5301V24ZM73.1384 9.72429V6.81253H71.0187L70.3675 8.82981L73.1384 9.72429ZM79.024 9.72429L81.8062 8.86524L81.1724 6.81253H79.024V9.72429ZM83.432 24V26.9118H87.3785L86.2141 23.1409L83.432 24ZM78.7986 24L75.9673 24.6795L76.503 26.9118H78.7986V24ZM75.9435 12.8048V9.89308H73.7342L73.1393 12.0207L75.9435 12.8048ZM74.4658 18.0894L71.6616 17.3052L70.6282 21.0011H74.4658V18.0894ZM77.4462 18.0894V21.0011H81.2316L80.2605 17.3424L77.4462 18.0894ZM76.0437 12.8048L78.858 12.0579L78.2835 9.89308H76.0437V12.8048ZM78.0473 17.9576H73.8898V23.7811H78.0473V17.9576ZM71.0584 20.1898L70.3071 23.3205L75.9698 24.6795L76.7212 21.5489L71.0584 20.1898ZM73.1384 21.0882H68.5301V26.9118H73.1384V21.0882ZM71.3011 24.8945L75.9094 10.6188L70.3675 8.82981L65.7592 23.1055L71.3011 24.8945ZM73.1384 12.6361H79.024V6.81253H73.1384V12.6361ZM76.2419 10.5833L80.6498 24.8591L86.2141 23.1409L81.8062 8.86524L76.2419 10.5833ZM83.432 21.0882H78.7986V26.9118H83.432V21.0882ZM81.63 23.3205L80.8786 20.1898L75.2159 21.5489L75.9673 24.6795L81.63 23.3205ZM73.1393 12.0207L71.6616 17.3052L77.27 18.8735L78.7477 13.589L73.1393 12.0207ZM74.4658 21.0011H77.4462V15.1776H74.4658V21.0011ZM80.2605 17.3424L78.858 12.0579L73.2293 13.5518L74.6319 18.8363L80.2605 17.3424ZM76.0437 9.89308H75.9435V15.7166H76.0437V9.89308ZM97.6758 24V26.9118H101.444L100.493 23.2656L97.6758 24ZM92.9423 24L90.1084 24.6691L90.6379 26.9118H92.9423V24ZM92.0907 20.3935L94.9246 19.7244L94.9202 19.7058L94.9156 19.6873L92.0907 20.3935ZM91.9154 19.7173L89.0602 20.2883L89.0773 20.3739L89.0995 20.4583L91.9154 19.7173ZM91.665 18.991L89.1682 20.4891L89.2038 20.5485L89.2422 20.6061L91.665 18.991ZM91.2392 18.6654L92.0053 15.8562L91.578 15.7397L91.1353 15.7555L91.2392 18.6654ZM89.1855 18.6904V15.7787H86.2737V18.6904H89.1855ZM89.1855 24V26.9118H92.0973V24H89.1855ZM84.6774 24H81.7656V26.9118H84.6774V24ZM84.6774 9.84952L84.4614 6.94578L81.7656 7.14629V9.84952H84.6774ZM94.1945 10.0248L93.4324 12.8351L93.4547 12.8411L93.4771 12.8468L94.1945 10.0248ZM96.3985 11.3522L94.0838 13.1187L94.1098 13.1528L94.1368 13.1861L96.3985 11.3522ZM96.4486 16.3112L98.6963 18.1622L98.7094 18.1462L98.7223 18.1301L96.4486 16.3112ZM94.1945 17.338L93.8679 14.4446L91.2828 14.7365V17.338H94.1945ZM94.1945 17.4883H91.2828V20.1611L93.9459 20.3894L94.1945 17.4883ZM95.6471 18.0643L93.7365 20.2615L93.7872 20.3056L93.8398 20.3473L95.6471 18.0643ZM96.4486 19.2915L99.2662 18.5571L99.2641 18.5492L99.262 18.5413L96.4486 19.2915ZM89.1855 15.8603H86.2737V18.4665L88.864 18.7543L89.1855 15.8603ZM92.0657 12.7548L90.3733 15.1242L90.3991 15.1426L90.4254 15.1605L92.0657 12.7548ZM89.1855 12.4292L89.0145 9.52242L86.2737 9.68365V12.4292H89.1855ZM97.6758 21.0882H92.9423V26.9118H97.6758V21.0882ZM95.7761 23.3309L94.9246 19.7244L89.2569 21.0626L90.1084 24.6691L95.7761 23.3309ZM94.9156 19.6873C94.8774 19.5345 94.8148 19.2937 94.7313 18.9763L89.0995 20.4583C89.183 20.7754 89.2373 20.9853 89.2659 21.0997L94.9156 19.6873ZM94.7706 19.1462C94.6835 18.7106 94.5115 18.0115 94.0877 17.3758L89.2422 20.6061C89.1723 20.5012 89.1269 20.4132 89.0998 20.3553C89.0723 20.2965 89.0568 20.2541 89.05 20.2345C89.0379 20.1993 89.0446 20.2106 89.0602 20.2883L94.7706 19.1462ZM94.1618 17.4929C93.6851 16.6985 92.9315 16.1088 92.0053 15.8562L90.4731 21.4746C90.2258 21.4071 89.9619 21.2864 89.7146 21.0973C89.4684 20.9091 89.2901 20.6923 89.1682 20.4891L94.1618 17.4929ZM91.1353 15.7555C90.7209 15.7703 90.0779 15.7787 89.1855 15.7787V21.6022C90.0963 21.6022 90.8225 21.5939 91.3431 21.5753L91.1353 15.7555ZM86.2737 18.6904V24H92.0973V18.6904H86.2737ZM89.1855 21.0882H84.6774V26.9118H89.1855V21.0882ZM87.5891 24V9.84952H81.7656V24H87.5891ZM84.8934 12.7533C86.8526 12.6075 88.6665 12.5359 90.3376 12.5359V6.71235C88.5023 6.71235 86.5428 6.79096 84.4614 6.94578L84.8934 12.7533ZM90.3376 12.5359C91.7917 12.5359 92.7931 12.6617 93.4324 12.8351L94.9566 7.21457C93.6258 6.85366 92.0558 6.71235 90.3376 6.71235V12.5359ZM93.4771 12.8468C93.743 12.9144 93.8992 12.9889 93.9821 13.0388C94.0588 13.085 94.0804 13.1142 94.0838 13.1187L98.7132 9.58574C97.7327 8.30093 96.3565 7.5701 94.912 7.20284L93.4771 12.8468ZM94.1368 13.1861C94.0865 13.124 94.2381 13.2472 94.2381 13.9068H100.062C100.062 12.3959 99.7123 10.816 98.6602 9.51839L94.1368 13.1861ZM94.2381 13.9068C94.2381 14.5013 94.1022 14.583 94.1749 14.4922L98.7223 18.1301C99.73 16.8705 100.062 15.3494 100.062 13.9068H94.2381ZM94.2009 14.4601C94.2816 14.3621 94.3498 14.3336 94.3273 14.3439C94.2924 14.3598 94.1569 14.412 93.8679 14.4446L94.5212 20.2314C95.993 20.0652 97.5786 19.5193 98.6963 18.1622L94.2009 14.4601ZM91.2828 17.338V17.4883H97.1063V17.338H91.2828ZM93.9459 20.3894C93.9902 20.3932 93.9753 20.3975 93.9226 20.3766C93.8662 20.3542 93.7987 20.3156 93.7365 20.2615L97.5578 15.8671C96.6397 15.0687 95.5449 14.6816 94.4432 14.5871L93.9459 20.3894ZM93.8398 20.3473C93.8055 20.3201 93.7559 20.2713 93.7101 20.2012C93.6645 20.1314 93.6431 20.0718 93.6351 20.0418L99.262 18.5413C98.9694 17.4438 98.3544 16.4938 97.4545 15.7814L93.8398 20.3473ZM93.631 20.0259L94.8582 24.7344L100.493 23.2656L99.2662 18.5571L93.631 20.0259ZM88.864 18.7543C89.1994 18.7916 89.6497 18.7972 90.0621 18.7972V12.9736C89.8609 12.9736 89.7091 12.9717 89.6005 12.9685C89.5466 12.967 89.5106 12.9654 89.4894 12.9642C89.4648 12.9628 89.4746 12.9628 89.5071 12.9664L88.864 18.7543ZM90.0621 18.7972C90.7629 18.7972 91.4305 18.769 92.0061 18.6858C92.2927 18.6444 92.6344 18.5788 92.9811 18.4622C93.2799 18.3617 93.8588 18.135 94.3751 17.6187L90.2572 13.5009C90.4778 13.2803 90.6892 13.1482 90.8229 13.0758C90.9602 13.0015 91.069 12.9612 91.1253 12.9423C91.2298 12.9071 91.2626 12.9093 91.1736 12.9221C91.096 12.9333 90.966 12.947 90.7712 12.9574C90.5794 12.9676 90.3444 12.9736 90.0621 12.9736V18.7972ZM94.3751 17.6187C95.0602 16.9336 95.293 16.1154 95.3887 15.669C95.4981 15.1582 95.5285 14.633 95.5285 14.1573H89.7049C89.7049 14.4162 89.6852 14.492 89.6944 14.4488C89.7002 14.4219 89.7244 14.3155 89.7923 14.1646C89.8593 14.0157 89.9967 13.7613 90.2572 13.5009L94.3751 17.6187ZM95.5285 14.1573C95.5285 13.052 95.2309 11.3887 93.706 10.349L90.4254 15.1605C90.0647 14.9146 89.8621 14.5953 89.7688 14.3579C89.6886 14.1538 89.7049 14.0557 89.7049 14.1573H95.5285ZM93.7581 10.3853C92.6364 9.5841 91.2721 9.46731 90.3125 9.46731V15.2908C90.4441 15.2908 90.5466 15.2959 90.6234 15.3028C90.7008 15.3097 90.7423 15.3175 90.7543 15.3201C90.7671 15.3229 90.7358 15.3173 90.6733 15.2922C90.6106 15.267 90.5025 15.2165 90.3733 15.1242L93.7581 10.3853ZM90.3125 9.46731C90.0284 9.46731 89.5659 9.48999 89.0145 9.52242L89.3565 15.3359C89.9405 15.3016 90.2294 15.2908 90.3125 15.2908V9.46731ZM86.2737 12.4292V15.8603H92.0973V12.4292H86.2737ZM99.1554 9.72429V6.81253H96.2436V9.72429H99.1554ZM103.664 9.72429H106.575V6.81253H103.664V9.72429ZM103.664 20.694H100.752V23.6058H103.664V20.694ZM109.499 20.694H112.411V17.7823H109.499V20.694ZM109.499 24V26.9118H112.411V24H109.499ZM99.1554 24H96.2436V26.9118H99.1554V24ZM99.1554 12.6361H103.664V6.81253H99.1554V12.6361ZM100.752 9.72429V20.694H106.575V9.72429H100.752ZM103.664 23.6058H109.499V17.7823H103.664V23.6058ZM106.587 20.694V24H112.411V20.694H106.587ZM109.499 21.0882H99.1554V26.9118H109.499V21.0882ZM102.067 24V9.72429H96.2436V24H102.067ZM110.991 9.72429V6.81253H108.08V9.72429H110.991ZM121.385 9.72429H124.297V6.81253H121.385V9.72429ZM121.385 12.7297V15.6415H124.297V12.7297H121.385ZM115.499 12.7297V9.81794H112.588V12.7297H115.499ZM115.499 15.3344H112.588V18.2462H115.499V15.3344ZM120.458 15.3344H123.37V12.4226H120.458V15.3344ZM120.458 18.0393V20.951H123.37V18.0393H120.458ZM115.499 18.0393V15.1275H112.588V18.0393H115.499ZM115.499 20.9445H112.588V23.8563H115.499V20.9445ZM121.36 20.9445H124.272V18.0327H121.36V20.9445ZM121.36 24V26.9118H124.272V24H121.36ZM110.991 24H108.08V26.9118H110.991V24ZM110.991 12.6361H121.385V6.81253H110.991V12.6361ZM118.473 9.72429V12.7297H124.297V9.72429H118.473ZM121.385 9.81794H115.499V15.6415H121.385V9.81794ZM112.588 12.7297V15.3344H118.411V12.7297H112.588ZM115.499 18.2462H120.458V12.4226H115.499V18.2462ZM117.547 15.3344V18.0393H123.37V15.3344H117.547ZM120.458 15.1275H115.499V20.951H120.458V15.1275ZM112.588 18.0393V20.9445H118.411V18.0393H112.588ZM115.499 23.8563H121.36V18.0327H115.499V23.8563ZM118.448 20.9445V24H124.272V20.9445H118.448ZM121.36 21.0882H110.991V26.9118H121.36V21.0882ZM113.903 24V9.72429H108.08V24H113.903Z" fill="white" mask="url(#path-1-outside-1_415_41)"/>
<path d="M8.38235 41.5577V42.1747L8.99938 42.1753L12.5886 42.1789H12.5893C14.1218 42.1789 15.4749 41.7267 16.4547 40.8756C17.4423 40.0176 18.0067 38.7905 18.0067 37.345C18.0067 35.9094 17.4413 34.685 16.4526 33.8275C15.4716 32.9766 14.1155 32.521 12.5758 32.521H9H8.38235V33.1387V41.5577ZM11.5482 39.3622V35.3324H12.5893C13.3833 35.3324 13.9227 35.5761 14.2618 35.9125C14.6026 36.2506 14.7994 36.74 14.7994 37.3415V37.3433C14.7994 37.9116 14.5947 38.4084 14.2357 38.7625C13.879 39.1143 13.3314 39.3629 12.5764 39.3622H12.5758H11.5482Z" fill="black" stroke="white" stroke-width="1.23529"/>
<path d="M18.1439 41.5577V42.1753H18.7616H20.6892H21.3069V41.5577V33.1387V32.521H20.6892H18.7616H18.1439V33.1387V41.5577Z" fill="black" stroke="white" stroke-width="1.23529"/>
<path d="M26.9904 41.7351L27.17 42.0366H27.521H29.7513H30.8798L30.2715 41.0861L28.6343 38.5277C29.5401 38.0615 30.3159 37.1353 30.3159 35.7145C30.3159 34.771 29.9598 33.9225 29.2941 33.3143C28.632 32.7093 27.7093 32.3824 26.6391 32.3824H22.3983H21.7807V33V41.419V42.0366H22.3983H24.3259H24.9436V41.419V39.0466H25.3889L26.9904 41.7351ZM26.3654 36.237H24.9436V35.1937H26.3644C26.6363 35.1937 26.8283 35.2704 26.9389 35.3592C27.0272 35.4301 27.0833 35.5217 27.0942 35.6524V35.7019C27.0942 35.8784 27.0295 35.9908 26.9322 36.0708C26.823 36.1604 26.6341 36.237 26.3654 36.237Z" fill="black" stroke="white" stroke-width="1.23529"/>
<path d="M30.6109 41.5577V42.1753H31.2285H37.6466H38.2642V41.5577V39.9861V39.3685H37.6466H33.7767V38.6849H37.5512H38.1688V38.0673V36.4841V35.8664H37.5512H33.7767V35.3342H37.6466H38.2642V34.7165V33.1387V32.521H37.6466H31.2285H30.6109V33.1387V41.5577Z" fill="black" stroke="white" stroke-width="1.23529"/>
<path d="M47.5973 35.6202L48.2266 35.3326L47.8697 34.7399C47.1391 33.5263 45.799 32.3824 43.5605 32.3824C40.5628 32.3824 38.1026 34.3419 38.1026 37.3558C38.1026 40.3591 40.5618 42.3292 43.5603 42.3302H43.5605C45.805 42.3302 47.1416 41.1544 47.8679 39.9631L48.2326 39.365L47.5935 39.0781L45.9348 38.3335L45.4179 38.1014L45.1422 38.5965C44.8667 39.0913 44.252 39.5036 43.5615 39.5036C42.2273 39.5036 41.3243 38.5905 41.3243 37.3567C41.3243 36.1227 42.2275 35.2089 43.5615 35.2089C44.2504 35.2089 44.8657 35.6216 45.1426 36.1175L45.4203 36.6151L45.9386 36.3782L47.5973 35.6202Z" fill="black" stroke="white" stroke-width="1.23529"/>
<path d="M49.972 41.5577V42.1753H50.5897H52.5337H53.1514V41.5577V35.3342H55.1669H55.7845V34.7165V33.1387V32.521H55.1669H47.9382H47.3206V33.1387V34.7165V35.3342H47.9382H49.972V41.5577Z" fill="black" stroke="white" stroke-width="1.23529"/>
<path d="M72.5986 41.8736L72.7782 42.1753H73.1293H75.3596H76.4881L75.8798 41.2247L74.2426 38.6664C75.1484 38.2001 75.9242 37.2739 75.9242 35.8531C75.9242 34.9097 75.568 34.0612 74.9024 33.4529C74.2402 32.8479 73.3176 32.521 72.2474 32.521H68.0066H67.3889V33.1387V41.5577V42.1753H68.0066H69.9342H70.5519V41.5577V39.1834H70.997L72.5986 41.8736ZM71.9737 36.3757H70.5519V35.3324H71.9727C72.2446 35.3324 72.4366 35.4091 72.5472 35.4979C72.6354 35.5687 72.6916 35.6604 72.7025 35.791V35.8406C72.7025 36.0171 72.6378 36.1295 72.5405 36.2094C72.4313 36.2991 72.2424 36.3757 71.9737 36.3757Z" fill="black" stroke="white" stroke-width="1.23529"/>
<path d="M78.412 41.5577V42.1753H79.0297H80.9583H81.5759V41.5577V38.3071L84.9346 33.492L85.6119 32.521H84.428H82.2392H81.9083L81.725 32.7965L79.9954 35.3952L78.2658 32.7965L78.0825 32.521H77.7516H75.5493H74.3633L75.0432 33.4928L78.412 38.3075V41.5577Z" fill="black" stroke="white" stroke-width="1.23529"/>
<path d="M67.1827 45.7172L67.6021 46.1067L68.0223 45.7181L69.1587 44.6674L69.6479 44.2152L69.1599 43.7616L65.0459 39.9374C65.2111 39.6753 65.3483 39.3974 65.4547 39.1076C65.6434 38.5974 65.7381 38.0602 65.734 37.5189C65.7334 36.1216 65.2014 34.9236 64.1642 33.9605C63.1283 32.9986 61.8597 32.521 60.3966 32.521L60.3963 32.521C58.9322 32.5217 57.6634 32.9991 56.628 33.9605C55.5907 34.9237 55.0591 36.1226 55.0591 37.5213C55.0591 38.9206 55.5906 40.1198 56.628 41.0831C57.663 42.0441 58.9313 42.5212 60.3945 42.5217C60.9606 42.5253 61.5237 42.4401 62.0605 42.2691C62.3962 42.1635 62.7186 42.024 63.0221 41.853L67.1827 45.7172ZM60.3931 39.7846V39.7846L60.3858 39.7847C60.0548 39.7905 59.7269 39.7331 59.4229 39.6171C59.1189 39.5011 58.8469 39.3297 58.6223 39.1157L58.6223 39.1156L58.6166 39.1103C58.2174 38.7394 57.9765 38.2593 57.9228 37.755C57.8691 37.2511 58.004 36.7411 58.313 36.3104C58.623 35.8785 59.0913 35.5509 59.6451 35.3937C60.1992 35.2365 60.7955 35.2626 61.3298 35.4664C61.8636 35.6701 62.2947 36.0352 62.5584 36.4893C62.8213 36.9421 62.905 37.4601 62.8009 37.9581C62.6965 38.4568 62.4074 38.9165 61.9701 39.2533C61.5319 39.5908 60.9749 39.7813 60.3931 39.7846Z" fill="#FF7223" stroke="white" stroke-width="1.23529"/>
<line x1="89" y1="38.5" x2="128" y2="38.5" stroke="#1E80CB"/>
</svg>
