<svg width="15" height="15" viewBox="0 0 15 15" fill="none" xmlns="http://www.w3.org/2000/svg">
<mask id="mask0_49_8" style="mask-type:alpha" maskUnits="userSpaceOnUse" x="0" y="0" width="15" height="15">
<rect width="15" height="15" fill="#D9D9D9"/>
</mask>
<g mask="url(#mask0_49_8)">
<path d="M2.69213 12.1874C2.37642 12.1874 2.10919 12.078 1.89044 11.8592C1.67169 11.6405 1.56232 11.3733 1.56232 11.0576V3.94222C1.56232 3.62651 1.67169 3.35928 1.89044 3.14053C2.10919 2.92178 2.37642 2.8124 2.69213 2.8124H8.95654C8.92689 2.96865 8.91107 3.1239 8.90907 3.27814C8.90707 3.43239 8.91888 3.58964 8.94452 3.74989H2.59596L7.4998 6.87489L9.75701 5.43498C9.86679 5.53835 9.98357 5.63149 10.1074 5.71442C10.2312 5.79736 10.3608 5.87127 10.4962 5.93617L7.4998 7.84842L2.4998 4.65131V11.0576C2.4998 11.1137 2.51783 11.1597 2.5539 11.1958C2.58996 11.2319 2.63604 11.2499 2.69213 11.2499H12.3075C12.3636 11.2499 12.4096 11.2319 12.4457 11.1958C12.4818 11.1597 12.4998 11.1137 12.4998 11.0576V6.26551C12.6793 6.22545 12.8461 6.17257 13.0004 6.10687C13.1546 6.04116 13.3003 5.96064 13.4373 5.86529V11.0576C13.4373 11.3733 13.3279 11.6405 13.1092 11.8592C12.8904 12.078 12.6232 12.1874 12.3075 12.1874H2.69213ZM11.8748 5.08403C11.398 5.08403 10.9924 4.91676 10.6579 4.58223C10.3233 4.2477 10.1561 3.84206 10.1561 3.3653C10.1561 2.88853 10.3233 2.48289 10.6579 2.14836C10.9924 1.81382 11.398 1.64655 11.8748 1.64655C12.3516 1.64655 12.7572 1.81382 13.0917 2.14836C13.4263 2.48289 13.5935 2.88853 13.5935 3.3653C13.5935 3.84206 13.4263 4.2477 13.0917 4.58223C12.7572 4.91676 12.3516 5.08403 11.8748 5.08403Z" fill="#1E80CB"/>
</g>
</svg>
