<svg width="512" height="342" viewBox="0 0 512 342" fill="none" xmlns="http://www.w3.org/2000/svg">
<path d="M217.939 341.333C209.88 341.333 203.124 338.607 197.672 333.156C192.221 327.704 189.495 320.948 189.495 312.889C189.495 304.83 192.221 298.074 197.672 292.622C203.124 287.17 209.88 284.444 217.939 284.444H483.556C491.615 284.444 498.37 287.17 503.822 292.622C509.274 298.074 512 304.83 512 312.889C512 320.948 509.274 327.704 503.822 333.156C498.37 338.607 491.615 341.333 483.556 341.333H217.939ZM123.192 199.111C115.133 199.111 108.377 196.385 102.925 190.933C97.4733 185.481 94.7473 178.726 94.7473 170.667C94.7473 162.607 97.4733 155.852 102.925 150.4C108.377 144.948 115.133 142.222 123.192 142.222H483.556C491.615 142.222 498.37 144.948 503.822 150.4C509.274 155.852 512 162.607 512 170.667C512 178.726 509.274 185.481 503.822 190.933C498.37 196.385 491.615 199.111 483.556 199.111H123.192ZM28.4444 56.8889C20.3852 56.8889 13.6296 54.163 8.17778 48.7111C2.72593 43.2593 0 36.5037 0 28.4444C0 20.3852 2.72593 13.6296 8.17778 8.17778C13.6296 2.72593 20.3852 0 28.4444 0H483.556C491.615 0 498.37 2.72593 503.822 8.17778C509.274 13.6296 512 20.3852 512 28.4444C512 36.5037 509.274 43.2593 503.822 48.7111C498.37 54.163 491.615 56.8889 483.556 56.8889H28.4444Z" fill="#1C1B1F"/>
</svg>
