<svg width="130" height="120" viewBox="0 0 130 120" fill="none" xmlns="http://www.w3.org/2000/svg">
<circle cx="68" cy="38" r="35" fill="#FADF14"/>
<circle cx="65" cy="35" r="34.8" stroke="black" stroke-opacity="0.85" stroke-width="0.4"/>
<mask id="mask0_337_125" style="mask-type:alpha" maskUnits="userSpaceOnUse" x="46" y="16" width="40" height="40">
<rect x="46" y="16" width="40" height="40" fill="#D9D9D9"/>
</mask>
<g mask="url(#mask0_337_125)">
<path d="M65.5278 43.25H66.5278V34.3333H65.5278V43.25ZM65.9995 32.3055C66.2174 32.3055 66.4016 32.2331 66.5521 32.0882C66.7026 31.9433 66.7778 31.7565 66.7778 31.5278C66.7778 31.3018 66.7027 31.1157 66.5526 30.9695C66.4024 30.8232 66.2184 30.75 66.0005 30.75C65.7641 30.75 65.5752 30.8232 65.434 30.9695C65.2928 31.1157 65.2222 31.3018 65.2222 31.5278C65.2222 31.7565 65.2973 31.9433 65.4474 32.0882C65.5976 32.2331 65.7816 32.3055 65.9995 32.3055ZM66.0146 50.5C63.9962 50.5 62.111 50.1196 60.3591 49.3587C58.6072 48.5978 57.0736 47.5606 55.7584 46.247C54.4431 44.9334 53.4046 43.401 52.6427 41.65C51.8809 39.8989 51.5 38.0133 51.5 35.9934C51.5 33.9919 51.8804 32.1098 52.6413 30.3473C53.4022 28.5847 54.4394 27.0505 55.753 25.7445C57.0666 24.4385 58.599 23.4046 60.35 22.6428C62.1011 21.8809 63.9867 21.5 66.0066 21.5C68.0081 21.5 69.8902 21.8804 71.6527 22.6413C73.4153 23.4022 74.9495 24.4348 76.2555 25.7391C77.5615 27.0435 78.5954 28.5773 79.3573 30.3406C80.1191 32.1039 80.5 33.9855 80.5 35.9854C80.5 38.0038 80.1196 39.889 79.3587 41.6409C78.5978 43.3928 77.5652 44.9247 76.2609 46.2365C74.9565 47.5484 73.4227 48.5869 71.6594 49.3521C69.8961 50.1174 68.0145 50.5 66.0146 50.5ZM66.0139 49.5C69.7639 49.5 72.9491 48.1898 75.5695 45.5695C78.1898 42.9491 79.5 39.7546 79.5 35.9861C79.5 32.2361 78.1916 29.0509 75.5747 26.4305C72.9578 23.8102 69.7662 22.5 66 22.5C62.2407 22.5 59.0509 23.8084 56.4305 26.4253C53.8102 29.0423 52.5 32.2338 52.5 36C52.5 39.7593 53.8102 42.9491 56.4305 45.5695C59.0509 48.1898 62.2454 49.5 66.0139 49.5Z" fill="#1C1B1F"/>
</g>
<path d="M8.55469 117H7.46484L1.93945 109.822V117H0.908203V108.211H1.99805L7.52344 115.389V108.211H8.55469V117ZM14.7785 117.117C14.1965 117.117 13.673 116.984 13.2082 116.719C12.7434 116.453 12.3762 116.092 12.1066 115.635C11.841 115.174 11.7082 114.652 11.7082 114.07C11.7082 113.492 11.841 112.975 12.1066 112.518C12.3762 112.057 12.7434 111.693 13.2082 111.428C13.673 111.158 14.1965 111.023 14.7785 111.023C15.3605 111.023 15.882 111.158 16.343 111.428C16.8039 111.693 17.1672 112.057 17.4328 112.518C17.6984 112.975 17.8313 113.492 17.8313 114.07C17.8313 114.652 17.6984 115.174 17.4328 115.635C17.1672 116.092 16.8039 116.453 16.343 116.719C15.882 116.984 15.3605 117.117 14.7785 117.117ZM14.7727 116.25C15.1672 116.25 15.5207 116.154 15.8332 115.963C16.1457 115.771 16.3918 115.512 16.5715 115.184C16.7551 114.855 16.8469 114.482 16.8469 114.064C16.8469 113.654 16.7551 113.285 16.5715 112.957C16.3918 112.629 16.1457 112.369 15.8332 112.178C15.5207 111.986 15.1672 111.891 14.7727 111.891C14.3781 111.891 14.0227 111.986 13.7063 112.178C13.3938 112.369 13.1457 112.629 12.9621 112.957C12.7824 113.285 12.6926 113.654 12.6926 114.064C12.6926 114.482 12.7824 114.855 12.9621 115.184C13.1457 115.512 13.3938 115.771 13.7063 115.963C14.0227 116.154 14.3781 116.25 14.7727 116.25ZM26.6754 117H25.7145V111.141H26.5582L26.5992 112.301C26.8023 111.898 27.0875 111.586 27.4547 111.363C27.8258 111.137 28.2516 111.023 28.732 111.023C28.8375 111.023 28.9449 111.029 29.0543 111.041C29.1637 111.053 29.273 111.07 29.3824 111.094L29.2652 111.961C29.0504 111.91 28.8375 111.885 28.6266 111.885C28.2437 111.885 27.9039 111.979 27.607 112.166C27.3141 112.354 27.0855 112.611 26.9215 112.939C26.7574 113.268 26.6754 113.645 26.6754 114.07V117ZM37.3172 116.279C36.5906 116.838 35.7898 117.117 34.9148 117.117C34.3055 117.117 33.7586 116.98 33.2742 116.707C32.7898 116.434 32.407 116.062 32.1258 115.594C31.8484 115.121 31.7098 114.588 31.7098 113.994C31.7098 113.424 31.8387 112.916 32.0965 112.471C32.3543 112.021 32.7078 111.668 33.157 111.41C33.6063 111.152 34.116 111.023 34.6863 111.023C35.2723 111.023 35.7879 111.164 36.2332 111.445C36.6824 111.727 37.032 112.117 37.282 112.617C37.532 113.117 37.657 113.695 37.657 114.352V114.539H32.7527C32.823 114.883 32.9637 115.182 33.1746 115.436C33.3895 115.689 33.6551 115.887 33.9715 116.027C34.2879 116.168 34.6414 116.238 35.032 116.238C35.7039 116.238 36.3172 116.018 36.8719 115.576L37.3172 116.279ZM32.7176 113.719H36.7488C36.7059 113.355 36.5926 113.039 36.409 112.77C36.2293 112.496 35.9949 112.283 35.7059 112.131C35.4207 111.979 35.0984 111.902 34.7391 111.902C34.3758 111.902 34.0477 111.979 33.7547 112.131C33.4656 112.283 33.2293 112.496 33.0457 112.77C32.866 113.039 32.7566 113.355 32.7176 113.719ZM45.6797 116.156C45.3945 116.465 45.0566 116.703 44.666 116.871C44.2754 117.035 43.8555 117.117 43.4062 117.117C42.8242 117.117 42.3008 116.984 41.8359 116.719C41.375 116.453 41.0098 116.09 40.7402 115.629C40.4746 115.168 40.3418 114.648 40.3418 114.07C40.3418 113.488 40.4746 112.969 40.7402 112.512C41.0098 112.051 41.375 111.688 41.8359 111.422C42.3008 111.156 42.8242 111.023 43.4062 111.023C43.8516 111.023 44.2695 111.105 44.6602 111.27C45.0508 111.434 45.3887 111.67 45.6738 111.979L45.0996 112.582C44.8926 112.363 44.6445 112.195 44.3555 112.078C44.0703 111.961 43.7676 111.902 43.4473 111.902C43.0371 111.902 42.6719 111.996 42.3516 112.184C42.0352 112.367 41.7852 112.621 41.6016 112.945C41.4219 113.27 41.332 113.643 41.332 114.064C41.332 114.486 41.4219 114.861 41.6016 115.189C41.7852 115.518 42.0352 115.775 42.3516 115.963C42.6719 116.146 43.0371 116.238 43.4473 116.238C43.7676 116.238 44.0723 116.18 44.3613 116.062C44.6504 115.941 44.8965 115.773 45.0996 115.559L45.6797 116.156ZM51.4348 117.117C50.8527 117.117 50.3293 116.984 49.8645 116.719C49.3996 116.453 49.0324 116.092 48.7629 115.635C48.4973 115.174 48.3645 114.652 48.3645 114.07C48.3645 113.492 48.4973 112.975 48.7629 112.518C49.0324 112.057 49.3996 111.693 49.8645 111.428C50.3293 111.158 50.8527 111.023 51.4348 111.023C52.0168 111.023 52.5383 111.158 52.9992 111.428C53.4602 111.693 53.8234 112.057 54.0891 112.518C54.3547 112.975 54.4875 113.492 54.4875 114.07C54.4875 114.652 54.3547 115.174 54.0891 115.635C53.8234 116.092 53.4602 116.453 52.9992 116.719C52.5383 116.984 52.0168 117.117 51.4348 117.117ZM51.4289 116.25C51.8234 116.25 52.177 116.154 52.4895 115.963C52.802 115.771 53.048 115.512 53.2277 115.184C53.4113 114.855 53.5031 114.482 53.5031 114.064C53.5031 113.654 53.4113 113.285 53.2277 112.957C53.048 112.629 52.802 112.369 52.4895 112.178C52.177 111.986 51.8234 111.891 51.4289 111.891C51.0344 111.891 50.6789 111.986 50.3625 112.178C50.05 112.369 49.802 112.629 49.6184 112.957C49.4387 113.285 49.3488 113.654 49.3488 114.064C49.3488 114.482 49.4387 114.855 49.6184 115.184C49.802 115.512 50.05 115.771 50.3625 115.963C50.6789 116.154 51.0344 116.25 51.4289 116.25ZM58.602 117H57.641V111.141H58.4848L58.5258 112.301C58.7289 111.898 59.0141 111.586 59.3812 111.363C59.7523 111.137 60.1781 111.023 60.6586 111.023C60.7641 111.023 60.8715 111.029 60.9809 111.041C61.0902 111.053 61.1996 111.07 61.309 111.094L61.1918 111.961C60.977 111.91 60.7641 111.885 60.5531 111.885C60.1703 111.885 59.8305 111.979 59.5336 112.166C59.2406 112.354 59.0121 112.611 58.848 112.939C58.684 113.268 58.602 113.645 58.602 114.07V117ZM69.8238 117H68.9684L68.9156 116.145C68.6461 116.445 68.318 116.684 67.9313 116.859C67.5445 117.031 67.1227 117.117 66.6656 117.117C66.0875 117.117 65.5699 116.984 65.1129 116.719C64.6559 116.453 64.2945 116.09 64.0289 115.629C63.7672 115.168 63.6363 114.648 63.6363 114.07C63.6363 113.488 63.7672 112.969 64.0289 112.512C64.2945 112.051 64.6559 111.688 65.1129 111.422C65.5699 111.156 66.0875 111.023 66.6656 111.023C67.107 111.023 67.5152 111.104 67.8902 111.264C68.2691 111.424 68.5934 111.646 68.8629 111.932V108.211H69.8238V117ZM66.7477 116.25C67.1383 116.25 67.4938 116.16 67.8141 115.98C68.1344 115.797 68.3883 115.549 68.5758 115.236C68.7672 114.92 68.8629 114.562 68.8629 114.164V113.965C68.8629 113.566 68.7672 113.211 68.5758 112.898C68.3883 112.582 68.1344 112.334 67.8141 112.154C67.4938 111.975 67.1383 111.885 66.7477 111.885C66.3414 111.885 65.9781 111.98 65.6578 112.172C65.3375 112.363 65.0836 112.623 64.8961 112.951C64.7125 113.279 64.6207 113.65 64.6207 114.064C64.6207 114.479 64.7125 114.852 64.8961 115.184C65.0836 115.512 65.3375 115.771 65.6578 115.963C65.9781 116.154 66.3414 116.25 66.7477 116.25ZM78.1699 117V108.211H83.4668V109.125H79.2012V112.078H83.2266V112.992H79.2012V117H78.1699ZM89.2746 117.117C88.6926 117.117 88.1691 116.984 87.7043 116.719C87.2395 116.453 86.8723 116.092 86.6027 115.635C86.3371 115.174 86.2043 114.652 86.2043 114.07C86.2043 113.492 86.3371 112.975 86.6027 112.518C86.8723 112.057 87.2395 111.693 87.7043 111.428C88.1691 111.158 88.6926 111.023 89.2746 111.023C89.8566 111.023 90.3781 111.158 90.8391 111.428C91.3 111.693 91.6633 112.057 91.9289 112.518C92.1945 112.975 92.3273 113.492 92.3273 114.07C92.3273 114.652 92.1945 115.174 91.9289 115.635C91.6633 116.092 91.3 116.453 90.8391 116.719C90.3781 116.984 89.8566 117.117 89.2746 117.117ZM89.2688 116.25C89.6633 116.25 90.0168 116.154 90.3293 115.963C90.6418 115.771 90.8879 115.512 91.0676 115.184C91.2512 114.855 91.343 114.482 91.343 114.064C91.343 113.654 91.2512 113.285 91.0676 112.957C90.8879 112.629 90.6418 112.369 90.3293 112.178C90.0168 111.986 89.6633 111.891 89.2688 111.891C88.8742 111.891 88.5188 111.986 88.2023 112.178C87.8898 112.369 87.6418 112.629 87.4582 112.957C87.2785 113.285 87.1887 113.654 87.1887 114.064C87.1887 114.482 87.2785 114.855 87.4582 115.184C87.6418 115.512 87.8898 115.771 88.2023 115.963C88.5188 116.154 88.8742 116.25 89.2688 116.25ZM100.848 117H100.004L99.9691 116.051C99.7543 116.395 99.4711 116.658 99.1195 116.842C98.7719 117.025 98.3598 117.117 97.8832 117.117C97.1059 117.117 96.4906 116.883 96.0375 116.414C95.5883 115.941 95.3637 115.297 95.3637 114.48V111.141H96.3246V114.41C96.3246 114.965 96.4809 115.408 96.7934 115.74C97.1098 116.072 97.5297 116.238 98.0531 116.238C98.6 116.238 99.0414 116.059 99.3773 115.699C99.7172 115.34 99.8871 114.871 99.8871 114.293V111.141H100.848V117ZM109.949 117H108.988V113.73C108.988 113.176 108.83 112.732 108.513 112.4C108.197 112.068 107.777 111.902 107.254 111.902C106.711 111.902 106.269 112.082 105.929 112.441C105.593 112.797 105.425 113.266 105.425 113.848V117H104.464V111.141H105.302L105.338 112.09C105.552 111.746 105.836 111.482 106.187 111.299C106.539 111.115 106.953 111.023 107.429 111.023C108.207 111.023 108.82 111.258 109.269 111.727C109.722 112.195 109.949 112.838 109.949 113.654V117ZM119.167 117H118.311L118.259 116.145C117.989 116.445 117.661 116.684 117.274 116.859C116.887 117.031 116.466 117.117 116.009 117.117C115.43 117.117 114.913 116.984 114.456 116.719C113.999 116.453 113.637 116.09 113.372 115.629C113.11 115.168 112.979 114.648 112.979 114.07C112.979 113.488 113.11 112.969 113.372 112.512C113.637 112.051 113.999 111.688 114.456 111.422C114.913 111.156 115.43 111.023 116.009 111.023C116.45 111.023 116.858 111.104 117.233 111.264C117.612 111.424 117.936 111.646 118.206 111.932V108.211H119.167V117ZM116.091 116.25C116.481 116.25 116.837 116.16 117.157 115.98C117.477 115.797 117.731 115.549 117.919 115.236C118.11 114.92 118.206 114.562 118.206 114.164V113.965C118.206 113.566 118.11 113.211 117.919 112.898C117.731 112.582 117.477 112.334 117.157 112.154C116.837 111.975 116.481 111.885 116.091 111.885C115.684 111.885 115.321 111.98 115.001 112.172C114.68 112.363 114.427 112.623 114.239 112.951C114.055 113.279 113.964 113.65 113.964 114.064C113.964 114.479 114.055 114.852 114.239 115.184C114.427 115.512 114.68 115.771 115.001 115.963C115.321 116.154 115.684 116.25 116.091 116.25ZM128.169 114.65H127.747L127.554 108.211H128.363L128.169 114.65ZM127.958 117.117C127.79 117.117 127.648 117.061 127.53 116.947C127.417 116.83 127.361 116.689 127.361 116.525C127.361 116.365 127.417 116.229 127.53 116.115C127.648 116.002 127.79 115.945 127.958 115.945C128.126 115.945 128.267 116.002 128.38 116.115C128.497 116.229 128.556 116.365 128.556 116.525C128.556 116.689 128.497 116.83 128.38 116.947C128.267 117.061 128.126 117.117 127.958 117.117Z" fill="black"/>
</svg>
