<svg width="122" height="120" viewBox="0 0 122 120" fill="none" xmlns="http://www.w3.org/2000/svg">
<circle cx="61" cy="38" r="35" fill="#FADF14"/>
<circle cx="58" cy="35" r="34.8" stroke="black" stroke-opacity="0.85" stroke-width="0.4"/>
<mask id="mask0_461_17" style="mask-type:alpha" maskUnits="userSpaceOnUse" x="39" y="16" width="40" height="40">
<rect x="39" y="16" width="40" height="40" fill="#D9D9D9"/>
</mask>
<g mask="url(#mask0_461_17)">
<path d="M58.5278 43.25H59.5278V34.3333H58.5278V43.25ZM58.9995 32.3055C59.2174 32.3055 59.4016 32.2331 59.5521 32.0882C59.7026 31.9433 59.7778 31.7565 59.7778 31.5278C59.7778 31.3018 59.7027 31.1157 59.5526 30.9695C59.4024 30.8232 59.2184 30.75 59.0005 30.75C58.7641 30.75 58.5752 30.8232 58.434 30.9695C58.2928 31.1157 58.2222 31.3018 58.2222 31.5278C58.2222 31.7565 58.2973 31.9433 58.4474 32.0882C58.5976 32.2331 58.7816 32.3055 58.9995 32.3055ZM59.0146 50.5C56.9962 50.5 55.111 50.1196 53.3591 49.3587C51.6072 48.5978 50.0736 47.5606 48.7584 46.247C47.4431 44.9334 46.4046 43.401 45.6427 41.65C44.8809 39.8989 44.5 38.0133 44.5 35.9934C44.5 33.9919 44.8804 32.1098 45.6413 30.3473C46.4022 28.5847 47.4394 27.0505 48.753 25.7445C50.0666 24.4385 51.599 23.4046 53.35 22.6428C55.1011 21.8809 56.9867 21.5 59.0066 21.5C61.0081 21.5 62.8902 21.8804 64.6527 22.6413C66.4153 23.4022 67.9495 24.4348 69.2555 25.7391C70.5615 27.0435 71.5954 28.5773 72.3573 30.3406C73.1191 32.1039 73.5 33.9855 73.5 35.9854C73.5 38.0038 73.1196 39.889 72.3587 41.6409C71.5978 43.3928 70.5652 44.9247 69.2609 46.2365C67.9565 47.5484 66.4227 48.5869 64.6594 49.3521C62.8961 50.1174 61.0145 50.5 59.0146 50.5ZM59.0139 49.5C62.7639 49.5 65.9491 48.1898 68.5695 45.5695C71.1898 42.9491 72.5 39.7546 72.5 35.9861C72.5 32.2361 71.1916 29.0509 68.5747 26.4305C65.9578 23.8102 62.7662 22.5 59 22.5C55.2407 22.5 52.0509 23.8084 49.4305 26.4253C46.8102 29.0423 45.5 32.2338 45.5 36C45.5 39.7593 46.8102 42.9491 49.4305 45.5695C52.0509 48.1898 55.2454 49.5 59.0139 49.5Z" fill="#1C1B1F"/>
</g>
<path d="M8.55469 117H7.46484L1.93945 109.822V117H0.908203V108.211H1.99805L7.52344 115.389V108.211H8.55469V117ZM14.4185 117.117C13.8365 117.117 13.313 116.984 12.8482 116.719C12.3834 116.453 12.0162 116.092 11.7466 115.635C11.481 115.174 11.3482 114.652 11.3482 114.07C11.3482 113.492 11.481 112.975 11.7466 112.518C12.0162 112.057 12.3834 111.693 12.8482 111.428C13.313 111.158 13.8365 111.023 14.4185 111.023C15.0005 111.023 15.522 111.158 15.983 111.428C16.4439 111.693 16.8072 112.057 17.0728 112.518C17.3384 112.975 17.4713 113.492 17.4713 114.07C17.4713 114.652 17.3384 115.174 17.0728 115.635C16.8072 116.092 16.4439 116.453 15.983 116.719C15.522 116.984 15.0005 117.117 14.4185 117.117ZM14.4127 116.25C14.8072 116.25 15.1607 116.154 15.4732 115.963C15.7857 115.771 16.0318 115.512 16.2115 115.184C16.3951 114.855 16.4869 114.482 16.4869 114.064C16.4869 113.654 16.3951 113.285 16.2115 112.957C16.0318 112.629 15.7857 112.369 15.4732 112.178C15.1607 111.986 14.8072 111.891 14.4127 111.891C14.0181 111.891 13.6627 111.986 13.3463 112.178C13.0338 112.369 12.7857 112.629 12.6021 112.957C12.4224 113.285 12.3326 113.654 12.3326 114.064C12.3326 114.482 12.4224 114.855 12.6021 115.184C12.7857 115.512 13.0338 115.771 13.3463 115.963C13.6627 116.154 14.0181 116.25 14.4127 116.25ZM25.5954 117H24.6345V111.141H25.4782L25.5192 112.301C25.7223 111.898 26.0075 111.586 26.3747 111.363C26.7458 111.137 27.1716 111.023 27.652 111.023C27.7575 111.023 27.8649 111.029 27.9743 111.041C28.0837 111.053 28.193 111.07 28.3024 111.094L28.1852 111.961C27.9704 111.91 27.7575 111.885 27.5466 111.885C27.1637 111.885 26.8239 111.979 26.527 112.166C26.2341 112.354 26.0055 112.611 25.8415 112.939C25.6774 113.268 25.5954 113.645 25.5954 114.07V117ZM35.8772 116.279C35.1506 116.838 34.3498 117.117 33.4748 117.117C32.8655 117.117 32.3186 116.98 31.8342 116.707C31.3498 116.434 30.967 116.062 30.6858 115.594C30.4084 115.121 30.2698 114.588 30.2698 113.994C30.2698 113.424 30.3987 112.916 30.6565 112.471C30.9143 112.021 31.2678 111.668 31.717 111.41C32.1663 111.152 32.676 111.023 33.2463 111.023C33.8323 111.023 34.3479 111.164 34.7932 111.445C35.2424 111.727 35.592 112.117 35.842 112.617C36.092 113.117 36.217 113.695 36.217 114.352V114.539H31.3127C31.383 114.883 31.5237 115.182 31.7346 115.436C31.9495 115.689 32.2151 115.887 32.5315 116.027C32.8479 116.168 33.2014 116.238 33.592 116.238C34.2639 116.238 34.8772 116.018 35.4319 115.576L35.8772 116.279ZM31.2776 113.719H35.3088C35.2659 113.355 35.1526 113.039 34.969 112.77C34.7893 112.496 34.5549 112.283 34.2659 112.131C33.9807 111.979 33.6584 111.902 33.2991 111.902C32.9358 111.902 32.6077 111.979 32.3147 112.131C32.0256 112.283 31.7893 112.496 31.6057 112.77C31.426 113.039 31.3166 113.355 31.2776 113.719ZM43.8797 116.156C43.5945 116.465 43.2566 116.703 42.866 116.871C42.4754 117.035 42.0555 117.117 41.6063 117.117C41.0242 117.117 40.5008 116.984 40.0359 116.719C39.575 116.453 39.2098 116.09 38.9402 115.629C38.6746 115.168 38.5418 114.648 38.5418 114.07C38.5418 113.488 38.6746 112.969 38.9402 112.512C39.2098 112.051 39.575 111.688 40.0359 111.422C40.5008 111.156 41.0242 111.023 41.6063 111.023C42.0516 111.023 42.4695 111.105 42.8602 111.27C43.2508 111.434 43.5887 111.67 43.8738 111.979L43.2996 112.582C43.0926 112.363 42.8445 112.195 42.5555 112.078C42.2703 111.961 41.9676 111.902 41.6473 111.902C41.2371 111.902 40.8719 111.996 40.5516 112.184C40.2352 112.367 39.9852 112.621 39.8016 112.945C39.6219 113.27 39.532 113.643 39.532 114.064C39.532 114.486 39.6219 114.861 39.8016 115.189C39.9852 115.518 40.2352 115.775 40.5516 115.963C40.8719 116.146 41.2371 116.238 41.6473 116.238C41.9676 116.238 42.2723 116.18 42.5613 116.062C42.8504 115.941 43.0965 115.773 43.2996 115.559L43.8797 116.156ZM49.2748 117.117C48.6927 117.117 48.1693 116.984 47.7045 116.719C47.2396 116.453 46.8724 116.092 46.6029 115.635C46.3373 115.174 46.2045 114.652 46.2045 114.07C46.2045 113.492 46.3373 112.975 46.6029 112.518C46.8724 112.057 47.2396 111.693 47.7045 111.428C48.1693 111.158 48.6927 111.023 49.2748 111.023C49.8568 111.023 50.3783 111.158 50.8392 111.428C51.3002 111.693 51.6634 112.057 51.9291 112.518C52.1947 112.975 52.3275 113.492 52.3275 114.07C52.3275 114.652 52.1947 115.174 51.9291 115.635C51.6634 116.092 51.3002 116.453 50.8392 116.719C50.3783 116.984 49.8568 117.117 49.2748 117.117ZM49.2689 116.25C49.6634 116.25 50.017 116.154 50.3295 115.963C50.642 115.771 50.888 115.512 51.0677 115.184C51.2513 114.855 51.3431 114.482 51.3431 114.064C51.3431 113.654 51.2513 113.285 51.0677 112.957C50.888 112.629 50.642 112.369 50.3295 112.178C50.017 111.986 49.6634 111.891 49.2689 111.891C48.8744 111.891 48.5189 111.986 48.2025 112.178C47.89 112.369 47.642 112.629 47.4584 112.957C47.2787 113.285 47.1888 113.654 47.1888 114.064C47.1888 114.482 47.2787 114.855 47.4584 115.184C47.642 115.512 47.89 115.771 48.2025 115.963C48.5189 116.154 48.8744 116.25 49.2689 116.25ZM56.082 117H55.121V111.141H55.9648L56.0058 112.301C56.2089 111.898 56.4941 111.586 56.8613 111.363C57.2323 111.137 57.6581 111.023 58.1386 111.023C58.2441 111.023 58.3515 111.029 58.4609 111.041C58.5702 111.053 58.6796 111.07 58.789 111.094L58.6718 111.961C58.457 111.91 58.2441 111.885 58.0331 111.885C57.6503 111.885 57.3105 111.979 57.0136 112.166C56.7206 112.354 56.4921 112.611 56.328 112.939C56.164 113.268 56.082 113.645 56.082 114.07V117ZM66.9438 117H66.0884L66.0356 116.145C65.7661 116.445 65.438 116.684 65.0513 116.859C64.6645 117.031 64.2427 117.117 63.7856 117.117C63.2075 117.117 62.6899 116.984 62.2329 116.719C61.7759 116.453 61.4145 116.09 61.1489 115.629C60.8872 115.168 60.7563 114.648 60.7563 114.07C60.7563 113.488 60.8872 112.969 61.1489 112.512C61.4145 112.051 61.7759 111.688 62.2329 111.422C62.6899 111.156 63.2075 111.023 63.7856 111.023C64.227 111.023 64.6352 111.104 65.0102 111.264C65.3891 111.424 65.7134 111.646 65.9829 111.932V108.211H66.9438V117ZM63.8677 116.25C64.2583 116.25 64.6138 116.16 64.9341 115.98C65.2544 115.797 65.5083 115.549 65.6958 115.236C65.8872 114.92 65.9829 114.562 65.9829 114.164V113.965C65.9829 113.566 65.8872 113.211 65.6958 112.898C65.5083 112.582 65.2544 112.334 64.9341 112.154C64.6138 111.975 64.2583 111.885 63.8677 111.885C63.4614 111.885 63.0981 111.98 62.7778 112.172C62.4575 112.363 62.2036 112.623 62.0161 112.951C61.8325 113.279 61.7407 113.65 61.7407 114.064C61.7407 114.479 61.8325 114.852 62.0161 115.184C62.2036 115.512 62.4575 115.771 62.7778 115.963C63.0981 116.154 63.4614 116.25 63.8677 116.25ZM75.9703 117H75.0094V112.002H73.984V111.141H75.0094V109.881C75.0094 109.518 75.0855 109.197 75.2379 108.92C75.3941 108.643 75.609 108.426 75.8824 108.27C76.1598 108.113 76.4781 108.035 76.8375 108.035C77.0602 108.035 77.2828 108.066 77.5055 108.129C77.732 108.188 77.9527 108.279 78.1676 108.404L77.7984 109.16C77.6656 109.074 77.5309 109.01 77.3941 108.967C77.2574 108.92 77.1207 108.896 76.984 108.896C76.6832 108.896 76.4391 109.006 76.2516 109.225C76.0641 109.439 75.9703 109.721 75.9703 110.068V111.141H77.7809V112.002H75.9703V117ZM83.3224 117.117C82.7404 117.117 82.217 116.984 81.7521 116.719C81.2873 116.453 80.9201 116.092 80.6506 115.635C80.3849 115.174 80.2521 114.652 80.2521 114.07C80.2521 113.492 80.3849 112.975 80.6506 112.518C80.9201 112.057 81.2873 111.693 81.7521 111.428C82.217 111.158 82.7404 111.023 83.3224 111.023C83.9045 111.023 84.4259 111.158 84.8869 111.428C85.3478 111.693 85.7111 112.057 85.9767 112.518C86.2423 112.975 86.3752 113.492 86.3752 114.07C86.3752 114.652 86.2423 115.174 85.9767 115.635C85.7111 116.092 85.3478 116.453 84.8869 116.719C84.4259 116.984 83.9045 117.117 83.3224 117.117ZM83.3166 116.25C83.7111 116.25 84.0646 116.154 84.3771 115.963C84.6896 115.771 84.9357 115.512 85.1154 115.184C85.299 114.855 85.3908 114.482 85.3908 114.064C85.3908 113.654 85.299 113.285 85.1154 112.957C84.9357 112.629 84.6896 112.369 84.3771 112.178C84.0646 111.986 83.7111 111.891 83.3166 111.891C82.922 111.891 82.5666 111.986 82.2502 112.178C81.9377 112.369 81.6896 112.629 81.506 112.957C81.3263 113.285 81.2365 113.654 81.2365 114.064C81.2365 114.482 81.3263 114.855 81.506 115.184C81.6896 115.512 81.9377 115.771 82.2502 115.963C82.5666 116.154 82.922 116.25 83.3166 116.25ZM94.5359 117H93.6921L93.657 116.051C93.4421 116.395 93.1589 116.658 92.8073 116.842C92.4597 117.025 92.0476 117.117 91.571 117.117C90.7937 117.117 90.1784 116.883 89.7253 116.414C89.2761 115.941 89.0515 115.297 89.0515 114.48V111.141H90.0124V114.41C90.0124 114.965 90.1687 115.408 90.4812 115.74C90.7976 116.072 91.2175 116.238 91.7409 116.238C92.2878 116.238 92.7292 116.059 93.0652 115.699C93.405 115.34 93.5749 114.871 93.5749 114.293V111.141H94.5359V117ZM103.277 117H102.316V113.73C102.316 113.176 102.158 112.732 101.841 112.4C101.525 112.068 101.105 111.902 100.581 111.902C100.038 111.902 99.597 112.082 99.2571 112.441C98.9212 112.797 98.7532 113.266 98.7532 113.848V117H97.7923V111.141H98.6302L98.6653 112.09C98.8802 111.746 99.1634 111.482 99.5149 111.299C99.8665 111.115 100.281 111.023 100.757 111.023C101.534 111.023 102.148 111.258 102.597 111.727C103.05 112.195 103.277 112.838 103.277 113.654V117ZM112.135 117H111.279L111.226 116.145C110.957 116.445 110.629 116.684 110.242 116.859C109.855 117.031 109.433 117.117 108.976 117.117C108.398 117.117 107.881 116.984 107.424 116.719C106.967 116.453 106.605 116.09 106.34 115.629C106.078 115.168 105.947 114.648 105.947 114.07C105.947 113.488 106.078 112.969 106.34 112.512C106.605 112.051 106.967 111.688 107.424 111.422C107.881 111.156 108.398 111.023 108.976 111.023C109.418 111.023 109.826 111.104 110.201 111.264C110.58 111.424 110.904 111.646 111.174 111.932V108.211H112.135V117ZM109.058 116.25C109.449 116.25 109.805 116.16 110.125 115.98C110.445 115.797 110.699 115.549 110.887 115.236C111.078 114.92 111.174 114.562 111.174 114.164V113.965C111.174 113.566 111.078 113.211 110.887 112.898C110.699 112.582 110.445 112.334 110.125 112.154C109.805 111.975 109.449 111.885 109.058 111.885C108.652 111.885 108.289 111.98 107.969 112.172C107.648 112.363 107.394 112.623 107.207 112.951C107.023 113.279 106.931 113.65 106.931 114.064C106.931 114.479 107.023 114.852 107.207 115.184C107.394 115.512 107.648 115.771 107.969 115.963C108.289 116.154 108.652 116.25 109.058 116.25ZM120.417 114.65H119.995L119.802 108.211H120.61L120.417 114.65ZM120.206 117.117C120.038 117.117 119.895 117.061 119.778 116.947C119.665 116.83 119.608 116.689 119.608 116.525C119.608 116.365 119.665 116.229 119.778 116.115C119.895 116.002 120.038 115.945 120.206 115.945C120.374 115.945 120.515 116.002 120.628 116.115C120.745 116.229 120.804 116.365 120.804 116.525C120.804 116.689 120.745 116.83 120.628 116.947C120.515 117.061 120.374 117.117 120.206 117.117Z" fill="black"/>
</svg>
