<svg width="513" height="513" viewBox="0 0 513 513" fill="none" xmlns="http://www.w3.org/2000/svg">
<mask id="mask0_351_51" style="mask-type:alpha" maskUnits="userSpaceOnUse" x="0" y="0" width="513" height="513">
<rect x="0.884766" y="0.420654" width="512" height="512" fill="#D9D9D9"/>
</mask>
<g mask="url(#mask0_351_51)">
<path d="M101.199 408.943C95.9798 408.943 91.6474 407.219 88.202 403.77C84.7531 400.325 83.0287 395.992 83.0287 390.773C83.0287 385.557 84.7531 381.224 88.202 377.775C91.6474 374.33 95.9798 372.607 101.199 372.607H124.549V213.663C124.549 183.029 133.498 155.507 151.397 131.098C169.292 106.689 193.064 91.3345 222.714 85.034V74.0687C222.714 64.4971 226.038 56.3887 232.687 49.7433C239.336 43.0944 247.402 39.77 256.885 39.77C266.367 39.77 274.433 43.0944 281.082 49.7433C287.731 56.3887 291.055 64.4971 291.055 74.0687V85.034C320.705 91.2491 344.499 106.582 362.437 131.034C380.378 155.486 389.349 183.029 389.349 213.663V372.607H412.57C417.79 372.607 422.143 374.33 425.631 377.775C429.123 381.224 430.869 385.557 430.869 390.773C430.869 395.992 429.123 400.325 425.631 403.77C422.143 407.219 417.79 408.943 412.57 408.943H101.199ZM257.013 474.09C244.938 474.09 234.616 469.806 226.047 461.237C217.482 452.668 213.199 442.348 213.199 430.277H300.698C300.698 442.348 296.414 452.668 287.845 461.237C279.279 469.806 269.002 474.09 257.013 474.09ZM160.885 372.607H352.885V213.663C352.885 187.082 343.551 164.437 324.885 145.727C306.218 127.018 283.551 117.663 256.885 117.663C230.218 117.663 207.551 127.018 188.885 145.727C170.218 164.437 160.885 187.082 160.885 213.663V372.607ZM75.9087 212.725C70.8634 212.725 66.6589 210.954 63.2954 207.413C59.9318 203.871 58.4705 199.578 58.9114 194.533C61.2154 168.862 68.1629 144.927 79.754 122.73C91.3451 100.529 106.335 81.258 124.725 64.9167C128.533 61.3789 132.936 59.7415 137.935 60.0047C142.931 60.2678 146.979 62.5238 150.079 66.7727C153.094 71.0251 154.115 75.6278 153.141 80.5807C152.166 85.5371 149.774 89.786 145.962 93.3273C131.825 106.294 120.312 121.29 111.423 138.314C102.534 155.338 96.9807 173.983 94.762 194.25C94.0509 199.654 91.994 204.085 88.5914 207.541C85.1851 210.997 80.9576 212.725 75.9087 212.725ZM437.861 212.725C432.812 212.725 428.584 210.997 425.178 207.541C421.775 204.085 419.718 199.654 419.007 194.25C416.789 173.983 411.235 155.338 402.346 138.314C393.457 121.29 381.944 106.294 367.807 93.3273C363.996 89.786 361.603 85.5371 360.629 80.5807C359.654 75.6278 360.718 71.0251 363.818 66.7727C366.833 62.5238 370.838 60.2678 375.834 60.0047C380.833 59.7415 385.237 61.3789 389.045 64.9167C407.434 81.258 422.424 100.529 434.015 122.73C445.606 144.927 452.554 168.862 454.858 194.533C455.299 199.578 453.838 203.871 450.474 207.413C447.11 210.954 442.906 212.725 437.861 212.725Z" fill="#1C1B1F"/>
</g>
</svg>
