<svg width="15" height="15" viewBox="0 0 15 15" fill="none" xmlns="http://www.w3.org/2000/svg">
<mask id="mask0_1_349" style="mask-type:alpha" maskUnits="userSpaceOnUse" x="0" y="0" width="15" height="15">
<rect width="15" height="15" fill="#D9D9D9"/>
</mask>
<g mask="url(#mask0_1_349)">
<path d="M11.899 7.31248C11.863 6.11376 11.4265 5.09593 10.5895 4.25899C9.75259 3.42205 8.73477 2.98556 7.53605 2.94951V2.01202C8.2652 2.02806 8.94789 2.17749 9.58411 2.46034C10.2203 2.74319 10.776 3.1222 11.2512 3.59735C11.7263 4.07251 12.1053 4.6282 12.3882 5.26441C12.671 5.90063 12.8205 6.58332 12.8365 7.31248H11.899ZM9.39903 7.31248C9.36297 6.81167 9.16866 6.38399 8.81609 6.02943C8.46353 5.67487 8.03685 5.48156 7.53605 5.44951V4.51202C8.29645 4.54408 8.94428 4.82873 9.47953 5.36599C10.0148 5.90324 10.3004 6.55207 10.3365 7.31248H9.39903ZM12.1502 12.8125C10.9723 12.8125 9.78904 12.5386 8.60034 11.991C7.41165 11.4433 6.3185 10.6706 5.32091 9.67305C4.32732 8.67546 3.55669 7.58332 3.00902 6.39663C2.46134 5.20994 2.1875 4.02765 2.1875 2.84977C2.1875 2.66227 2.25 2.50502 2.375 2.37802C2.5 2.25101 2.65625 2.18751 2.84375 2.18751H4.88219C5.04004 2.18751 5.17927 2.23899 5.29986 2.34196C5.42045 2.44493 5.49717 2.57213 5.53002 2.72357L5.88819 4.56249C5.91303 4.73317 5.90782 4.8798 5.87256 5.0024C5.83731 5.12499 5.77401 5.22796 5.68266 5.31129L4.23916 6.71634C4.47153 7.14182 4.73696 7.54426 5.03544 7.92366C5.33392 8.30308 5.65703 8.66547 6.00478 9.01082C6.34774 9.35377 6.71233 9.67228 7.09855 9.96635C7.48477 10.2604 7.90183 10.5341 8.34975 10.7873L9.75239 9.3726C9.85015 9.27084 9.96854 9.19953 10.1076 9.15866C10.2466 9.1178 10.391 9.10778 10.5409 9.12862L12.2764 9.48198C12.4343 9.52364 12.5631 9.60417 12.6628 9.72356C12.7626 9.84295 12.8125 9.97837 12.8125 10.1298V12.1562C12.8125 12.3437 12.749 12.5 12.622 12.625C12.495 12.75 12.3377 12.8125 12.1502 12.8125Z" fill="#1E80CB"/>
</g>
</svg>
