<svg width="32" height="32" viewBox="0 0 32 32" fill="none" xmlns="http://www.w3.org/2000/svg">
<mask id="mask0_302_468" style="mask-type:alpha" maskUnits="userSpaceOnUse" x="0" y="0" width="32" height="32">
<rect width="32" height="32" fill="#D9D9D9"/>
</mask>
<g mask="url(#mask0_302_468)">
<path d="M14.5231 28.6665C14.0684 28.6665 13.6756 28.5157 13.3449 28.214C13.0141 27.9122 12.8128 27.5409 12.741 27.0999L12.4154 24.605C12.0581 24.4853 11.6919 24.3178 11.3167 24.1024C10.9415 23.887 10.606 23.6562 10.3102 23.4101L7.99998 24.3922C7.58118 24.5768 7.16025 24.5947 6.73718 24.446C6.31411 24.2973 5.98549 24.0272 5.75131 23.6358L4.24875 21.0306C4.01457 20.6392 3.94705 20.2251 4.04618 19.7884C4.14534 19.3516 4.37268 18.9914 4.72821 18.7076L6.72568 17.2076C6.6949 17.0093 6.6731 16.8102 6.66028 16.6102C6.64746 16.4102 6.64105 16.211 6.64105 16.0127C6.64105 15.823 6.64746 15.6302 6.66028 15.4345C6.6731 15.2388 6.6949 15.0247 6.72568 14.7922L4.72821 13.2922C4.37268 13.0084 4.14747 12.646 4.05258 12.205C3.95771 11.764 4.02738 11.3478 4.26158 10.9563L5.75131 8.38965C5.98549 8.00676 6.31411 7.73882 6.73718 7.58582C7.16025 7.43284 7.58118 7.44865 7.99998 7.63325L10.2974 8.60252C10.6188 8.34781 10.962 8.1149 11.3269 7.90379C11.6919 7.69265 12.0504 7.52299 12.4026 7.39479L12.741 4.89989C12.8128 4.45889 13.0141 4.08753 13.3449 3.78582C13.6756 3.48411 14.0684 3.33325 14.5231 3.33325H17.4769C17.9316 3.33325 18.3243 3.48411 18.6551 3.78582C18.9858 4.08753 19.1871 4.45889 19.2589 4.89989L19.5845 7.40762C19.9845 7.55291 20.3465 7.72256 20.6705 7.91659C20.9944 8.11061 21.3213 8.33925 21.6512 8.60252L24.0128 7.63325C24.4316 7.44865 24.8525 7.43284 25.2756 7.58582C25.6987 7.73882 26.0273 8.00676 26.2615 8.38965L27.7512 10.9692C27.9854 11.3606 28.0529 11.7747 27.9538 12.2114C27.8546 12.6482 27.6273 13.0084 27.2717 13.2922L25.223 14.8306C25.2709 15.046 25.2969 15.2473 25.3012 15.4345C25.3055 15.6217 25.3076 15.8101 25.3076 15.9999C25.3076 16.1811 25.3033 16.3653 25.2948 16.5525C25.2863 16.7396 25.2555 16.9537 25.2025 17.1948L27.2128 18.7076C27.5683 18.9914 27.7978 19.3516 27.9012 19.7884C28.0046 20.2251 27.9392 20.6392 27.705 21.0306L26.1948 23.6229C25.9606 24.0144 25.6299 24.2845 25.2025 24.4332C24.7752 24.5819 24.3521 24.5639 23.9333 24.3793L21.6512 23.3973C21.3213 23.6605 20.9846 23.8934 20.641 24.096C20.2974 24.2986 19.9452 24.464 19.5845 24.5922L19.2589 27.0999C19.1871 27.5409 18.9858 27.9122 18.6551 28.214C18.3243 28.5157 17.9316 28.6665 17.4769 28.6665H14.5231ZM14.6666 26.6666H17.2871L17.7666 23.0948C18.447 22.917 19.0688 22.6644 19.632 22.3371C20.1953 22.0097 20.7384 21.5888 21.2615 21.0743L24.5743 22.4666L25.8871 20.1999L22.9948 18.0204C23.106 17.6751 23.1816 17.3366 23.2218 17.005C23.2619 16.6734 23.282 16.3384 23.282 15.9999C23.282 15.6529 23.2619 15.3178 23.2218 14.9948C23.1816 14.6717 23.106 14.3418 22.9948 14.005L25.9128 11.7999L24.6 9.53322L21.2487 10.9461C20.8025 10.4691 20.2679 10.0478 19.6448 9.68195C19.0218 9.31613 18.3914 9.05715 17.7538 8.90502L17.3333 5.33322H14.6871L14.2461 8.89219C13.5658 9.05287 12.9376 9.29903 12.3615 9.63065C11.7854 9.96227 11.2359 10.3896 10.7128 10.9127L7.39998 9.53322L6.08715 11.7999L8.96665 13.9461C8.85554 14.2623 8.77776 14.5913 8.73331 14.9332C8.68887 15.2751 8.66665 15.6349 8.66665 16.0127C8.66665 16.3597 8.68887 16.6999 8.73331 17.0332C8.77776 17.3666 8.85126 17.6956 8.95381 18.0204L6.08715 20.1999L7.39998 22.4666L10.7 21.0666C11.206 21.5862 11.747 22.0119 12.323 22.3435C12.8991 22.6751 13.5359 22.9298 14.2333 23.1076L14.6666 26.6666ZM16.0153 19.9999C17.1247 19.9999 18.0688 19.6105 18.8474 18.8319C19.626 18.0533 20.0153 17.1093 20.0153 15.9999C20.0153 14.8905 19.626 13.9465 18.8474 13.1679C18.0688 12.3892 17.1247 11.9999 16.0153 11.9999C14.8923 11.9999 13.9449 12.3892 13.1731 13.1679C12.4013 13.9465 12.0154 14.8905 12.0154 15.9999C12.0154 17.1093 12.4013 18.0533 13.1731 18.8319C13.9449 19.6105 14.8923 19.9999 16.0153 19.9999Z" fill="#1C1B1F"/>
</g>
</svg>
