<svg width="259" height="97" viewBox="0 0 259 97" fill="none" xmlns="http://www.w3.org/2000/svg">
<mask id="path-1-outside-1_412_2" maskUnits="userSpaceOnUse" x="6" y="14" width="244" height="41" fill="black">
<rect fill="white" x="6" y="14" width="244" height="41"/>
<path d="M32.9245 20.6436H42.3766L34.7154 49H21.7311L14.0202 20.6436H23.5221L28.0989 42.8312H28.3476L32.9245 20.6436ZM44.9293 20.6436H53.884V49H44.9293V20.6436ZM58.8203 20.6436H67.775V42.4332H79.3663V49H58.8203V20.6436ZM82.3306 20.6436H102.976V26.6133H91.2853V31.7871H101.135V37.1599H91.2853V42.9307H102.926V49H82.3306V20.6436ZM125.697 20.4943C128.383 20.4943 130.655 20.743 132.512 21.2405C134.37 21.738 135.846 22.6998 136.94 24.1259C138.068 25.5189 138.632 27.5254 138.632 30.1455C138.632 31.3062 138.449 32.5002 138.084 33.7273C137.753 34.9213 137.321 35.966 136.791 36.8615C136.293 37.7569 135.846 38.3373 135.448 38.6026C134.983 38.9343 133.955 39.1996 132.363 39.3986C130.771 39.5644 128.897 39.6473 126.742 39.6473C125.979 39.6473 124.802 39.6142 123.21 39.5479V49H114.255V20.6436C117.737 20.5441 121.551 20.4943 125.697 20.4943ZM129.428 33.2796C129.76 32.8484 129.926 31.9861 129.926 30.6927C129.926 29.0012 129.561 27.8073 128.831 27.1108C128.135 26.4143 126.908 26.0661 125.15 26.0661C124.553 26.0661 123.906 26.1158 123.21 26.2153V33.7771C123.541 33.8102 124.188 33.8268 125.15 33.8268C127.704 33.8268 129.13 33.6444 129.428 33.2796ZM157.586 42.7815H149.328L147.836 49H138.682L147.836 20.6436H159.527L168.282 49H159.079L157.586 42.7815ZM153.407 26.7626L150.472 37.2594H156.392L153.606 26.7626H153.407ZM196.575 49H187.173L185.481 41.8363C185.415 41.5709 185.299 41.1232 185.133 40.4931C185.001 39.8298 184.835 39.3489 184.636 39.0504C184.437 38.7187 184.155 38.5031 183.79 38.4036C182.861 38.4368 181.502 38.4534 179.711 38.4534V49H170.756V20.8923C174.769 20.5938 178.517 20.4446 181.999 20.4446C185.15 20.4446 187.704 20.7099 189.66 21.2405C191.617 21.738 193.076 22.6169 194.038 23.8772C195.033 25.1043 195.531 26.7957 195.531 28.9515C195.531 30.9746 195.066 32.5665 194.138 33.7273C193.209 34.8549 191.717 35.5348 189.66 35.767V36.0655C190.821 36.165 191.783 36.5464 192.546 37.2097C193.342 37.8398 193.872 38.6524 194.138 39.6473L196.575 49ZM179.711 32.8319C180.009 32.865 180.59 32.8816 181.452 32.8816C184.006 32.8816 185.498 32.666 185.929 32.2349C186.327 31.8369 186.526 30.9083 186.526 29.449C186.526 28.0892 186.161 27.1606 185.432 26.6631C184.735 26.1656 183.574 25.9169 181.949 25.9169C181.585 25.9169 180.838 25.95 179.711 26.0164V32.8319ZM199.514 20.6436H208.469V42.4332H220.06V49H199.514V20.6436ZM223.025 20.6436H243.67V26.6133H231.979V31.7871H241.829V37.1599H231.979V42.9307H243.62V49H223.025V20.6436Z"/>
</mask>
<path d="M32.9245 20.6436H42.3766L34.7154 49H21.7311L14.0202 20.6436H23.5221L28.0989 42.8312H28.3476L32.9245 20.6436ZM44.9293 20.6436H53.884V49H44.9293V20.6436ZM58.8203 20.6436H67.775V42.4332H79.3663V49H58.8203V20.6436ZM82.3306 20.6436H102.976V26.6133H91.2853V31.7871H101.135V37.1599H91.2853V42.9307H102.926V49H82.3306V20.6436ZM125.697 20.4943C128.383 20.4943 130.655 20.743 132.512 21.2405C134.37 21.738 135.846 22.6998 136.94 24.1259C138.068 25.5189 138.632 27.5254 138.632 30.1455C138.632 31.3062 138.449 32.5002 138.084 33.7273C137.753 34.9213 137.321 35.966 136.791 36.8615C136.293 37.7569 135.846 38.3373 135.448 38.6026C134.983 38.9343 133.955 39.1996 132.363 39.3986C130.771 39.5644 128.897 39.6473 126.742 39.6473C125.979 39.6473 124.802 39.6142 123.21 39.5479V49H114.255V20.6436C117.737 20.5441 121.551 20.4943 125.697 20.4943ZM129.428 33.2796C129.76 32.8484 129.926 31.9861 129.926 30.6927C129.926 29.0012 129.561 27.8073 128.831 27.1108C128.135 26.4143 126.908 26.0661 125.15 26.0661C124.553 26.0661 123.906 26.1158 123.21 26.2153V33.7771C123.541 33.8102 124.188 33.8268 125.15 33.8268C127.704 33.8268 129.13 33.6444 129.428 33.2796ZM157.586 42.7815H149.328L147.836 49H138.682L147.836 20.6436H159.527L168.282 49H159.079L157.586 42.7815ZM153.407 26.7626L150.472 37.2594H156.392L153.606 26.7626H153.407ZM196.575 49H187.173L185.481 41.8363C185.415 41.5709 185.299 41.1232 185.133 40.4931C185.001 39.8298 184.835 39.3489 184.636 39.0504C184.437 38.7187 184.155 38.5031 183.79 38.4036C182.861 38.4368 181.502 38.4534 179.711 38.4534V49H170.756V20.8923C174.769 20.5938 178.517 20.4446 181.999 20.4446C185.15 20.4446 187.704 20.7099 189.66 21.2405C191.617 21.738 193.076 22.6169 194.038 23.8772C195.033 25.1043 195.531 26.7957 195.531 28.9515C195.531 30.9746 195.066 32.5665 194.138 33.7273C193.209 34.8549 191.717 35.5348 189.66 35.767V36.0655C190.821 36.165 191.783 36.5464 192.546 37.2097C193.342 37.8398 193.872 38.6524 194.138 39.6473L196.575 49ZM179.711 32.8319C180.009 32.865 180.59 32.8816 181.452 32.8816C184.006 32.8816 185.498 32.666 185.929 32.2349C186.327 31.8369 186.526 30.9083 186.526 29.449C186.526 28.0892 186.161 27.1606 185.432 26.6631C184.735 26.1656 183.574 25.9169 181.949 25.9169C181.585 25.9169 180.838 25.95 179.711 26.0164V32.8319ZM199.514 20.6436H208.469V42.4332H220.06V49H199.514V20.6436ZM223.025 20.6436H243.67V26.6133H231.979V31.7871H241.829V37.1599H231.979V42.9307H243.62V49H223.025V20.6436Z" fill="#006ABB"/>
<path d="M32.9245 20.6436V14.8598H28.212L27.26 19.4751L32.9245 20.6436ZM42.3766 20.6436L47.9602 22.1521L49.9304 14.8598H42.3766V20.6436ZM34.7154 49V54.7838H39.1439L40.299 50.5085L34.7154 49ZM21.7311 49L16.15 50.5177L17.3101 54.7838H21.7311V49ZM14.0202 20.6436V14.8598H6.45359L8.43907 22.1612L14.0202 20.6436ZM23.5221 20.6436L29.1866 19.4751L28.2345 14.8598H23.5221V20.6436ZM28.0989 42.8312L22.4344 43.9997L23.3864 48.615H28.0989V42.8312ZM28.3476 42.8312V48.615H33.0601L34.0121 43.9997L28.3476 42.8312ZM32.9245 26.4273H42.3766V14.8598H32.9245V26.4273ZM36.793 19.135L29.1318 47.4915L40.299 50.5085L47.9602 22.1521L36.793 19.135ZM34.7154 43.2162H21.7311V54.7838H34.7154V43.2162ZM27.3122 47.4823L19.6013 19.1259L8.43907 22.1612L16.15 50.5177L27.3122 47.4823ZM14.0202 26.4273H23.5221V14.8598H14.0202V26.4273ZM17.8576 21.812L22.4344 43.9997L33.7634 41.6628L29.1866 19.4751L17.8576 21.812ZM28.0989 48.615H28.3476V37.0475H28.0989V48.615ZM34.0121 43.9997L38.589 21.812L27.26 19.4751L22.6831 41.6628L34.0121 43.9997ZM44.9293 20.6436V14.8598H39.1455V20.6436H44.9293ZM53.884 20.6436H59.6677V14.8598H53.884V20.6436ZM53.884 49V54.7838H59.6677V49H53.884ZM44.9293 49H39.1455V54.7838H44.9293V49ZM44.9293 26.4273H53.884V14.8598H44.9293V26.4273ZM48.1002 20.6436V49H59.6677V20.6436H48.1002ZM53.884 43.2162H44.9293V54.7838H53.884V43.2162ZM50.7131 49V20.6436H39.1455V49H50.7131ZM58.8203 20.6436V14.8598H53.0366V20.6436H58.8203ZM67.775 20.6436H73.5587V14.8598H67.775V20.6436ZM67.775 42.4332H61.9912V48.217H67.775V42.4332ZM79.3663 42.4332H85.1501V36.6495H79.3663V42.4332ZM79.3663 49V54.7838H85.1501V49H79.3663ZM58.8203 49H53.0366V54.7838H58.8203V49ZM58.8203 26.4273H67.775V14.8598H58.8203V26.4273ZM61.9912 20.6436V42.4332H73.5587V20.6436H61.9912ZM67.775 48.217H79.3663V36.6495H67.775V48.217ZM73.5825 42.4332V49H85.1501V42.4332H73.5825ZM79.3663 43.2162H58.8203V54.7838H79.3663V43.2162ZM64.6041 49V20.6436H53.0366V49H64.6041ZM82.3306 20.6436V14.8598H76.5468V20.6436H82.3306ZM102.976 20.6436H108.76V14.8598H102.976V20.6436ZM102.976 26.6133V32.3971H108.76V26.6133H102.976ZM91.2853 26.6133V20.8296H85.5015V26.6133H91.2853ZM91.2853 31.7871H85.5015V37.5709H91.2853V31.7871ZM101.135 31.7871H106.919V26.0034H101.135V31.7871ZM101.135 37.1599V42.9437H106.919V37.1599H101.135ZM91.2853 37.1599V31.3762H85.5015V37.1599H91.2853ZM91.2853 42.9307H85.5015V48.7145H91.2853V42.9307ZM102.926 42.9307H108.71V37.147H102.926V42.9307ZM102.926 49V54.7838H108.71V49H102.926ZM82.3306 49H76.5468V54.7838H82.3306V49ZM82.3306 26.4273H102.976V14.8598H82.3306V26.4273ZM97.1923 20.6436V26.6133H108.76V20.6436H97.1923ZM102.976 20.8296H91.2853V32.3971H102.976V20.8296ZM85.5015 26.6133V31.7871H97.069V26.6133H85.5015ZM91.2853 37.5709H101.135V26.0034H91.2853V37.5709ZM95.3516 31.7871V37.1599H106.919V31.7871H95.3516ZM101.135 31.3762H91.2853V42.9437H101.135V31.3762ZM85.5015 37.1599V42.9307H97.069V37.1599H85.5015ZM91.2853 48.7145H102.926V37.147H91.2853V48.7145ZM97.1426 42.9307V49H108.71V42.9307H97.1426ZM102.926 43.2162H82.3306V54.7838H102.926V43.2162ZM88.1144 49V20.6436H76.5468V49H88.1144ZM136.94 24.1259L132.352 27.6472L132.397 27.7067L132.445 27.7651L136.94 24.1259ZM138.084 33.7273L132.54 32.0791L132.525 32.1291L132.512 32.1793L138.084 33.7273ZM136.791 36.8615L131.815 33.9129L131.774 33.9822L131.735 34.0526L136.791 36.8615ZM135.448 38.6026L132.239 33.7903L132.162 33.842L132.086 33.8962L135.448 38.6026ZM132.363 39.3986L132.962 45.1512L133.022 45.1451L133.081 45.1377L132.363 39.3986ZM123.21 39.5479L123.45 33.7691L117.426 33.5181V39.5479H123.21ZM123.21 49V54.7838H128.993V49H123.21ZM114.255 49H108.471V54.7838H114.255V49ZM114.255 20.6436L114.09 14.8621L108.471 15.0227V20.6436H114.255ZM129.428 33.2796L133.904 36.9421L133.959 36.8749L134.012 36.806L129.428 33.2796ZM128.831 27.1108L124.741 31.2006L124.789 31.2481L124.838 31.2945L128.831 27.1108ZM123.21 26.2153L122.392 20.4897L117.426 21.1991V26.2153H123.21ZM123.21 33.7771H117.426V39.0113L122.634 39.5321L123.21 33.7771ZM125.697 26.2781C128.062 26.2781 129.797 26.5008 131.016 26.8273L134.009 15.6537C131.513 14.9853 128.705 14.7105 125.697 14.7105V26.2781ZM131.016 26.8273C131.735 27.0198 132.088 27.3036 132.352 27.6472L141.528 20.6047C139.603 18.096 137.005 16.4562 134.009 15.6537L131.016 26.8273ZM132.445 27.7651C132.446 27.7663 132.467 27.793 132.502 27.8621C132.537 27.933 132.588 28.0537 132.641 28.2401C132.748 28.6232 132.848 29.2352 132.848 30.1455H144.415C144.415 26.7937 143.706 23.2914 141.435 20.4868L132.445 27.7651ZM132.848 30.1455C132.848 30.694 132.762 31.3325 132.54 32.0791L143.628 35.3755C144.136 33.6679 144.415 31.9184 144.415 30.1455H132.848ZM132.512 32.1793C132.291 32.9725 132.042 33.5298 131.815 33.9129L141.767 39.81C142.601 38.4021 143.214 36.8701 143.657 35.2753L132.512 32.1793ZM131.735 34.0526C131.66 34.1882 131.6 34.2869 131.557 34.3547C131.512 34.4236 131.494 34.4468 131.502 34.4356C131.509 34.4266 131.563 34.3579 131.666 34.2548C131.766 34.1549 131.955 33.9799 132.239 33.7903L138.656 43.415C140.295 42.3223 141.301 40.6521 141.847 39.6703L131.735 34.0526ZM132.086 33.8962C132.286 33.7535 132.457 33.6558 132.577 33.5936C132.698 33.5305 132.791 33.4906 132.846 33.4688C132.947 33.4282 132.972 33.4271 132.883 33.4501C132.801 33.4713 132.658 33.5037 132.442 33.5419C132.229 33.5797 131.965 33.6196 131.646 33.6595L133.081 45.1377C134.012 45.0213 134.932 44.8678 135.774 44.6507C136.488 44.4663 137.696 44.1045 138.809 43.3091L132.086 33.8962ZM131.764 33.646C130.426 33.7854 128.761 33.8636 126.742 33.8636V45.4311C129.034 45.4311 131.117 45.3435 132.962 45.1512L131.764 33.646ZM126.742 33.8636C126.106 33.8636 125.029 33.8349 123.45 33.7691L122.969 45.3266C124.574 45.3935 125.852 45.4311 126.742 45.4311V33.8636ZM117.426 39.5479V49H128.993V39.5479H117.426ZM123.21 43.2162H114.255V54.7838H123.21V43.2162ZM120.039 49V20.6436H108.471V49H120.039ZM114.42 26.425C117.838 26.3273 121.596 26.2781 125.697 26.2781V14.7105C121.506 14.7105 117.636 14.7608 114.09 14.8621L114.42 26.425ZM134.012 36.806C134.965 35.567 135.321 34.2347 135.481 33.4017C135.657 32.4853 135.709 31.5513 135.709 30.6927H124.142C124.142 31.1275 124.111 31.2714 124.122 31.2172C124.128 31.1814 124.16 31.0277 124.247 30.7991C124.333 30.5756 124.509 30.1886 124.844 29.7532L134.012 36.806ZM135.709 30.6927C135.709 28.4367 135.268 25.2594 132.825 22.9271L124.838 31.2945C124.333 30.8124 124.16 30.348 124.121 30.2188C124.088 30.1128 124.142 30.2311 124.142 30.6927H135.709ZM132.921 23.0211C130.552 20.6518 127.338 20.2823 125.15 20.2823V31.8499C125.402 31.8499 125.581 31.8625 125.698 31.8762C125.817 31.89 125.847 31.902 125.809 31.8913C125.747 31.8735 125.267 31.726 124.741 31.2006L132.921 23.0211ZM125.15 20.2823C124.236 20.2823 123.313 20.3581 122.392 20.4897L124.028 31.941C124.499 31.8736 124.87 31.8499 125.15 31.8499V20.2823ZM117.426 26.2153V33.7771H128.993V26.2153H117.426ZM122.634 39.5321C123.298 39.5985 124.228 39.6106 125.15 39.6106V28.0431C124.697 28.0431 124.348 28.0391 124.092 28.0325C123.805 28.0252 123.732 28.0167 123.785 28.022L122.634 39.5321ZM125.15 39.6106C126.515 39.6106 127.795 39.5644 128.868 39.427C129.394 39.3598 130.061 39.248 130.742 39.0319C131.2 38.8866 132.719 38.3906 133.904 36.9421L124.952 29.6171C125.531 28.9092 126.144 28.5226 126.476 28.34C126.829 28.1458 127.112 28.0478 127.244 28.0061C127.493 27.9268 127.589 27.929 127.401 27.953C127.049 27.998 126.338 28.0431 125.15 28.0431V39.6106ZM157.586 42.7815L163.21 41.4317L162.146 36.9977H157.586V42.7815ZM149.328 42.7815V36.9977H144.768L143.704 41.4317L149.328 42.7815ZM147.836 49V54.7838H152.396L153.46 50.3498L147.836 49ZM138.682 49L133.178 47.2232L130.737 54.7838H138.682V49ZM147.836 20.6436V14.8598H143.625L142.332 18.8668L147.836 20.6436ZM159.527 20.6436L165.053 18.9372L163.794 14.8598H159.527V20.6436ZM168.282 49V54.7838H176.121L173.809 47.2936L168.282 49ZM159.079 49L153.455 50.3498L154.519 54.7838H159.079V49ZM153.407 26.7626V20.9788H149.019L147.837 25.2051L153.407 26.7626ZM150.472 37.2594L144.902 35.7019L142.849 43.0432H150.472V37.2594ZM156.392 37.2594V43.0432H163.911L161.983 35.7758L156.392 37.2594ZM153.606 26.7626L159.197 25.2789L158.055 20.9788H153.606V26.7626ZM157.586 36.9977H149.328V48.5652H157.586V36.9977ZM143.704 41.4317L142.212 47.6502L153.46 50.3498L154.952 44.1313L143.704 41.4317ZM147.836 43.2162H138.682V54.7838H147.836V43.2162ZM144.186 50.7768L153.34 22.4203L142.332 18.8668L133.178 47.2232L144.186 50.7768ZM147.836 26.4273H159.527V14.8598H147.836V26.4273ZM154 22.3499L162.756 50.7064L173.809 47.2936L165.053 18.9372L154 22.3499ZM168.282 43.2162H159.079V54.7838H168.282V43.2162ZM164.703 47.6502L163.21 41.4317L151.962 44.1313L153.455 50.3498L164.703 47.6502ZM147.837 25.2051L144.902 35.7019L156.042 38.817L158.978 28.3201L147.837 25.2051ZM150.472 43.0432H156.392V31.4757H150.472V43.0432ZM161.983 35.7758L159.197 25.2789L148.016 28.2462L150.802 38.7431L161.983 35.7758ZM153.606 20.9788H153.407V32.5463H153.606V20.9788ZM196.575 49V54.7838H204.06L202.172 47.5413L196.575 49ZM187.173 49L181.544 50.3291L182.596 54.7838H187.173V49ZM185.481 41.8363L191.11 40.5072L191.102 40.4703L191.093 40.4335L185.481 41.8363ZM185.133 40.4931L179.462 41.6274L179.496 41.7973L179.54 41.965L185.133 40.4931ZM184.636 39.0504L179.676 42.0261L179.747 42.1441L179.823 42.2586L184.636 39.0504ZM183.79 38.4036L185.312 32.8237L184.463 32.5922L183.584 32.6236L183.79 38.4036ZM179.711 38.4534V32.6696H173.927V38.4534H179.711ZM179.711 49V54.7838H185.494V49H179.711ZM170.756 49H164.972V54.7838H170.756V49ZM170.756 20.8923L170.327 15.1245L164.972 15.5228V20.8923H170.756ZM189.66 21.2405L188.146 26.8227L188.191 26.8347L188.235 26.846L189.66 21.2405ZM194.038 23.8772L189.44 27.386L189.492 27.4537L189.546 27.5198L194.038 23.8772ZM194.138 33.7273L198.602 37.4041L198.628 37.3724L198.654 37.3404L194.138 33.7273ZM189.66 35.767L189.011 30.0197L183.877 30.5995V35.767H189.66ZM189.66 36.0655H183.877V41.3747L189.166 41.8281L189.66 36.0655ZM192.546 37.2097L188.751 41.5742L188.851 41.6617L188.956 41.7444L192.546 37.2097ZM194.138 39.6473L199.734 38.1886L199.73 38.1728L199.726 38.1571L194.138 39.6473ZM179.711 32.8319H173.927V38.0086L179.072 38.5802L179.711 32.8319ZM185.432 26.6631L182.07 31.3695L182.121 31.4062L182.173 31.4418L185.432 26.6631ZM179.711 26.0164L179.371 20.2426L173.927 20.5628V26.0164H179.711ZM196.575 43.2162H187.173V54.7838H196.575V43.2162ZM192.802 47.6709L191.11 40.5072L179.852 43.1653L181.544 50.3291L192.802 47.6709ZM191.093 40.4335C191.017 40.1301 190.892 39.6516 190.727 39.0211L179.54 41.965C179.706 42.5948 179.814 43.0118 179.87 43.239L191.093 40.4335ZM190.805 39.3588C190.632 38.4935 190.29 37.1048 189.448 35.8421L179.823 42.2586C179.684 42.0503 179.594 41.8754 179.54 41.7604C179.486 41.6436 179.455 41.5593 179.442 41.5204C179.417 41.4505 179.431 41.4729 179.462 41.6274L190.805 39.3588ZM189.595 36.0746C188.648 34.4966 187.152 33.3254 185.312 32.8237L182.268 43.9836C181.777 43.8497 181.253 43.6099 180.762 43.2343C180.273 42.8603 179.918 42.4298 179.676 42.0261L189.595 36.0746ZM183.584 32.6236C182.76 32.653 181.483 32.6696 179.711 32.6696V44.2372C181.52 44.2372 182.962 44.2207 183.996 44.1837L183.584 32.6236ZM173.927 38.4534V49H185.494V38.4534H173.927ZM179.711 43.2162H170.756V54.7838H179.711V43.2162ZM176.54 49V20.8923H164.972V49H176.54ZM171.185 26.6601C175.077 26.3707 178.68 26.2283 181.999 26.2283V14.6608C178.354 14.6608 174.461 14.8169 170.327 15.1245L171.185 26.6601ZM181.999 26.2283C184.888 26.2283 186.877 26.4783 188.146 26.8227L191.174 15.6584C188.531 14.9415 185.412 14.6608 181.999 14.6608V26.2283ZM188.235 26.846C188.763 26.9803 189.074 27.1282 189.238 27.2274C189.391 27.3191 189.434 27.3771 189.44 27.386L198.636 20.3683C196.688 17.8163 193.955 16.3646 191.085 15.6351L188.235 26.846ZM189.546 27.5198C189.446 27.3966 189.747 27.6412 189.747 28.9515H201.314C201.314 25.9503 200.621 22.812 198.531 20.2346L189.546 27.5198ZM189.747 28.9515C189.747 30.1323 189.477 30.2946 189.621 30.1142L198.654 37.3404C200.656 34.8384 201.314 31.8168 201.314 28.9515H189.747ZM189.673 30.0505C189.833 29.8559 189.969 29.7993 189.924 29.8196C189.855 29.8512 189.586 29.9549 189.011 30.0197L190.309 41.5142C193.233 41.1842 196.382 40.0998 198.602 37.4041L189.673 30.0505ZM183.877 35.767V36.0655H195.444V35.767H183.877ZM189.166 41.8281C189.255 41.8357 189.225 41.8441 189.12 41.8026C189.008 41.7581 188.874 41.6815 188.751 41.5742L196.341 32.8452C194.517 31.2594 192.343 30.4904 190.154 30.3028L189.166 41.8281ZM188.956 41.7444C188.888 41.6905 188.789 41.5936 188.698 41.4542C188.608 41.3156 188.565 41.1972 188.549 41.1376L199.726 38.1571C199.145 35.9771 197.923 34.0901 196.136 32.675L188.956 41.7444ZM188.541 41.1061L190.979 50.4587L202.172 47.5413L199.734 38.1886L188.541 41.1061ZM179.072 38.5802C179.738 38.6543 180.633 38.6654 181.452 38.6654V27.0978C181.052 27.0978 180.751 27.0939 180.535 27.0878C180.428 27.0847 180.356 27.0815 180.314 27.0791C180.265 27.0763 180.285 27.0763 180.349 27.0835L179.072 38.5802ZM181.452 38.6654C182.844 38.6654 184.17 38.6094 185.313 38.4443C185.883 38.362 186.561 38.2316 187.25 38C187.844 37.8005 188.993 37.3502 190.019 36.3246L181.839 28.1451C182.278 27.7069 182.697 27.4447 182.963 27.3008C183.236 27.1531 183.452 27.0731 183.564 27.0356C183.771 26.9658 183.837 26.97 183.66 26.9956C183.506 27.0178 183.247 27.045 182.86 27.0656C182.479 27.0859 182.013 27.0978 181.452 27.0978V38.6654ZM190.019 36.3246C191.38 34.9637 191.842 33.3384 192.032 32.4518C192.25 31.4372 192.31 30.3939 192.31 29.449H180.742C180.742 29.9634 180.703 30.1139 180.722 30.028C180.733 29.9745 180.781 29.7633 180.916 29.4634C181.049 29.1678 181.322 28.6625 181.839 28.1451L190.019 36.3246ZM192.31 29.449C192.31 27.2535 191.719 23.9496 188.69 21.8844L182.173 31.4418C181.457 30.9533 181.055 30.319 180.869 29.8475C180.71 29.4421 180.742 29.2472 180.742 29.449H192.31ZM188.793 21.9566C186.565 20.3651 183.855 20.1331 181.949 20.1331V31.7006C182.211 31.7006 182.414 31.7107 182.567 31.7243C182.721 31.7381 182.803 31.7537 182.827 31.7588C182.852 31.7642 182.79 31.7532 182.666 31.7034C182.541 31.6533 182.327 31.5529 182.07 31.3695L188.793 21.9566ZM181.949 20.1331C181.385 20.1331 180.466 20.1781 179.371 20.2426L180.05 31.7901C181.21 31.7219 181.784 31.7006 181.949 31.7006V20.1331ZM173.927 26.0164V32.8319H185.494V26.0164H173.927ZM199.514 20.6436V14.8598H193.731V20.6436H199.514ZM208.469 20.6436H214.253V14.8598H208.469V20.6436ZM208.469 42.4332H202.685V48.217H208.469V42.4332ZM220.06 42.4332H225.844V36.6495H220.06V42.4332ZM220.06 49V54.7838H225.844V49H220.06ZM199.514 49H193.731V54.7838H199.514V49ZM199.514 26.4273H208.469V14.8598H199.514V26.4273ZM202.685 20.6436V42.4332H214.253V20.6436H202.685ZM208.469 48.217H220.06V36.6495H208.469V48.217ZM214.277 42.4332V49H225.844V42.4332H214.277ZM220.06 43.2162H199.514V54.7838H220.06V43.2162ZM205.298 49V20.6436H193.731V49H205.298ZM223.025 20.6436V14.8598H217.241V20.6436H223.025ZM243.67 20.6436H249.454V14.8598H243.67V20.6436ZM243.67 26.6133V32.3971H249.454V26.6133H243.67ZM231.979 26.6133V20.8296H226.195V26.6133H231.979ZM231.979 31.7871H226.195V37.5709H231.979V31.7871ZM241.829 31.7871H247.613V26.0034H241.829V31.7871ZM241.829 37.1599V42.9437H247.613V37.1599H241.829ZM231.979 37.1599V31.3762H226.195V37.1599H231.979ZM231.979 42.9307H226.195V48.7145H231.979V42.9307ZM243.62 42.9307H249.404V37.147H243.62V42.9307ZM243.62 49V54.7838H249.404V49H243.62ZM223.025 49H217.241V54.7838H223.025V49ZM223.025 26.4273H243.67V14.8598H223.025V26.4273ZM237.886 20.6436V26.6133H249.454V20.6436H237.886ZM243.67 20.8296H231.979V32.3971H243.67V20.8296ZM226.195 26.6133V31.7871H237.763V26.6133H226.195ZM231.979 37.5709H241.829V26.0034H231.979V37.5709ZM236.046 31.7871V37.1599H247.613V31.7871H236.046ZM241.829 31.3762H231.979V42.9437H241.829V31.3762ZM226.195 37.1599V42.9307H237.763V37.1599H226.195ZM231.979 48.7145H243.62V37.147H231.979V48.7145ZM237.837 42.9307V49H249.404V42.9307H237.837ZM243.62 43.2162H223.025V54.7838H243.62V43.2162ZM228.808 49V20.6436H217.241V49H228.808Z" fill="white" mask="url(#path-1-outside-1_412_2)"/>
<path d="M52.6169 86.309V87.5346L53.8426 87.5358L61.1598 87.5429H61.161C64.2712 87.5429 67.0174 86.6493 69.0081 84.9644C71.0172 83.2639 72.1731 80.8239 72.1731 77.9412C72.1731 75.0779 71.0149 72.6434 69.004 70.9439C67.0107 69.2594 64.2584 68.3591 61.1335 68.3591H53.8438H52.6169V69.5859V86.309ZM59.0063 81.948V73.9434H61.161C62.7957 73.9434 63.908 74.4333 64.6049 75.1068C65.3019 75.7805 65.6992 76.7491 65.6992 77.9341V77.9377C65.6992 79.0564 65.2861 80.0398 64.5517 80.7456C63.8196 81.4492 62.6907 81.9495 61.1347 81.948H61.1335H59.0063Z" fill="black" stroke="white" stroke-width="2.45372"/>
<path d="M72.5174 86.309V87.5358H73.7443H77.6741H78.9009V86.309V69.5859V68.3591H77.6741H73.7443H72.5174V69.5859V86.309Z" fill="black" stroke="white" stroke-width="2.45372"/>
<path d="M90.5553 86.6733L90.9141 87.2602H91.602H96.1488H98.4224L97.1742 85.3598L93.8474 80.2947C95.6809 79.374 97.2676 77.5396 97.2676 74.7021C97.2676 72.8172 96.5366 71.1289 95.1832 69.9239C93.8395 68.7277 91.9709 68.0834 89.8041 68.0834H81.1586H79.9317V69.3103V86.0333V87.2602H81.1586H85.0884H86.3152V86.0333V81.3208H87.283L90.5553 86.6733ZM89.2461 75.7401H86.3152V73.6677H89.2441C89.8114 73.6677 90.215 73.824 90.4478 74.0061C90.6325 74.1507 90.7426 74.3312 90.7642 74.5803V74.6772C90.7642 75.0155 90.6383 75.2368 90.4343 75.4001C90.2045 75.5839 89.8072 75.7401 89.2461 75.7401Z" fill="black" stroke="white" stroke-width="2.45372"/>
<path d="M97.9334 86.309V87.5358H99.1603H112.245H113.471V86.309V83.1873V81.9604H112.245H104.323V80.6027H112.05H113.277V79.3759V76.2311V75.0042H112.05H104.323V73.9469H112.245H113.471V72.7201V69.5859V68.3591H112.245H99.1603H97.9334V69.5859V86.309Z" fill="black" stroke="white" stroke-width="2.45372"/>
<path d="M132.506 74.5198L133.789 73.9487L133.051 72.7542C131.559 70.34 128.836 68.0834 124.301 68.0834C118.235 68.0834 113.206 71.9481 113.206 77.9625C113.206 83.9556 118.233 87.8413 124.301 87.8433H124.301C128.848 87.8433 131.564 85.5238 133.047 83.1536L133.802 81.9484L132.499 81.3787L129.117 79.8997L128.108 79.458L127.561 80.415C127.001 81.3946 125.739 82.2288 124.303 82.2288C121.535 82.2288 119.71 80.3855 119.71 77.9642C119.71 75.5424 121.536 73.6979 124.303 73.6979C125.736 73.6979 126.999 74.5328 127.561 75.5147L128.112 76.4764L129.125 76.0256L132.506 74.5198Z" fill="black" stroke="white" stroke-width="2.45372"/>
<path d="M137.404 86.309V87.5358H138.631H142.594H143.821V86.309V73.9469H147.962H149.189V72.7201V69.5859V68.3591H147.962H133.226H131.999V69.5859V72.7201V73.9469H133.226H137.404V86.309Z" fill="black" stroke="white" stroke-width="2.45372"/>
<path d="M183.535 86.9486L183.894 87.5358H184.582H189.129H191.402L190.154 85.6354L186.827 80.5703C188.661 79.6496 190.247 77.8152 190.247 74.9778C190.247 73.0928 189.516 71.4045 188.163 70.1996C186.819 69.0033 184.951 68.3591 182.784 68.3591H174.138H172.911V69.5859V86.309V87.5358H174.138H178.068H179.295V86.309V81.5929H180.262L183.535 86.9486ZM182.226 76.0157H179.295V73.9434H182.224C182.791 73.9434 183.195 74.0996 183.428 74.2818C183.612 74.4264 183.722 74.6068 183.744 74.8559V74.9529C183.744 75.2912 183.618 75.5125 183.414 75.6757C183.184 75.8595 182.787 76.0157 182.226 76.0157Z" fill="black" stroke="white" stroke-width="2.45372"/>
<path d="M195.384 86.309V87.5358H196.611H200.542H201.769V86.309V79.8604L208.614 70.3001L210.003 68.3591H207.616H203.154H202.506L202.141 68.8939L198.579 74.1075L195.018 68.8939L194.653 68.3591H194.005H189.515H187.124L188.519 70.3015L195.384 79.8614V86.309Z" fill="black" stroke="white" stroke-width="2.45372"/>
<path d="M172.494 94.5806L173.314 95.3227L174.135 94.5824L176.452 92.4954L177.46 91.5877L176.454 90.6773L168.075 83.0877C168.408 82.5708 168.685 82.0225 168.901 81.4503C169.286 80.4351 169.479 79.3651 169.471 78.2865C169.47 75.5003 168.38 73.1183 166.27 71.209C164.163 69.3032 161.59 68.3609 158.624 68.3609L158.623 68.3609C155.656 68.3622 153.081 69.3041 150.976 71.209C148.865 73.1186 147.777 75.5023 147.777 78.2914C147.777 81.0815 148.865 83.4659 150.976 85.3756C153.081 87.2798 155.654 88.221 158.62 88.2219C159.767 88.2292 160.909 88.061 161.997 87.7231C162.691 87.5104 163.358 87.2278 163.984 86.8804L172.494 94.5806ZM158.617 82.7889V82.7889L158.603 82.7891C157.92 82.8007 157.243 82.6853 156.617 82.4524C155.991 82.2195 155.432 81.8759 154.972 81.4488L154.966 81.4435L154.96 81.4383C154.143 80.6981 153.655 79.7457 153.546 78.7523C153.438 77.7603 153.71 76.7526 154.34 75.8972C154.972 75.0385 155.932 74.3815 157.075 74.0657C158.217 73.7497 159.447 73.8024 160.548 74.2117C161.649 74.6207 162.531 75.3514 163.068 76.2525C163.603 77.1497 163.771 78.172 163.56 79.153C163.349 80.1366 162.762 81.0504 161.865 81.7239C160.965 82.3989 159.818 82.7823 158.617 82.7889Z" fill="#FF7223" stroke="white" stroke-width="2.45"/>
</svg>
