<svg width="33" height="33" viewBox="0 0 33 33" fill="none" xmlns="http://www.w3.org/2000/svg">
<path d="M15.1738 1.15398C15.9341 0.492358 17.0659 0.492358 17.8262 1.15398L18.2573 1.52902C18.8101 2.0101 19.5802 2.15405 20.2696 1.90518L20.807 1.71117C21.755 1.36891 22.8103 1.77773 23.2803 2.66935L23.5467 3.17477C23.8885 3.82309 24.5546 4.2355 25.2873 4.25246L25.8585 4.26568C26.8661 4.289 27.7024 5.05142 27.8186 6.05263L27.8845 6.62017C27.969 7.34817 28.4411 7.97334 29.1182 8.25383L29.646 8.4725C30.5772 8.85825 31.0817 9.87131 30.8283 10.8469L30.6847 11.3999C30.5005 12.1093 30.7149 12.8627 31.245 13.3689L31.6582 13.7635C32.3871 14.4596 32.4916 15.5864 31.9029 16.4046L31.5693 16.8684C31.1412 17.4633 31.069 18.2434 31.3804 18.9068L31.6231 19.424C32.0514 20.3364 31.7417 21.425 30.8973 21.9752L30.4186 22.2872C29.8046 22.6873 29.4554 23.3886 29.5061 24.1197L29.5456 24.6897C29.6154 25.6952 28.9334 26.5983 27.9472 26.8064L27.3881 26.9243C26.671 27.0757 26.0921 27.6034 25.8753 28.3035L25.7062 28.8493C25.408 29.8121 24.4458 30.4079 23.4511 30.2456L22.8872 30.1537C22.1638 30.0357 21.4333 30.3187 20.9782 30.8932L20.6235 31.341C19.9976 32.1311 18.8852 32.3391 18.0162 31.8284L17.5236 31.539C16.8917 31.1677 16.1083 31.1677 15.4764 31.539L14.9838 31.8284C14.1148 32.3391 13.0024 32.1311 12.3765 31.341L12.0218 30.8932C11.5667 30.3187 10.8362 30.0357 10.1128 30.1537L9.54894 30.2456C8.55416 30.4079 7.59197 29.8121 7.29378 28.8493L7.12475 28.3035C6.90793 27.6034 6.32899 27.0757 5.61188 26.9243L5.05284 26.8064C4.06663 26.5983 3.38462 25.6952 3.45438 24.6897L3.49392 24.1197C3.54464 23.3886 3.19545 22.6873 2.58142 22.2872L2.10274 21.9752C1.25829 21.4249 0.948587 20.3364 1.37686 19.424L1.61963 18.9068C1.93104 18.2434 1.85876 17.4633 1.43074 16.8684L1.09707 16.4046C0.508434 15.5864 0.612854 14.4596 1.34181 13.7635L1.75502 13.3689C2.28507 12.8627 2.49946 12.1093 2.31525 11.3999L2.17165 10.8469C1.91833 9.87131 2.42277 8.85825 3.35396 8.4725L3.8818 8.25383C4.5589 7.97334 5.031 7.34817 5.11549 6.62017L5.18136 6.05263C5.29755 5.05142 6.13389 4.289 7.14155 4.26568L7.71274 4.25246C8.44544 4.2355 9.1115 3.82309 9.45327 3.17477L9.71971 2.66935C10.1897 1.77773 11.245 1.36891 12.193 1.71117L12.7304 1.90518C13.4198 2.15405 14.1899 2.0101 14.7427 1.52902L15.1738 1.15398Z" fill="#4698D7"/>
<circle cx="16.5" cy="16.5" r="12.4592" fill="#1268AA"/>
<circle cx="16.5" cy="16.5" r="13.3852" stroke="white" stroke-width="0.168367"/>
<path d="M7.09923 18.0714L7.86597 20.5826H7.89443L8.66117 18.0714H9.58862L8.43181 21.5H7.32858L6.17177 18.0714H7.09923ZM11.1342 21.5485C10.8652 21.5485 10.6331 21.4955 10.4377 21.3895C10.2436 21.2824 10.094 21.13 9.98909 20.9325C9.88529 20.7338 9.83339 20.4978 9.83339 20.2243C9.83339 19.9587 9.88585 19.7266 9.99076 19.5279C10.0957 19.3281 10.2436 19.173 10.4344 19.0625C10.6252 18.9509 10.8501 18.8951 11.1091 18.8951C11.2921 18.8951 11.4595 18.9235 11.6113 18.9805C11.7631 19.0374 11.8942 19.1217 12.0047 19.2333C12.1152 19.3449 12.2011 19.4827 12.2625 19.6468C12.3239 19.8097 12.3546 19.9967 12.3546 20.2076V20.4118H10.1197V19.9364H11.5929C11.5918 19.8493 11.5711 19.7718 11.5309 19.7037C11.4908 19.6356 11.4355 19.5826 11.3652 19.5446C11.296 19.5056 11.2162 19.486 11.1258 19.486C11.0343 19.486 10.9523 19.5067 10.8797 19.548C10.8072 19.5882 10.7497 19.6434 10.7073 19.7137C10.6649 19.7829 10.6425 19.8616 10.6403 19.9498V20.4336C10.6403 20.5385 10.661 20.6306 10.7023 20.7098C10.7436 20.7879 10.8021 20.8488 10.878 20.8923C10.9539 20.9358 11.0443 20.9576 11.1492 20.9576C11.2218 20.9576 11.2876 20.9475 11.3468 20.9275C11.4059 20.9074 11.4567 20.8778 11.4991 20.8387C11.5415 20.7997 11.5733 20.7517 11.5946 20.6948L12.3462 20.7165C12.315 20.885 12.2463 21.0318 12.1403 21.1568C12.0354 21.2807 11.8976 21.3772 11.7268 21.4464C11.5561 21.5145 11.3585 21.5485 11.1342 21.5485ZM13.0556 21.5V18.9286H13.8508V19.3973H13.8776C13.9244 19.2277 14.0009 19.1016 14.1069 19.019C14.2129 18.9353 14.3363 18.8934 14.4769 18.8934C14.5148 18.8934 14.5539 18.8962 14.5941 18.9018C14.6342 18.9063 14.6716 18.9135 14.7062 18.9235V19.635C14.6672 19.6217 14.6158 19.611 14.5522 19.6032C14.4897 19.5954 14.4339 19.5915 14.3848 19.5915C14.2877 19.5915 14.2001 19.6133 14.122 19.6568C14.045 19.6992 13.9841 19.7589 13.9395 19.8359C13.896 19.9118 13.8742 20.0011 13.8742 20.1038V21.5H13.0556ZM15.3227 21.5V18.9286H16.1413V21.5H15.3227ZM15.7328 18.6289C15.6179 18.6289 15.5191 18.591 15.4365 18.5151C15.3539 18.4381 15.3126 18.3454 15.3126 18.2372C15.3126 18.13 15.3539 18.0385 15.4365 17.9626C15.5191 17.8856 15.6179 17.8471 15.7328 17.8471C15.8489 17.8471 15.9477 17.8856 16.0291 17.9626C16.1117 18.0385 16.153 18.13 16.153 18.2372C16.153 18.3454 16.1117 18.4381 16.0291 18.5151C15.9477 18.591 15.8489 18.6289 15.7328 18.6289ZM18.4067 18.9286V19.5313H16.7527V18.9286H18.4067ZM17.0976 21.5V18.798C17.0976 18.5993 17.135 18.4347 17.2097 18.3041C17.2845 18.1724 17.3883 18.0742 17.5211 18.0095C17.6539 17.9436 17.8074 17.9107 17.9815 17.9107C18.0953 17.9107 18.2025 17.9196 18.3029 17.9375C18.4045 17.9542 18.4798 17.9693 18.5289 17.9827L18.3983 18.582C18.3682 18.572 18.3314 18.5636 18.2879 18.5569C18.2454 18.5502 18.2053 18.5469 18.1673 18.5469C18.0713 18.5469 18.0055 18.5681 17.9698 18.6105C17.9341 18.6529 17.9162 18.7109 17.9162 18.7846V21.5H17.0976ZM19.0834 21.5V18.9286H19.902V21.5H19.0834ZM19.4936 18.6289C19.3786 18.6289 19.2798 18.591 19.1972 18.5151C19.1147 18.4381 19.0734 18.3454 19.0734 18.2372C19.0734 18.13 19.1147 18.0385 19.1972 17.9626C19.2798 17.8856 19.3786 17.8471 19.4936 17.8471C19.6096 17.8471 19.7084 17.8856 19.7899 17.9626C19.8725 18.0385 19.9138 18.13 19.9138 18.2372C19.9138 18.3454 19.8725 18.4381 19.7899 18.5151C19.7084 18.591 19.6096 18.6289 19.4936 18.6289ZM21.908 21.5485C21.639 21.5485 21.4069 21.4955 21.2115 21.3895C21.0173 21.2824 20.8678 21.13 20.7629 20.9325C20.6591 20.7338 20.6072 20.4978 20.6072 20.2243C20.6072 19.9587 20.6596 19.7266 20.7646 19.5279C20.8695 19.3281 21.0173 19.173 21.2082 19.0625C21.399 18.9509 21.6239 18.8951 21.8829 18.8951C22.0659 18.8951 22.2333 18.9235 22.3851 18.9805C22.5369 19.0374 22.668 19.1217 22.7785 19.2333C22.889 19.3449 22.9749 19.4827 23.0363 19.6468C23.0977 19.8097 23.1284 19.9967 23.1284 20.2076V20.4118H20.8935V19.9364H22.3667C22.3656 19.8493 22.3449 19.7718 22.3047 19.7037C22.2646 19.6356 22.2093 19.5826 22.139 19.5446C22.0698 19.5056 21.99 19.486 21.8996 19.486C21.8081 19.486 21.7261 19.5067 21.6535 19.548C21.581 19.5882 21.5235 19.6434 21.4811 19.7137C21.4387 19.7829 21.4163 19.8616 21.4141 19.9498V20.4336C21.4141 20.5385 21.4348 20.6306 21.4761 20.7098C21.5173 20.7879 21.5759 20.8488 21.6518 20.8923C21.7277 20.9358 21.8181 20.9576 21.923 20.9576C21.9956 20.9576 22.0614 20.9475 22.1206 20.9275C22.1797 20.9074 22.2305 20.8778 22.2729 20.8387C22.3153 20.7997 22.3471 20.7517 22.3684 20.6948L23.12 20.7165C23.0888 20.885 23.0201 21.0318 22.9141 21.1568C22.8092 21.2807 22.6714 21.3772 22.5006 21.4464C22.3298 21.5145 22.1323 21.5485 21.908 21.5485ZM24.7685 21.5368C24.5788 21.5368 24.4064 21.4877 24.2512 21.3895C24.0961 21.2913 23.9722 21.144 23.8796 20.9475C23.787 20.7511 23.7406 20.5073 23.7406 20.216C23.7406 19.9135 23.7886 19.6646 23.8846 19.4693C23.9806 19.274 24.1061 19.1295 24.2613 19.0357C24.4175 18.942 24.5855 18.8951 24.7652 18.8951C24.9002 18.8951 25.0157 18.9185 25.1117 18.9654C25.2077 19.0112 25.287 19.0703 25.3495 19.1429C25.412 19.2154 25.4594 19.2907 25.4918 19.3689H25.5085V18.0714H26.3271V21.5H25.5169V21.0831H25.4918C25.4572 21.1624 25.408 21.2366 25.3444 21.3058C25.2808 21.375 25.201 21.4308 25.105 21.4732C25.0102 21.5156 24.898 21.5368 24.7685 21.5368ZM25.0531 20.899C25.1525 20.899 25.2373 20.8711 25.3076 20.8153C25.3779 20.7584 25.432 20.6786 25.47 20.5759C25.5079 20.4732 25.5269 20.3527 25.5269 20.2143C25.5269 20.0737 25.5079 19.9526 25.47 19.851C25.4332 19.7494 25.379 19.6713 25.3076 19.6166C25.2373 19.5619 25.1525 19.5346 25.0531 19.5346C24.9516 19.5346 24.8656 19.5625 24.7953 19.6183C24.725 19.6741 24.6714 19.7528 24.6346 19.8544C24.5989 19.9559 24.581 20.0759 24.581 20.2143C24.581 20.3527 24.5995 20.4732 24.6363 20.5759C24.6731 20.6786 24.7261 20.7584 24.7953 20.8153C24.8656 20.8711 24.9516 20.899 25.0531 20.899Z" fill="white"/>
<path d="M12.8147 10.0999L10 11.9631C10.0093 11.9707 10.0192 11.9776 10.0296 11.9838C10.6749 12.2493 11.2413 12.6362 11.7795 13.0647C12.8318 13.9018 13.7389 14.873 14.5589 15.9237C14.5778 15.9478 14.5982 15.9708 14.6226 16C14.6383 15.9746 14.6486 15.9578 14.6593 15.941C14.8813 15.5904 15.0853 15.2272 15.3281 14.8913C16.4456 13.3438 17.7543 11.9606 19.1988 10.6975C19.7548 10.2113 20.3337 9.75259 20.992 9.39837C20.9961 9.39612 20.9972 9.38868 21 9.38315C20.5836 8.91943 20.318 8.37581 20.117 7.79881C19.9148 7.21817 19.8108 6.62267 19.8242 6C17.5393 7.72063 15.891 9.93455 14.5452 12.4013L12.8147 10.0999Z" fill="white"/>
</svg>
