<svg width="50" height="50" viewBox="0 0 50 50" fill="none" xmlns="http://www.w3.org/2000/svg">
<circle cx="25" cy="25" r="25" fill="white"/>
<g clip-path="url(#clip0_307_29)">
<path d="M20.7556 18.5875L13.2626 23.6872C13.2873 23.708 13.3136 23.727 13.3412 23.744C15.0592 24.4707 16.5672 25.5297 17.9998 26.7023C20.8011 28.9936 23.2162 31.6519 25.3991 34.5279C25.4493 34.5937 25.5038 34.6566 25.5687 34.7366C25.6104 34.667 25.6379 34.6211 25.6663 34.5752C26.2573 33.6156 26.8004 32.6214 27.4468 31.7021C30.4216 27.4664 33.9058 23.6805 37.7512 20.2232C39.2312 18.8924 40.7724 17.6369 42.5249 16.6674C42.5358 16.6612 42.5387 16.6409 42.5463 16.6257C41.4378 15.3565 40.7307 13.8685 40.1956 12.2892C39.6573 10.7 39.3805 9.07001 39.416 7.36572C33.3333 12.0752 28.9454 18.1349 25.3626 24.8868L20.7556 18.5875Z" fill="#14C55A"/>
<path d="M44.1954 18.8864C43.8063 19.0498 43.8048 19.0502 43.911 19.4157C44.6462 21.9114 44.8787 24.5279 44.5949 27.1139C44.3456 29.3863 43.7608 31.564 42.712 33.5935C39.4927 39.818 34.4213 43.4931 27.4614 44.5048C25.116 44.8452 22.7801 44.6993 20.4797 44.1412C15.7353 42.9898 11.9151 40.4291 9.0375 36.496C6.64897 33.2332 5.43575 29.552 5.29357 25.5209C5.24264 24.1322 5.35397 22.7423 5.62531 21.3794C6.74517 15.7993 9.68439 11.4297 14.4776 8.3558C18.4163 5.82966 22.7521 4.89988 27.3951 5.43389C29.8504 5.71794 32.1655 6.47067 34.3417 7.64521C34.6957 7.83457 34.6967 7.83457 34.9635 7.49514C27.8993 3.3253 17.3613 3.70782 10.2725 11.2498C3.38085 18.5853 2.95859 29.9757 9.4972 37.8296C15.6752 45.2461 26.6316 47.741 35.7189 42.0127C44.492 36.4828 46.6995 26.3825 44.1954 18.8864Z" fill="#14C55A"/>
<path d="M25.8185 37.428C23.0669 37.6174 20.4888 36.9707 18.1979 35.4188C14.4829 32.9022 12.5583 29.3823 12.5256 24.8825C12.5067 22.461 13.1891 20.2222 14.5265 18.2074C16.5743 15.1212 19.4358 13.2541 23.1044 12.6509C24.2595 12.4655 25.4355 12.4495 26.5952 12.6036C27.5503 12.7276 28.4883 12.9591 29.3913 13.2938C29.4586 13.3189 29.5738 13.3236 29.6169 13.2839C29.7278 13.1812 29.8107 13.0472 29.9088 12.9222C25.3119 10.9694 18.8406 11.7964 14.7687 16.9083C10.8826 21.7845 11.0527 28.8043 15.1601 33.5143C19.305 38.2678 26.2066 39.3984 31.6263 36.19C34.3049 34.6046 36.1816 32.3317 37.2659 29.4136C37.927 27.6298 38.1469 25.7858 37.9934 23.8524C37.6806 24.1052 37.4379 24.3054 37.4744 24.7424C37.5422 25.5534 37.4412 26.3624 37.3005 27.1653C36.3683 32.4699 31.896 37.0095 25.8185 37.428Z" fill="#14C55A"/>
<path d="M38.278 23.7842C38.418 25.2713 38.3008 26.7713 37.9316 28.2187C36.2137 35.0297 29.4751 39.3482 22.573 38.0657C16.9424 37.0209 12.5919 32.4676 11.8047 26.8164C11.5747 25.1962 11.6478 23.5475 12.0203 21.954C13.8648 14.057 22.3133 9.6239 29.8708 12.5879C30.0604 12.6618 30.1551 12.632 30.2831 12.4838C31.1362 11.5095 31.9892 10.5366 32.8636 9.58319C33.3479 9.05486 33.874 8.56487 34.3972 8.04128C27.6846 4.14602 17.2836 4.44711 10.4256 12.1955C3.90263 19.5628 3.9377 30.7623 10.7654 38.1428C17.5718 45.4983 28.9234 46.4678 36.8269 40.3352C40.8746 37.1946 43.3305 33.0716 44.1679 28.0179C44.6579 25.0586 44.4342 22.1358 43.5385 19.2314C43.376 19.3346 43.2489 19.4108 43.1262 19.4936C41.4267 20.644 39.9164 22.0212 38.4202 23.4149C38.3666 23.4589 38.3253 23.5161 38.3004 23.5808C38.2755 23.6455 38.2678 23.7156 38.278 23.7842Z" fill="#14C55A"/>
<path d="M42.9837 23.0212L43.0164 23.5904L40.2531 24.1198L40.2536 24.1301L43.0595 24.3391L43.0893 24.8571L39.4683 24.52L39.4252 23.7713L42.9837 23.0212Z" fill="white"/>
<path d="M42.9704 26.996L42.735 28.5189L42.2274 28.4404L42.3765 27.4759L41.4374 27.3308L41.3189 28.0973L40.8112 28.0188L40.9297 27.2523L39.8383 27.0836L39.6892 28.0481L39.1816 27.9697L39.417 26.4468L42.9704 26.996Z" fill="white"/>
<path d="M42.1457 30.7585L41.8412 31.5384C41.7353 31.8096 41.5943 31.9824 41.4181 32.057C41.2452 32.1328 41.0279 32.1197 40.7663 32.0175L40.5606 31.9372C40.2129 31.8014 40.0376 31.6007 40.0348 31.3349L40.0252 31.3311C39.9371 31.4438 39.8241 31.5026 39.6861 31.5075C39.5469 31.5157 39.3784 31.4811 39.1807 31.4039L38.5921 31.1741C38.4964 31.1367 38.417 31.1094 38.3539 31.0921C38.294 31.0761 38.2304 31.0696 38.163 31.0727L38.3723 30.5368C38.434 30.5389 38.49 30.546 38.5403 30.5583C38.5907 30.5706 38.678 30.6011 38.8024 30.6496L39.4149 30.8888C39.568 30.9486 39.6848 30.9648 39.7654 30.9374C39.8447 30.9132 39.908 30.8405 39.9553 30.7193L40.0263 30.5375L38.5909 29.977L38.7964 29.4507L42.1457 30.7585ZM40.4301 30.9157C40.3889 31.021 40.3855 31.1097 40.4198 31.1819C40.4529 31.2573 40.5332 31.32 40.6608 31.3698L40.9192 31.4707C41.0404 31.518 41.1368 31.5299 41.2085 31.5064C41.2789 31.4861 41.3322 31.4297 41.3683 31.3372L41.4617 31.098L40.5048 30.7243L40.4301 30.9157Z" fill="white"/>
<path d="M40.4511 34.3745L40.1516 34.8536L37.1028 32.9474L37.4023 32.4683L40.4511 34.3745Z" fill="white"/>
<path d="M38.8788 36.6002L37.883 37.715L37.4999 37.3728L38.1193 36.6794L37.3722 36.0122L36.8863 36.5562L36.5032 36.214L36.9891 35.67L35.8207 34.6264L36.197 34.205L38.8788 36.6002Z" fill="white"/>
<path d="M36.4203 39.0292L35.9779 39.3808L33.7409 36.5658L34.1832 36.2143L36.4203 39.0292Z" fill="white"/>
<path d="M34.1756 40.6189L32.8182 41.3484L32.5751 40.8959L33.4347 40.4339L32.9849 39.5969L32.3017 39.964L32.0585 39.5116L32.7417 39.1444L32.2189 38.1716L31.3593 38.6336L31.1161 38.1812L32.4735 37.4517L34.1756 40.6189Z" fill="white"/>
<path d="M30.6756 42.2271L29.8448 42.4608C29.5745 42.5368 29.3514 42.5213 29.1754 42.4143C28.9995 42.3073 28.8721 42.1137 28.7933 41.8335L28.3009 40.083C28.2221 39.8028 28.2298 39.5712 28.3242 39.3881C28.4186 39.2051 28.6009 39.0755 28.8712 38.9995L29.7019 38.7658L30.6756 42.2271ZM29.0202 39.4912C28.9312 39.5162 28.871 39.5616 28.8397 39.6273C28.8051 39.694 28.8045 39.7866 28.8379 39.9053L29.3441 41.7052C29.3775 41.8239 29.4264 41.9026 29.4906 41.9415C29.5516 41.9812 29.6266 41.9886 29.7156 41.9635L29.9925 41.8857L29.2971 39.4133L29.0202 39.4912Z" fill="white"/>
<path d="M21.5322 42.8556L20.9779 42.722L21.2722 39.9238L21.2622 39.9214L20.2489 42.5462L19.7445 42.4246L21.1167 39.0568L21.8457 39.2325L21.5322 42.8556Z" fill="white"/>
<path d="M17.7319 41.6909L16.3426 41.0242L16.5648 40.5611L17.4447 40.9833L17.8558 40.1266L17.1566 39.791L17.3788 39.3279L18.0781 39.6635L18.5559 38.6678L17.676 38.2456L17.8982 37.7825L19.2875 38.4492L17.7319 41.6909Z" fill="white"/>
<path d="M14.3699 39.811L13.7117 39.2935C13.4829 39.1136 13.3584 38.9285 13.338 38.7383C13.3156 38.5508 13.3912 38.3466 13.5647 38.1259L13.7013 37.9523C13.932 37.6589 14.1749 37.5493 14.4301 37.6236L14.4365 37.6156C14.3542 37.4986 14.3307 37.3734 14.366 37.2399C14.3985 37.1043 14.4804 36.9531 14.6116 36.7862L15.0022 36.2895C15.0657 36.2088 15.1148 36.1407 15.1497 36.0853C15.1824 36.0326 15.207 35.9736 15.2236 35.9082L15.6758 36.2638C15.656 36.3223 15.6329 36.3738 15.6065 36.4184C15.5802 36.463 15.5257 36.5378 15.4431 36.6428L15.0367 37.1597C14.9351 37.2889 14.8858 37.396 14.8886 37.481C14.8888 37.5639 14.94 37.6456 15.0423 37.726L15.1957 37.8466L16.1482 36.6353L16.5924 36.9845L14.3699 39.811ZM14.7167 38.1234C14.6279 38.0536 14.544 38.0246 14.4649 38.0365C14.3832 38.0463 14.3 38.105 14.2153 38.2127L14.0438 38.4307C13.9634 38.533 13.924 38.6219 13.9257 38.6973C13.9248 38.7705 13.9633 38.8379 14.0414 38.8993L14.2433 39.058L14.8782 38.2504L14.7167 38.1234Z" fill="white"/>
<path d="M11.4004 37.1411L11.0287 36.7156L13.7367 34.3501L14.1084 34.7757L11.4004 37.1411Z" fill="white"/>
<path d="M9.72594 34.9911L8.94757 33.715L9.3861 33.4475L9.87023 34.2412L10.7254 33.7197L10.3455 33.097L10.7841 32.8295L11.1639 33.4522L12.5014 32.6364L12.7956 33.1187L9.72594 34.9911Z" fill="white"/>
<path d="M8.11375 31.9341L7.90551 31.4089L11.2481 30.0837L11.4563 30.609L8.11375 31.9341Z" fill="white"/>
<path d="M7.24292 29.325L6.9382 27.8145L7.44172 27.7129L7.63471 28.6696L8.56622 28.4817L8.41285 27.7213L8.91637 27.6198L9.06975 28.3801L10.1523 28.1617L9.95932 27.205L10.4628 27.1034L10.7676 28.614L7.24292 29.325Z" fill="white"/>
<path d="M6.71827 25.5091L6.73541 24.6463C6.74099 24.3655 6.82049 24.1565 6.97392 24.0191C7.12736 23.8817 7.34958 23.8159 7.6406 23.8217L9.45861 23.8578C9.74963 23.8636 9.96907 23.9382 10.1169 24.0815C10.2648 24.2249 10.3359 24.437 10.3303 24.7177L10.3132 25.5805L6.71827 25.5091ZM9.81658 24.7178C9.81841 24.6253 9.79242 24.5546 9.73859 24.5056C9.68483 24.4531 9.59632 24.4257 9.47307 24.4232L7.6037 24.3861C7.48045 24.3837 7.39092 24.4076 7.33512 24.4578C7.27939 24.5047 7.2506 24.5743 7.24877 24.6668L7.24305 24.9544L9.81086 25.0054L9.81658 24.7178Z" fill="white"/>
<path d="M8.76688 16.5761L9.05545 16.0843L11.6482 17.177L11.6534 17.1682L9.43501 15.4375L9.69758 14.9901L12.5231 17.2795L12.1436 17.9263L8.76688 16.5761Z" fill="white"/>
<path d="M10.9832 13.2765L12.0239 12.1401L12.4027 12.487L11.7436 13.2067L12.4444 13.8485L12.9682 13.2765L13.347 13.6234L12.8232 14.1954L13.6376 14.9413L14.2968 14.2216L14.6756 14.5685L13.6348 15.7049L10.9832 13.2765Z" fill="white"/>
<path d="M13.7568 10.6037L14.4429 10.1238C14.6814 9.95693 14.8946 9.89136 15.0826 9.92705C15.2685 9.95993 15.442 10.0914 15.603 10.3215L15.7296 10.5025C15.9435 10.8084 15.9779 11.0726 15.8328 11.2953L15.8387 11.3038C15.9745 11.2589 16.1012 11.2727 16.2187 11.3451C16.339 11.4156 16.46 11.5378 16.5817 11.7118L16.9439 12.2295C17.0028 12.3137 17.0537 12.3805 17.0966 12.4299C17.1375 12.4764 17.1869 12.5171 17.2446 12.5519L16.7732 12.8817C16.723 12.8458 16.6804 12.8087 16.6453 12.7706C16.6103 12.7324 16.5545 12.6586 16.4779 12.5492L16.1011 12.0104C16.0068 11.8757 15.9186 11.7974 15.8365 11.7755C15.7571 11.7516 15.6641 11.777 15.5574 11.8516L15.3975 11.9635L16.2808 13.2262L15.8178 13.55L13.7568 10.6037ZM15.2714 11.4248C15.364 11.36 15.4161 11.2881 15.4276 11.2089C15.4419 11.1279 15.4099 11.0312 15.3313 10.919L15.1724 10.6917C15.0978 10.5851 15.0241 10.5216 14.9515 10.5014C14.8816 10.4792 14.806 10.4966 14.7247 10.5535L14.5142 10.7007L15.1031 11.5425L15.2714 11.4248Z" fill="white"/>
<path d="M17.1728 8.5355L17.6878 8.30309L19.1668 11.5805L18.6518 11.8129L17.1728 8.5355Z" fill="white"/>
<path d="M19.7159 7.55614L21.1628 7.18107L21.2917 7.6783L20.3917 7.91159L20.643 8.88119L21.3491 8.69816L21.478 9.19539L20.7719 9.37842L21.165 10.895L20.6181 11.0367L19.7159 7.55614Z" fill="white"/>
<path d="M23.1089 6.8992L23.672 6.85215L23.9714 10.4353L23.4083 10.4824L23.1089 6.8992Z" fill="white"/>
<path d="M25.8584 6.82201L27.3925 6.96821L27.3437 7.47955L26.3722 7.38697L26.282 8.33296L27.0541 8.40654L27.0054 8.91789L26.2333 8.8443L26.1285 9.9437L27.1001 10.0363L27.0513 10.5476L25.5173 10.4014L25.8584 6.82201Z" fill="white"/>
<path d="M29.6626 7.4259L30.4834 7.69238C30.7505 7.77909 30.9275 7.91578 31.0145 8.10244C31.1015 8.28911 31.1001 8.52087 31.0102 8.79772L30.4487 10.5272C30.3588 10.8041 30.2238 10.9925 30.0438 11.0924C29.8637 11.1924 29.6401 11.199 29.373 11.1123L28.5523 10.8458L29.6626 7.4259ZM29.5219 10.6206C29.6098 10.6491 29.6851 10.6447 29.7476 10.6074C29.8134 10.5712 29.8653 10.4944 29.9033 10.3772L30.4807 8.59881C30.5188 8.48156 30.5219 8.38894 30.4899 8.32097C30.4612 8.25405 30.4029 8.20631 30.315 8.17776L30.0414 8.08894L29.2483 10.5317L29.5219 10.6206Z" fill="white"/>
</g>
<defs>
<clipPath id="clip0_307_29">
<rect width="40.3226" height="40.3226" fill="white" transform="translate(4.83875 4.83875)"/>
</clipPath>
</defs>
</svg>
