<svg width="32" height="32" viewBox="0 0 32 32" fill="none" xmlns="http://www.w3.org/2000/svg">
<mask id="mask0_320_12" style="mask-type:alpha" maskUnits="userSpaceOnUse" x="0" y="0" width="32" height="32">
<rect width="32" height="32" fill="#D9D9D9"/>
</mask>
<g mask="url(#mask0_320_12)">
<path d="M13.0002 21.3845L21.3847 15.9999L13.0002 10.6154V21.3845ZM16.0024 28.6666C14.2505 28.6666 12.6037 28.3341 11.0622 27.6692C9.5207 27.0044 8.17979 26.102 7.0395 24.9623C5.89919 23.8225 4.99644 22.4821 4.33126 20.9413C3.66609 19.4005 3.3335 17.7541 3.3335 16.0022C3.3335 14.2503 3.66594 12.6036 4.33083 11.062C4.99572 9.52051 5.89805 8.1796 7.03783 7.03932C8.17763 5.899 9.51795 4.99626 11.0588 4.33108C12.5996 3.6659 14.246 3.33331 15.9979 3.33331C17.7498 3.33331 19.3965 3.66576 20.938 4.33065C22.4796 4.99554 23.8205 5.89787 24.9608 7.03765C26.1011 8.17745 27.0038 9.51777 27.669 11.0586C28.3342 12.5994 28.6668 14.2458 28.6668 15.9977C28.6668 17.7496 28.3343 19.3963 27.6694 20.9378C27.0045 22.4794 26.1022 23.8203 24.9624 24.9606C23.8226 26.1009 22.4823 27.0036 20.9415 27.6688C19.4006 28.334 17.7543 28.6666 16.0024 28.6666ZM16.0001 26.6666C18.9779 26.6666 21.5001 25.6333 23.5668 23.5666C25.6335 21.4999 26.6668 18.9777 26.6668 15.9999C26.6668 13.0222 25.6335 10.4999 23.5668 8.43328C21.5001 6.36661 18.9779 5.33328 16.0001 5.33328C13.0224 5.33328 10.5001 6.36661 8.43346 8.43328C6.3668 10.4999 5.33346 13.0222 5.33346 15.9999C5.33346 18.9777 6.3668 21.4999 8.43346 23.5666C10.5001 25.6333 13.0224 26.6666 16.0001 26.6666Z" fill="white"/>
</g>
</svg>
