<svg width="22" height="22" viewBox="0 0 22 22" fill="none" xmlns="http://www.w3.org/2000/svg">
<mask id="mask0_125_60" style="mask-type:alpha" maskUnits="userSpaceOnUse" x="0" y="0" width="22" height="22">
<rect width="22" height="22" fill="#D9D9D9"/>
</mask>
<g mask="url(#mask0_125_60)">
<path d="M11 20.625C9.21249 20.625 7.5904 20.1825 6.13371 19.2976C4.67703 18.4126 3.53444 17.2268 2.70592 15.7402V18.4743H1.33095V13.4327H6.37259V14.8076H3.76887C4.4317 16.1427 5.41124 17.2169 6.7075 18.0301C8.00377 18.8434 9.4346 19.25 11 19.25C12.1223 19.25 13.175 19.0426 14.1581 18.6277C15.1411 18.2129 16.0017 17.6467 16.7397 16.9293C17.4778 16.2118 18.0704 15.3645 18.5175 14.3873C18.9647 13.4101 19.2059 12.3574 19.2412 11.2292H20.6161C20.5868 12.5313 20.3144 13.7524 19.7991 14.8923C19.2837 16.0323 18.5927 17.0282 17.726 17.8803C16.8593 18.7323 15.8486 19.4028 14.694 19.8916C13.5393 20.3805 12.308 20.625 11 20.625ZM10.3513 17.2404V16.084C9.68025 15.9277 9.12232 15.6491 8.6775 15.2484C8.23268 14.8476 7.89157 14.3071 7.65418 13.6266L8.81409 13.1542C9.03268 13.7512 9.34559 14.2048 9.7528 14.5151C10.16 14.8253 10.6216 14.9805 11.1375 14.9805C11.6593 14.9805 12.1276 14.8503 12.5425 14.59C12.9573 14.3297 13.1647 13.9122 13.1647 13.3375C13.1647 12.8592 12.9864 12.4781 12.6297 12.1943C12.2731 11.9105 11.6076 11.59 10.6333 11.2327C9.69082 10.8942 9.01096 10.5152 8.59377 10.0957C8.17656 9.67612 7.96796 9.12201 7.96796 8.43333C7.96796 7.84221 8.18126 7.30102 8.60786 6.80978C9.03446 6.31854 9.63088 6.00534 10.3971 5.8702V4.75963H11.6487V5.8702C12.1634 5.91016 12.6373 6.10378 13.0704 6.45104C13.5035 6.79832 13.8158 7.21582 14.0073 7.70353L12.8756 8.15831C12.7182 7.81869 12.4931 7.53635 12.2005 7.31129C11.9079 7.08623 11.523 6.9737 11.0458 6.9737C10.4758 6.9737 10.029 7.10886 9.7052 7.37917C9.38142 7.64946 9.21953 8.00085 9.21953 8.43333C9.21953 8.86582 9.37759 9.20252 9.69372 9.44343C10.0098 9.68435 10.6498 9.96934 11.6135 10.2984C12.7135 10.6956 13.4527 11.141 13.8311 11.6346C14.2095 12.1282 14.3987 12.6958 14.3987 13.3375C14.3987 13.7747 14.3179 14.1584 14.1563 14.4886C13.9947 14.8189 13.7835 15.0965 13.5226 15.3216C13.2617 15.5466 12.9646 15.7243 12.6315 15.8548C12.2983 15.9852 11.9554 16.0769 11.6029 16.1298V17.2404H10.3513ZM1.38384 10.7708C1.42498 9.43931 1.70615 8.20211 2.22736 7.05921C2.74856 5.91632 3.44545 4.92181 4.31804 4.07566C5.19065 3.22952 6.19986 2.56787 7.34568 2.09073C8.49151 1.61359 9.70962 1.37502 11 1.37502C12.7699 1.37502 14.392 1.81897 15.8663 2.70685C17.3406 3.59473 18.4832 4.79082 19.2941 6.29512V3.52571H20.669V8.56733H15.6274V7.19237H18.2311C17.5859 5.88081 16.6137 4.81252 15.3145 3.98752C14.0153 3.16251 12.5771 2.75 11 2.75C9.90117 2.75 8.86169 2.95449 7.88156 3.36346C6.90145 3.77243 6.03943 4.33271 5.29551 5.0443C4.5516 5.7559 3.95166 6.60028 3.49568 7.57747C3.0397 8.55466 2.79408 9.61911 2.75882 10.7708H1.38384Z" fill="#1C1B1F"/>
</g>
</svg>
